<svg width="120" height="120" viewBox="0 0 120 120" fill="none" xmlns="http://www.w3.org/2000/svg">
<g clip-path="url(#clip0)">
<path d="M38.9017 20.1061C38.8643 20.0686 38.8269 20.0312 38.7894 19.9563C38.7145 19.8066 38.752 19.6568 38.9392 19.5819C39.0515 19.507 39.1638 19.5445 39.3136 19.6193C39.5008 19.8066 39.8003 19.7691 40.0624 19.6568C40.362 19.507 40.5117 19.2449 40.3994 19.0203C40.3245 18.8331 40.1373 18.7956 39.7255 18.908L39.3885 18.9828C38.752 19.1326 38.3401 19.0203 38.1529 18.6084C37.8908 18.0842 38.1904 17.5226 38.8269 17.2231C39.351 16.961 39.8378 16.9984 40.1373 17.298C40.1748 17.3354 40.2122 17.3729 40.2122 17.4103C40.2871 17.5601 40.2122 17.7098 40.0624 17.7847C39.9127 17.8596 39.8378 17.8222 39.688 17.7473C39.5008 17.5975 39.2762 17.5975 39.0141 17.7098C38.7145 17.8596 38.6022 18.0842 38.7145 18.3089C38.7894 18.4961 38.9766 18.5335 39.351 18.4212L39.688 18.3463C40.362 18.1591 40.7364 18.2715 40.9236 18.7207C41.1857 19.2824 40.9236 19.844 40.2122 20.181C39.6506 20.4056 39.1638 20.3682 38.9017 20.1061Z" fill="#AD8745"/>
<path d="M42.4587 18.6459L41.5601 16.3619C41.4852 16.1747 41.5601 15.9875 41.7473 15.9126L43.1327 15.351C43.3199 15.2761 43.4322 15.351 43.5071 15.5008C43.582 15.6505 43.5071 15.8003 43.3199 15.8752L42.2341 16.3245L42.5336 17.0359L43.582 16.624C43.7317 16.5491 43.8815 16.624 43.9189 16.7738C43.9938 16.9236 43.9189 17.0359 43.7692 17.1108L42.7208 17.5226L43.0203 18.2714L44.1062 17.8221C44.2559 17.7473 44.4057 17.8221 44.4806 17.9719C44.5554 18.1217 44.4806 18.2714 44.2934 18.3463L42.908 18.908C42.7208 18.908 42.571 18.8331 42.4587 18.6459Z" fill="#AD8745"/>
<path d="M45.7161 17.4852C45.7161 17.4477 45.6787 17.3728 45.7161 17.2605L45.8659 14.7519C45.8659 14.4898 45.9782 14.3026 46.2403 14.2652C46.5024 14.1903 46.6521 14.2652 46.8393 14.4898L48.337 16.5117C48.3744 16.5866 48.4119 16.624 48.4493 16.6989C48.4868 16.8861 48.4119 17.0359 48.2247 17.1107C48.0375 17.1482 47.9251 17.1107 47.8128 16.9235L47.5133 16.4742L46.4275 16.8112V17.3354C46.4275 17.56 46.3526 17.6724 46.2028 17.7098C45.9408 17.7473 45.791 17.6724 45.7161 17.4852ZM47.1763 15.9875L46.3901 14.8643L46.3526 16.2122L47.1763 15.9875Z" fill="#AD8745"/>
<path d="M49.7598 16.2496L49.2356 13.7785C49.1981 13.5538 49.273 13.4041 49.4977 13.3666C49.6849 13.3292 49.8346 13.4415 49.9095 13.6287L50.3963 15.8752L51.4821 15.6505C51.6693 15.6131 51.7816 15.688 51.819 15.8752C51.8565 16.025 51.7442 16.1747 51.5944 16.2122L50.1716 16.5117C49.947 16.5866 49.7972 16.4743 49.7598 16.2496Z" fill="#AD8745"/>
<path d="M55.4135 15.3884L55.1888 13.0671L54.5523 13.142C54.3651 13.142 54.2528 13.0671 54.2153 12.8799C54.2153 12.6927 54.2902 12.5803 54.4774 12.5803L56.4244 12.3931C56.6116 12.3931 56.7239 12.468 56.7614 12.6552C56.7614 12.8424 56.649 12.9548 56.4993 12.9548L55.8628 13.0296L56.0874 15.351C56.1248 15.5757 56.0125 15.688 55.7879 15.7254C55.5632 15.688 55.4135 15.5757 55.4135 15.3884Z" fill="#AD8745"/>
<path d="M58.4088 15.1264V12.5803C58.4088 12.3557 58.5211 12.2434 58.7457 12.2434C58.9704 12.2434 59.0827 12.3557 59.0827 12.5803V13.5538H60.5055V12.5803C60.5055 12.3557 60.6178 12.2434 60.8425 12.2434C61.0671 12.2434 61.1794 12.3557 61.1794 12.5803V15.1264C61.1794 15.351 61.0671 15.4633 60.8425 15.4633C60.6178 15.4633 60.5055 15.351 60.5055 15.1264V14.078H59.0827V15.1264C59.0827 15.351 58.9704 15.4633 58.7457 15.4633C58.5211 15.5008 58.4088 15.351 58.4088 15.1264Z" fill="#AD8745"/>
<path d="M62.6396 15.1638L62.8268 12.6927C62.8268 12.468 62.9766 12.3557 63.2013 12.3931L64.6989 12.5055C64.8861 12.5055 64.9985 12.6178 64.961 12.805C64.961 12.9922 64.8112 13.0671 64.624 13.0671L63.4634 12.9547L63.3885 13.7036L64.5117 13.7785C64.6615 13.7785 64.7738 13.8908 64.7738 14.0406C64.7738 14.1903 64.6615 14.3026 64.4743 14.2652L63.351 14.1903L63.2761 14.9766L64.4368 15.0889C64.624 15.0889 64.7364 15.2012 64.6989 15.3884C64.6989 15.5757 64.5492 15.6505 64.3619 15.6505L62.8643 15.5382C62.7145 15.5008 62.6022 15.3884 62.6396 15.1638Z" fill="#AD8745"/>
<path d="M67.7317 15.7254L68.2184 13.2917C68.2558 13.0671 68.4056 12.9922 68.6303 13.0296L69.4914 13.2168C70.4274 13.4041 70.8393 14.078 70.6521 15.0515C70.4649 16.025 69.7909 16.5117 68.8549 16.3245L67.9938 16.1373C67.8065 16.0998 67.6942 15.9501 67.7317 15.7254ZM68.8923 15.7629C69.4914 15.8752 69.8658 15.5757 70.0156 14.9392C70.1654 14.3027 69.9033 13.8534 69.3416 13.741L68.8923 13.6287L68.4805 15.6505L68.8923 15.7629Z" fill="#AD8745"/>
<path d="M71.7754 16.6615L72.4868 14.3026C72.5617 14.078 72.7115 14.0031 72.8987 14.078L74.3589 14.4898C74.5461 14.5273 74.621 14.677 74.5835 14.8268C74.5461 14.9766 74.3963 15.0515 74.2091 15.014L73.0859 14.6771L72.8612 15.3884L73.947 15.688C74.0968 15.7254 74.1717 15.8752 74.1342 16.0249C74.0968 16.1747 73.947 16.2496 73.7973 16.1747L72.7115 15.8752L72.4868 16.624L73.6101 16.961C73.7973 16.9984 73.8721 17.1482 73.8347 17.298C73.7973 17.4477 73.6475 17.5226 73.4603 17.4852L72.0001 17.0733C71.8129 16.9984 71.738 16.8487 71.7754 16.6615Z" fill="#AD8745"/>
<path d="M75.0703 17.7473C75.1077 17.7098 75.1451 17.6349 75.1826 17.56L76.8675 15.688C77.0547 15.5008 77.2419 15.4259 77.4665 15.5382C77.6912 15.6505 77.8035 15.8003 77.8035 16.0624L77.7661 18.571C77.7661 18.6458 77.7661 18.7207 77.7286 18.7956C77.6537 18.9828 77.504 19.0203 77.3168 18.9828C77.1295 18.9079 77.0921 18.7956 77.0921 18.571L77.1295 18.0468L76.0063 17.5975L75.6693 18.0093C75.5196 18.1965 75.4072 18.234 75.2575 18.1591C75.0703 18.0842 74.9954 17.9345 75.0703 17.7473ZM77.1295 17.4852L77.2044 16.1373L76.3433 17.1856L77.1295 17.4852Z" fill="#AD8745"/>
<path d="M79.0016 19.2824L80.1248 17.0359C80.2371 16.8487 80.3869 16.7738 80.5741 16.8861C80.7613 16.961 80.7988 17.1482 80.7239 17.3354L79.7129 19.3947L80.7239 19.8814C80.8736 19.9563 80.9485 20.1061 80.8736 20.2559C80.7988 20.4056 80.649 20.4431 80.4992 20.3682L79.1888 19.7317C78.9641 19.6568 78.8892 19.4696 79.0016 19.2824Z" fill="#AD8745"/>
<path d="M95.2512 46.6521V67.3198L94.2028 66.6459V46.6521H93.3417V66.0843L92.2933 65.4103V46.6521H91.4322V64.8487L79.0016 56.649V36.6927V35.7566V34.6334V33.6974V32.5741V32.1248H78.2528H78.1404V32.1997V33.1357V34.259V35.195V36.3183V37.2543V56.0874L77.0921 55.4134V37.9657V37.0297V35.9064V34.9704V33.8471V32.9111V32.1623H76.2309V33.4727V34.4087V35.532V36.468V37.5913V38.5273V54.8892L75.1826 54.2153V39.2387V38.3027V37.1794V36.2434V35.1201V34.1841V32.1997H74.3214V34.7457V35.6818V36.805V37.741V38.8643V39.8003V53.6537L63.8003 46.727L63.089 46.2777L62.2278 45.7161L61.5164 45.2668L60.6553 44.7052L59.9439 44.2559L59.2325 44.7052L58.3713 45.2668L57.6599 45.7161L56.7988 46.2777L56.0874 46.727L52.83 48.8986L45.5663 39.8378V39.8003V38.8643V37.741V36.805V35.6818V34.7457V32.1997H44.7052V34.1841V35.1201V36.2434V37.1794V38.3027V38.752V39.2387V40.0624L45.5663 41.1108L52.156 49.3105L52.6428 49.9095L53.3167 49.4602L56.7988 47.1763L57.5102 46.727L58.3713 46.1654L59.0827 45.7161L59.9439 45.1545L60.805 45.7161L61.5164 46.1654L62.3776 46.727L63.089 47.1763L74.3214 54.5523V55.6755L62.2278 47.7005L61.5164 47.2512L60.6553 46.6896L59.9439 46.2403L59.2325 46.6896L58.3713 47.2512L57.6599 47.7005L53.9158 50.1716L53.2418 50.6209L52.4181 51.1825L51.8191 50.4337L51.3323 49.8346L45.5663 42.6459L44.7052 41.5975L43.6568 40.2871V38.7145V38.4899V37.5538V37.4041V36.4306V35.4946V34.3713V33.4353V32.1248H42.7957V32.8736V33.8097V34.9329V35.869V36.3557V36.9922V37.6287V37.9282V39.2387V40.5117L43.6568 41.5601L44.7052 42.8705L45.5663 43.9189L50.6209 50.2465L51.1077 50.8456L51.7067 51.5944L52.1935 52.1935L52.8674 51.7442L53.6911 51.1825L54.3651 50.7332L58.3339 48.1123L59.0453 47.663L59.9064 47.1014L60.7676 47.663L61.479 48.1123L74.284 56.5367V57.6599L60.6178 48.674L59.9064 48.2247L59.195 48.674L54.9642 51.4821L54.2902 51.9314L53.4665 52.493L52.7925 52.9423L51.9688 53.5039L51.3698 52.7551L50.883 52.156L50.284 51.4072L49.7972 50.8081L45.5663 45.5289L44.7052 44.4805L43.6568 43.1701L42.7957 42.1217L41.7473 40.8112V39.2387V37.9657V37.2917V36.3931V36.3183V35.195V35.0827V34.2964V33.1732V32.1997V32.1248H41.635H40.8861V32.5741V33.6974V33.9969V34.6334V35.3073V35.7941V36.6927V36.8799V38.1529V39.7254V40.9985V56.6116V57.5476L41.7473 56.986V56.0499V42.0468L42.7957 43.3573V55.376V56.312V57.4353L41.7473 58.1092L40.8861 58.6708L28.4181 66.8705L27.557 67.4322L26.5086 68.1061L25.6475 68.6677V69.6038V70.727V71.663V75.7067H26.5086V71.1389V70.2028V69.0796L27.557 68.4056L28.4181 67.844L40.8861 59.6443L41.7473 59.0827L42.7957 58.4087V59.532V60.468V90.3089H43.6568V59.9064V58.9704V57.8471V56.9111V55.7878V54.8518V44.4431L44.7052 45.7535V54.1779V55.1139V56.2371V57.1732L45.5663 56.6116L50.6958 53.2418L51.2949 53.9907L45.5663 57.7722L44.7052 58.3339V59.2699V90.3463H45.5663V58.7083L51.7816 54.6272L74.284 82.7083V90.3463H75.1451V83.7566V82.4836L74.284 81.4353L52.4556 54.1779L53.2793 53.6162L74.284 79.8253L75.1451 80.8736L76.1935 82.1841V83.7566V85.0297V90.3089H77.0546V86.078V84.805V83.2325V81.9594L76.1935 80.9111L75.1451 79.6006L74.284 78.5523L53.9532 53.2044L54.7769 52.6428L74.284 76.9797L75.1451 78.0281L76.1935 79.3385L77.0546 80.3869L78.103 81.6974V83.2699V84.5429V86.1155V87.3885V90.3089H78.9642V88.4368V87.1638V85.5913V84.2434V82.6708V81.3978V61.7036L91.4322 69.9033V75.7442H92.2933V70.4649V69.5289L91.4322 68.9672L79.0016 60.7676L78.1404 60.2059V61.142V80.312L77.0921 79.0016V60.4306V59.532V58.4087L78.1404 59.0827L79.0016 59.6443L91.4696 67.844L92.3308 68.4056L93.3791 69.0796V70.2028V71.1389V75.7442H94.2403V71.7005V70.7644V69.6412V68.7052L93.3791 68.1435L92.3308 67.4696L91.4696 66.908L79.0016 58.7083L78.1404 58.1467L77.0921 57.4727L76.2309 56.9111V57.8471V58.9704V59.9064V77.9907L75.1826 76.6802V59.2325V58.2964V57.1732V56.2371V55.1139L76.2309 55.7878L77.0921 56.3495L78.1404 57.0234L79.0016 57.585L91.4696 65.7847L92.3308 66.3463L93.3791 67.0203L94.2403 67.5819L95.2887 68.2559V69.3791V70.3151V71.4384V72.3744V75.7442H96.1498V72.9361V72V70.8768V69.9407V68.8175V67.8814V46.6521H95.2512ZM45.6412 46.8019L49.1982 51.2574L45.6412 53.6162V46.8019ZM45.6412 55.6381V54.5148L49.6849 51.8565L50.284 52.6053L45.6412 55.6381ZM74.3589 75.5944L55.5258 52.1186L59.9813 49.1981L74.3589 58.6708V75.5944Z" fill="#AD8745"/>
<path d="M28.5304 68.9672L27.7067 69.5289V70.4649V75.7442H28.5304V69.9033L41.0359 61.7036V90.2715H41.8596V61.142V60.2059L41.0359 60.7676L28.5304 68.9672Z" fill="#AD8745"/>
<path d="M26.6583 67.0203L27.7067 66.3464L28.5304 65.7847L41.0359 57.5476V56.649L28.5304 64.8487V46.6521H27.7067V65.4103L26.6583 66.0843V46.6521H25.7972V66.6459L24.7863 67.3198V46.6521H23.9251V67.8815V68.8175V69.9407V70.8768V72.0375V72.9361V75.7442H24.7863V72.3744V71.4758V70.3152V69.4166V68.2559L25.7972 67.5819L26.6583 67.0203Z" fill="#AD8745"/>
<path d="M7.48829 59.2699C6.85179 59.2325 6.32761 58.7083 6.36505 58.0718C6.40249 57.4353 6.92667 56.9111 7.56318 56.9485C8.19968 56.986 8.72386 57.5101 8.68642 58.1466C8.64898 58.7832 8.1248 59.2699 7.48829 59.2699Z" fill="#AD8745"/>
<path d="M9.43527 52.4555L5.72856 52.7551C5.61624 52.7551 5.46647 52.7551 5.39159 52.7551C5.1295 52.7176 4.97973 52.493 5.05462 52.1935C5.09206 51.9314 5.27926 51.819 5.5788 51.819L8.72388 51.7067V51.6693L5.87833 50.3214C5.5788 50.1716 5.50391 50.0219 5.54136 49.7223C5.5788 49.4602 5.766 49.3105 6.06554 49.3105L9.21062 49.0858V49.0484L6.32763 47.7754C6.06554 47.663 5.95321 47.4758 5.99065 47.2137C6.06554 46.9142 6.25274 46.7644 6.51483 46.8019C6.58972 46.8019 6.70204 46.8768 6.81437 46.9142L10.1841 48.5616C10.5211 48.7114 10.6334 48.936 10.5585 49.2356C10.4836 49.5351 10.3339 49.6849 9.95945 49.7223L7.07646 49.9844V50.0219L9.69736 51.3323C10.0343 51.4821 10.1467 51.7067 10.0718 52.0062C9.95945 52.2683 9.77225 52.4181 9.43527 52.4555Z" fill="#AD8745"/>
<path d="M10.8581 45.8658L7.18879 44.78C6.88925 44.6677 6.73949 44.4431 6.81437 44.1435C6.88925 43.844 7.15134 43.7317 7.45088 43.8066L11.1201 44.8924C11.4197 44.9672 11.5694 45.2293 11.4571 45.5289C11.4197 45.8658 11.195 45.9782 10.8581 45.8658Z" fill="#AD8745"/>
<path d="M11.6443 43.3198L8.01248 41.897C7.71295 41.7847 7.60063 41.5601 7.71295 41.2605C7.78784 41.0733 7.90016 40.961 8.16225 40.9236L11.6069 40.0624V40.025L9.13573 39.0515C8.8362 38.9392 8.72387 38.7145 8.8362 38.415C8.94852 38.1529 9.17317 38.0406 9.4727 38.1529L13.1045 39.5757C13.4041 39.688 13.4789 39.9126 13.3666 40.2122C13.2917 40.3994 13.1794 40.5117 12.9173 40.5866L9.4727 41.4477V41.4852L11.9813 42.4587C12.2808 42.571 12.3931 42.7956 12.2808 43.0952C12.1685 43.3572 11.9438 43.4321 11.6443 43.3198Z" fill="#AD8745"/>
<path d="M13.8908 37.6662L10.6334 35.9438C10.3339 35.7941 10.259 35.532 10.4087 35.2699L11.0453 34.1092C11.7192 32.8362 12.8424 32.4992 14.1903 33.2106C15.5382 33.922 15.9126 35.0827 15.2387 36.3183L14.6022 37.4789C14.4524 37.7785 14.1903 37.8534 13.8908 37.6662ZM14.415 36.0562C14.8268 35.2699 14.5648 34.5959 13.6662 34.1092C12.805 33.6599 12.0936 33.8097 11.6818 34.5959L11.3448 35.195L14.078 36.6552L14.415 36.0562Z" fill="#AD8745"/>
<path d="M17.4103 31.713L16.3245 30.9641L13.6662 30.8892C13.5164 30.8892 13.4415 30.8518 13.3292 30.7769C13.1045 30.6271 13.0671 30.3276 13.2169 30.103C13.3292 29.9158 13.479 29.8783 13.7411 29.8783L15.8378 29.9906V29.9532L14.9766 28.1186C14.8643 27.8939 14.8643 27.7442 14.9766 27.5569C15.1264 27.3323 15.4259 27.2574 15.6506 27.4072C15.7629 27.4821 15.8003 27.5569 15.8752 27.6693L16.9236 30.1404L18.0094 30.8892C18.2715 31.0764 18.3464 31.3385 18.1592 31.6006C17.9345 31.8627 17.6724 31.9002 17.4103 31.713Z" fill="#AD8745"/>
<path d="M21.117 26.8081L18.3838 24.2247C18.0843 23.9626 18.0843 23.6256 18.3464 23.3261C18.571 23.064 18.8331 23.0265 19.1701 23.1763L22.0905 24.337V24.2995L20.7801 21.454C20.6303 21.117 20.6303 20.8549 20.8924 20.5928C21.1545 20.2933 21.4914 20.2933 21.791 20.5554L24.5242 23.1389C24.7489 23.3261 24.7489 23.5881 24.5616 23.7754C24.3744 23.9626 24.1498 23.9626 23.9251 23.7754L21.8659 21.8658V21.9033L23.1389 24.7114C23.2512 24.936 23.2138 25.0858 23.064 25.2356C22.9142 25.3853 22.7645 25.4228 22.5398 25.3479L19.6568 24.2247V24.2621L21.7161 26.1716C21.9407 26.3588 21.9407 26.6209 21.7535 26.8081C21.5663 26.9953 21.3417 27.0328 21.117 26.8081Z" fill="#AD8745"/>
<path d="M25.8721 21.9407L23.3261 19.0577C23.1015 18.7956 23.1389 18.5335 23.3635 18.3463C23.5882 18.1591 23.8503 18.1591 24.0749 18.4212L26.621 21.3042C26.8456 21.5663 26.8082 21.8284 26.5835 22.0156C26.3589 22.2028 26.0968 22.2028 25.8721 21.9407Z" fill="#AD8745"/>
<path d="M27.7816 20.2933L25.4977 17.298C25.3105 17.0359 25.3479 16.7738 25.5726 16.5866L27.3323 15.2387C27.557 15.0889 27.7816 15.0889 27.9314 15.2761C28.0811 15.4633 28.0437 15.7254 27.819 15.8752L26.4337 16.9235L27.22 17.9345L28.4556 16.9984C28.6428 16.8487 28.8674 16.8487 29.0172 17.0359C29.1669 17.2231 29.1295 17.4477 28.9048 17.5975L27.7067 18.571L28.5679 19.6942C28.7551 19.9563 28.7176 20.2184 28.493 20.4056C28.2683 20.5928 27.9688 20.5554 27.7816 20.2933Z" fill="#AD8745"/>
<path d="M32.5367 16.8861L30.7021 13.9657L29.8783 14.4899C29.6537 14.6396 29.429 14.6022 29.2793 14.3775C29.1295 14.1529 29.2044 13.9283 29.429 13.7785L31.9376 12.2059C32.1623 12.0562 32.3869 12.0936 32.5367 12.3183C32.6865 12.5429 32.6116 12.7676 32.3869 12.9173L31.5632 13.4415L33.3978 16.3994C33.585 16.6615 33.5102 16.9236 33.2481 17.1108C32.9485 17.2231 32.6865 17.1857 32.5367 16.8861Z" fill="#AD8745"/>
<path d="M35.1576 15.3136C35.1201 15.2387 35.0827 15.1264 35.0827 15.014L34.6334 11.2699C34.596 10.858 34.7083 10.5959 35.0453 10.4462C35.3822 10.259 35.6818 10.3339 35.9813 10.5959L38.752 13.1794C38.8643 13.2917 38.9017 13.3292 38.9392 13.4415C39.0515 13.7036 38.9766 13.9657 38.7145 14.078C38.4524 14.1903 38.2652 14.1529 38.0406 13.9282L37.479 13.3666L35.9439 14.1529L36.0562 14.9392C36.1311 15.2761 36.0562 15.4633 35.7941 15.5757C35.5694 15.6505 35.3074 15.5757 35.1576 15.3136ZM36.9548 12.7676L35.532 11.3073H35.4946L35.8315 13.3292L36.9548 12.7676Z" fill="#AD8745"/>
<path d="M40.6615 12.6552L39.351 9.06085C39.2387 8.76132 39.351 8.49923 39.6505 8.3869C39.9501 8.27458 40.1747 8.3869 40.2871 8.72387L40.7738 10.1092L42.7956 9.39782L42.3089 8.01249C42.1966 7.71295 42.3089 7.45086 42.6084 7.33854C42.908 7.22621 43.1326 7.33854 43.2449 7.67551L44.5554 11.2699C44.6677 11.5694 44.5554 11.8315 44.2559 11.9438C43.9563 12.0562 43.7317 11.9438 43.6193 11.6443L43.0577 10.1092L41.0359 10.8206L41.5601 12.2808C41.6724 12.5803 41.5601 12.8424 41.2605 12.9548C40.9984 13.0671 40.7738 12.9548 40.6615 12.6552Z" fill="#AD8745"/>
<path d="M51.3698 9.95943L51.0328 9.73478C50.7333 10.1092 50.2465 10.3713 49.6849 10.4836C48.7114 10.6708 47.9626 10.2964 47.8128 9.51013C47.7005 8.98595 47.8877 8.53666 48.4119 8.08736C48.4494 8.04992 48.5991 7.93759 48.5991 7.93759C48.1124 7.60062 47.8877 7.33853 47.8128 7.00155C47.7005 6.36505 48.1498 5.80343 48.9361 5.65366C49.6849 5.50389 50.3214 5.84087 50.4337 6.47737C50.5461 6.96411 50.3214 7.37597 49.7224 7.86271L50.8082 8.64898C50.883 8.46177 50.8831 8.19968 50.8456 7.82527C50.8082 7.56318 50.8831 7.37597 51.1451 7.33853C51.4072 7.30109 51.557 7.45085 51.6319 7.6755C51.7442 8.19968 51.7068 8.72386 51.5196 9.13572L51.894 9.39781C52.0437 9.51014 52.0812 9.58502 52.1186 9.6599C52.1561 9.84711 52.0437 10.0343 51.8191 10.0718C51.6319 10.0718 51.5196 10.0718 51.3698 9.95943ZM49.6849 6.66458C49.61 6.36505 49.3854 6.21528 49.0859 6.25272C48.7863 6.32761 48.5991 6.55226 48.674 6.85179C48.7114 7.07644 48.8612 7.2262 49.2356 7.48829C49.61 7.18876 49.7598 6.96411 49.6849 6.66458ZM50.4712 9.28549L49.1607 8.34945C49.1233 8.38689 49.0859 8.42433 49.0484 8.42433C48.7489 8.72386 48.6366 8.94851 48.7114 9.24804C48.7863 9.6599 49.1982 9.88455 49.6849 9.77223C50.0219 9.69734 50.3214 9.51013 50.4712 9.28549Z" fill="#AD8745"/>
<path d="M55.713 9.06084L55.5258 5.16693C55.5258 4.8674 55.6755 4.68019 56.0125 4.64275C56.1997 4.64275 56.3495 4.71763 56.5367 4.90484L58.7083 7.67551H58.7457L58.6334 5.01716C58.6334 4.68019 58.7832 4.49298 59.0827 4.49298C59.3822 4.49298 59.5694 4.64275 59.5694 4.97972L59.7566 8.87364C59.7566 9.17317 59.6069 9.36037 59.3073 9.36037C59.0827 9.36037 58.9704 9.28549 58.7832 9.09828L56.6116 6.29017H56.5741L56.6864 8.94852C56.6864 9.24805 56.5367 9.43526 56.2371 9.4727C55.9002 9.54758 55.7504 9.36038 55.713 9.06084Z" fill="#AD8745"/>
<path d="M61.816 6.96412C61.9283 5.46646 62.8643 4.56787 64.2871 4.68019C65.6724 4.79252 66.4961 5.80344 66.3838 7.3011C66.2715 8.79876 65.298 9.65991 63.9127 9.58503C62.4899 9.4727 61.7036 8.46178 61.816 6.96412ZM65.3729 7.22621C65.4478 6.21529 64.9985 5.57879 64.2122 5.50391C63.4259 5.42902 62.9018 6.02809 62.8269 7.03901C62.752 8.01249 63.2013 8.68643 63.9876 8.76132C64.7364 8.79876 65.298 8.19969 65.3729 7.22621Z" fill="#AD8745"/>
<path d="M69.0421 9.62246L68.4056 5.87831C68.4056 5.76599 68.4056 5.6911 68.4056 5.57878C68.4431 5.31669 68.7052 5.16692 69.0047 5.20436C69.2668 5.2418 69.4166 5.39157 69.4166 5.6911L69.8659 9.24805H69.9033L71.6256 6.10296C71.7754 5.84087 71.9251 5.76599 72.1872 5.80343C72.4868 5.87831 72.6365 6.10296 72.5991 6.36505C72.5991 6.43993 72.5616 6.55226 72.4868 6.62714L70.5024 9.88455C70.2777 10.259 70.0156 10.3713 69.6412 10.2964C69.3042 10.259 69.0796 10.0343 69.0421 9.62246Z" fill="#AD8745"/>
<path d="M73.5351 10.6708L74.6583 7.03901C74.7707 6.73948 74.9953 6.58971 75.2949 6.70204L76.6802 7.15133C77.7286 7.48831 78.1404 8.1997 77.8783 9.09829C77.6911 9.65991 77.2793 10.0718 76.7176 10.1092L77.0172 11.4571C77.0546 11.6069 77.0546 11.7192 77.0172 11.8315C76.9423 12.0936 76.6802 12.2059 76.4181 12.1311C76.1935 12.0562 76.1186 11.9438 76.0437 11.6069L75.7067 9.99689L74.883 9.7348L74.5086 10.9704C74.3963 11.2699 74.1716 11.4197 73.8721 11.3073C73.5725 11.2325 73.4228 10.9704 73.5351 10.6708ZM75.8939 9.32294C76.3807 9.47271 76.7176 9.2855 76.8674 8.8362C77.0172 8.3869 76.7925 8.01249 76.3432 7.86272L75.5195 7.60063L75.0702 9.06085L75.8939 9.32294Z" fill="#AD8745"/>
<path d="M78.4025 12.2808L79.8253 8.72386C79.9376 8.42433 80.1997 8.31201 80.4618 8.42433C80.7613 8.53666 80.8362 8.79875 80.7239 9.09828L79.3011 12.6552C79.1888 12.9548 78.9267 13.0671 78.6646 12.9548C78.365 12.8424 78.2902 12.6178 78.4025 12.2808Z" fill="#AD8745"/>
<path d="M81.8097 13.741L83.3073 10.6334L82.4087 10.2215C82.1841 10.1092 82.0718 9.88456 82.1841 9.65991C82.2964 9.43526 82.5211 9.36038 82.7831 9.4727L85.4415 10.7457C85.6661 10.858 85.7785 11.0827 85.6661 11.3073C85.5538 11.532 85.3292 11.6069 85.0671 11.4945L84.1685 11.0827L82.6708 14.1903C82.5211 14.4899 82.2964 14.5647 81.9969 14.4524C81.7348 14.3027 81.6599 14.0406 81.8097 13.741Z" fill="#AD8745"/>
<path d="M84.5429 15.1638C84.5804 15.0889 84.6553 15.014 84.7676 14.9392L87.688 12.5803C87.9876 12.3183 88.2871 12.2808 88.6241 12.468C88.961 12.6552 89.0734 12.9173 88.9985 13.3292L88.2871 17.0359C88.2497 17.1857 88.2122 17.2605 88.1748 17.3354C88.025 17.5601 87.7629 17.635 87.5008 17.4852C87.2762 17.3354 87.2013 17.1482 87.2762 16.8487L87.4634 16.0624L86.0032 15.1638L85.4041 15.6506C85.1795 15.8752 84.9548 15.9126 84.7302 15.7629C84.4681 15.6506 84.3932 15.3885 84.5429 15.1638ZM87.6506 15.2761L88.0999 13.2917H88.0624L86.5273 14.6396L87.6506 15.2761Z" fill="#AD8745"/>
<path d="M90.8331 19.2449C90.8705 19.17 90.9828 19.0952 91.0952 19.0577L94.3526 17.1482C94.6896 16.9236 94.9891 16.961 95.2886 17.1856C95.5882 17.4477 95.663 17.7098 95.5133 18.0842L94.2777 21.6412C94.2403 21.7535 94.2028 21.8658 94.1279 21.9407C93.9407 22.1654 93.6786 22.1654 93.454 21.9782C93.2293 21.791 93.1919 21.6037 93.3417 21.3042L93.6412 20.5554L92.3307 19.4696L91.6568 19.8814C91.3947 20.0686 91.1701 20.0686 90.9828 19.9189C90.7208 19.7317 90.6833 19.4696 90.8331 19.2449ZM93.9033 19.844L94.6521 17.9345L92.9298 19.0577L93.9033 19.844Z" fill="#AD8745"/>
<path d="M95.4758 23.1763L98.2839 20.4805C98.5086 20.2558 98.7707 20.2558 98.9953 20.4805C99.1451 20.6303 99.1825 20.78 99.1451 21.0421L98.5086 24.5242V24.5616L100.418 22.727C100.643 22.5023 100.905 22.5023 101.092 22.727C101.279 22.9516 101.279 23.1763 101.055 23.4009L98.2465 26.0967C98.0218 26.3214 97.7598 26.3214 97.5726 26.0967C97.4228 25.9469 97.3853 25.7972 97.4228 25.5351L98.0593 22.053L98.0218 22.0156L96.0749 23.8877C95.8502 24.1123 95.5882 24.1123 95.4009 23.8877C95.2512 23.663 95.2512 23.4009 95.4758 23.1763Z" fill="#AD8745"/>
<path d="M99.6693 27.5944L102.627 25.3479C102.889 25.1607 103.151 25.1981 103.339 25.4228L104.125 26.4711C104.986 27.5944 104.799 28.7925 103.601 29.6911C102.403 30.5897 101.204 30.4774 100.343 29.3167L99.557 28.2683C99.3323 28.0437 99.4072 27.7816 99.6693 27.5944ZM100.905 28.7551C101.429 29.4665 102.178 29.5039 102.964 28.9048C103.75 28.3058 103.9 27.5944 103.376 26.883L102.964 26.3214L100.493 28.1935L100.905 28.7551Z" fill="#AD8745"/>
<path d="M103.076 32.3869L106.334 30.4399C106.596 30.2902 106.858 30.3276 107.045 30.5897L107.794 31.8253C108.356 32.7613 108.169 33.585 107.382 34.0718C106.858 34.3713 106.296 34.3713 105.847 34.0343L105.173 35.2324C105.098 35.3822 105.023 35.4571 104.949 35.4945C104.724 35.6443 104.462 35.532 104.312 35.3073C104.2 35.1201 104.2 34.9704 104.387 34.6708L105.211 33.248L104.761 32.5367L103.638 33.2106C103.376 33.3604 103.114 33.3229 102.927 33.0608C102.702 32.8362 102.777 32.5741 103.076 32.3869ZM105.735 32.9485C105.997 33.3604 106.371 33.4727 106.783 33.248C107.195 33.0234 107.27 32.6115 107.008 32.1622L106.559 31.4509L105.248 32.2371L105.735 32.9485Z" fill="#AD8745"/>
<path d="M105.585 36.8424L109.03 35.1201C109.329 34.9704 109.591 35.0453 109.704 35.3448C109.853 35.6069 109.741 35.869 109.442 36.0187L105.997 37.741C105.697 37.8908 105.435 37.8159 105.323 37.5164C105.211 37.2543 105.286 36.9922 105.585 36.8424Z" fill="#AD8745"/>
<path d="M106.633 39.0515C106.708 39.0141 106.821 39.0141 106.933 38.9766L110.677 38.8643C111.089 38.8643 111.351 39.0141 111.463 39.351C111.613 39.7254 111.538 39.9875 111.239 40.2496L108.431 42.7582C108.318 42.8331 108.243 42.908 108.168 42.9454C107.906 43.0577 107.644 42.9454 107.532 42.6459C107.42 42.3838 107.495 42.1966 107.757 42.0094L108.356 41.4852L107.719 39.8752L106.933 39.9126C106.596 39.9501 106.446 39.8378 106.334 39.6131C106.296 39.4259 106.371 39.1638 106.633 39.0515ZM109.067 41.0733L110.64 39.7629V39.7254L108.618 39.8752L109.067 41.0733Z" fill="#AD8745"/>
<path d="M108.842 44.7426L112.587 43.7317C112.886 43.6568 113.111 43.7691 113.186 44.0687C113.223 44.2559 113.186 44.4056 113.036 44.6303L110.789 47.3635V47.4009L113.373 46.727C113.672 46.6521 113.897 46.7644 113.972 47.064C114.047 47.3635 113.935 47.5507 113.598 47.663L109.853 48.674C109.554 48.7488 109.329 48.6365 109.254 48.337C109.217 48.1123 109.254 48 109.404 47.7754L111.651 45.0421V45.0047L109.067 45.7161C108.768 45.791 108.543 45.6786 108.468 45.3791C108.393 45.0421 108.505 44.8175 108.842 44.7426Z" fill="#AD8745"/>
<path d="M110.228 50.4711C110.303 50.4711 110.415 50.4711 110.565 50.5086L114.234 51.2949C114.646 51.3697 114.833 51.5944 114.908 51.9688C114.983 52.3432 114.833 52.6053 114.459 52.7925L111.164 54.5897C111.052 54.6646 110.977 54.6646 110.864 54.702C110.602 54.7395 110.378 54.5523 110.34 54.2902C110.303 54.0281 110.415 53.8409 110.715 53.7286L111.426 53.3541L111.164 51.6693L110.378 51.5195C110.041 51.4821 109.891 51.3323 109.853 51.0702C109.778 50.6958 109.928 50.5086 110.228 50.4711ZM112.1 52.9423L113.935 52.0437V52.0062L111.913 51.6693L112.1 52.9423Z" fill="#AD8745"/>
<path d="M112.512 58.0343C113.148 58.0343 113.71 58.5585 113.71 59.195C113.71 59.8315 113.186 60.3931 112.549 60.3931C111.913 60.3931 111.351 59.8689 111.351 59.2324C111.351 58.5585 111.875 58.0343 112.512 58.0343Z" fill="#AD8745"/>
<path d="M5.39157 63.5382C5.42901 63.5382 5.5039 63.5382 5.57878 63.5757L8.72387 64.3994C8.94852 64.4368 9.0234 64.5866 9.06084 64.7738C9.06084 64.961 8.98596 65.1108 8.79875 65.1857L5.87831 66.6084C5.80343 66.6459 5.76599 66.6459 5.72855 66.6459C5.57878 66.6459 5.46646 66.5335 5.42902 66.3838C5.42902 66.234 5.46646 66.1217 5.65366 66.0842L6.40249 65.7473L6.25273 64.3245L5.42902 64.1373C5.24181 64.0998 5.16692 64.025 5.16692 63.8752C5.12948 63.688 5.24181 63.5757 5.39157 63.5382ZM6.81435 65.5226L8.38689 64.8112L6.73947 64.3994L6.81435 65.5226Z" fill="#AD8745"/>
<path d="M5.9906 68.2558L9.09824 67.7317C9.28545 67.6942 9.39777 67.7691 9.43522 67.9563C9.47266 68.1435 9.36033 68.2558 9.17312 68.2933L6.29013 68.78L6.55222 70.2403C6.58966 70.39 6.51478 70.5023 6.36501 70.5398C6.21525 70.5772 6.10292 70.4649 6.06548 70.3151L5.76595 68.5554C5.69107 68.4056 5.80339 68.2933 5.9906 68.2558Z" fill="#AD8745"/>
<path d="M6.70203 72.0374L9.73479 71.2886C9.922 71.2512 10.0343 71.3261 10.1092 71.5133C10.1466 71.7005 10.0718 71.8128 9.88455 71.8502L7.039 72.5616L7.37597 74.0218C7.41342 74.1716 7.33853 74.3214 7.18877 74.3214C7.039 74.3214 6.92668 74.2839 6.88923 74.1342L6.47738 72.4119C6.43994 72.1872 6.51482 72.0749 6.70203 72.0374Z" fill="#AD8745"/>
<path d="M8.12484 77.2044L11.0453 76.156C11.2325 76.0811 11.3448 76.156 11.4197 76.3432L11.8315 77.4665C12.0562 78.0655 11.869 78.6272 11.3448 78.8144C10.9704 78.9641 10.5585 78.7769 10.3713 78.4774H10.3339C10.4462 78.9641 10.2216 79.4134 9.77226 79.5632C9.1732 79.7878 8.61158 79.4509 8.34949 78.7395L7.93763 77.6162C7.86275 77.3916 7.93763 77.2418 8.12484 77.2044ZM8.7239 78.4025C8.91111 78.8892 9.1732 79.0765 9.54762 78.9267C9.92203 78.7769 10.0344 78.4399 9.84715 77.9532L9.58506 77.2418L8.42437 77.6537L8.7239 78.4025ZM10.2216 77.7286C10.3713 78.1779 10.6709 78.4025 11.0078 78.2527C11.3448 78.1404 11.4197 77.8409 11.3074 77.4665L11.0453 76.7551L9.99691 77.1295L10.2216 77.7286Z" fill="#AD8745"/>
<path d="M9.65988 81.2855L12.468 80.0125C12.6178 79.9376 12.7675 79.975 12.8424 80.1622L13.5912 81.8471C13.6661 81.9969 13.6287 82.1466 13.4789 82.1841C13.3291 82.259 13.2168 82.1841 13.1419 82.0343L12.5054 80.6115L11.532 81.0608L12.131 82.4087C12.2059 82.5585 12.1685 82.6708 12.0187 82.7457C11.9064 82.8206 11.7566 82.7457 11.6817 82.5959L11.0827 81.248L10.0343 81.7348L10.6708 83.1576C10.7457 83.3073 10.7082 83.4571 10.5585 83.4945C10.4087 83.5694 10.2964 83.4945 10.2215 83.3448L9.47268 81.6599C9.43523 81.5101 9.51012 81.3604 9.65988 81.2855Z" fill="#AD8745"/>
<path d="M12.7301 84.2059C13.741 83.6443 14.7145 83.869 15.2013 84.7675C15.5382 85.3666 15.5008 86.0031 15.1264 86.4524C15.0889 86.5273 15.014 86.5647 14.9766 86.6022C14.8268 86.6771 14.7145 86.6396 14.6396 86.4899C14.5647 86.3775 14.6022 86.2652 14.6771 86.1154C14.9392 85.7785 14.9766 85.3292 14.752 84.9548C14.415 84.3557 13.741 84.2434 12.9922 84.6552C12.2434 85.0671 11.9813 85.7036 12.2808 86.3026C12.5055 86.7145 12.8424 86.9017 13.2543 86.8643C13.4041 86.8643 13.4789 86.9017 13.5538 87.014C13.6287 87.1638 13.5913 87.3136 13.4415 87.3884C13.3666 87.4259 13.2917 87.4633 13.2169 87.4633C12.6552 87.5008 12.1685 87.2012 11.8315 86.6022C11.3822 85.7036 11.6818 84.7675 12.7301 84.2059Z" fill="#AD8745"/>
<path d="M15.1263 88.4743C16.0998 87.8003 17.0733 87.9501 17.6724 88.8112C18.2714 89.6724 18.0468 90.6459 17.0733 91.3198C16.0998 91.9938 15.1263 91.844 14.5273 90.9454C13.9282 90.0842 14.1903 89.1108 15.1263 88.4743ZM16.7738 90.8331C17.4852 90.3463 17.6724 89.6724 17.2979 89.1108C16.8861 88.5491 16.2121 88.4743 15.5008 88.961C14.7894 89.4477 14.6022 90.1217 14.9766 90.6833C15.351 91.2449 16.0624 91.3198 16.7738 90.8331Z" fill="#AD8745"/>
<path d="M17.0359 93.9033L19.4322 91.8814C19.6194 91.7317 19.8066 91.7691 19.9563 91.9189C20.0687 92.0687 20.1061 92.2184 19.9938 92.4056L18.6833 94.9516L21.4166 94.0905C21.6412 94.0156 21.791 94.0531 21.9033 94.2028C22.0531 94.39 22.0156 94.5772 21.8659 94.727L19.4696 96.7488C19.3198 96.8612 19.2075 96.8612 19.0952 96.7114C18.9829 96.5991 19.0203 96.4493 19.1326 96.337L21.0421 94.727L18.4961 95.5507C18.3464 95.5881 18.234 95.5881 18.1217 95.4758C18.0468 95.3635 18.0094 95.2512 18.0843 95.1014L19.3198 92.7052L17.4103 94.3151C17.298 94.4275 17.1482 94.4275 17.0359 94.2777C16.8861 94.1279 16.8861 94.0156 17.0359 93.9033Z" fill="#AD8745"/>
<path d="M20.8923 98.1716L23.064 95.9626C23.1763 95.8128 23.3635 95.8128 23.4758 95.9626L24.7863 97.2356C24.8986 97.3479 24.8986 97.4977 24.7863 97.61C24.6739 97.7223 24.5242 97.7223 24.4118 97.61L23.326 96.5242L22.5772 97.273L23.6256 98.2839C23.7379 98.3963 23.7379 98.546 23.6256 98.6209C23.5133 98.7332 23.4009 98.7332 23.2886 98.6209L22.2402 97.61L21.454 98.4337L22.5398 99.5195C22.6521 99.6318 22.6521 99.7816 22.5398 99.8939C22.4274 100.006 22.2777 100.006 22.1654 99.8939L20.8549 98.6209C20.7426 98.4711 20.7426 98.2839 20.8923 98.1716Z" fill="#AD8745"/>
<path d="M25.8721 100.68C26.5835 99.7442 27.5944 99.5944 28.4181 100.231C29.2418 100.905 29.3167 101.878 28.6053 102.814C27.8939 103.75 26.883 103.9 26.0593 103.264C25.1982 102.627 25.1607 101.616 25.8721 100.68ZM28.1186 102.477C28.6428 101.803 28.6428 101.092 28.0812 100.68C27.5195 100.231 26.8456 100.418 26.3214 101.092C25.7972 101.766 25.7972 102.477 26.3588 102.889C26.9205 103.301 27.5944 103.151 28.1186 102.477Z" fill="#AD8745"/>
<path d="M29.2044 105.211L30.9267 102.552C31.039 102.402 31.1888 102.365 31.3385 102.44C31.4509 102.515 31.4883 102.59 31.4883 102.739L31.6006 105.885L32.9485 103.825C33.0608 103.676 33.2106 103.638 33.3229 103.713C33.4727 103.825 33.5101 103.938 33.3978 104.125L31.6755 106.783C31.5632 106.933 31.4134 106.97 31.2637 106.858C31.1513 106.783 31.1139 106.708 31.1139 106.559L30.9641 103.413H30.9267L29.5788 105.473C29.4665 105.622 29.3167 105.66 29.2044 105.585C29.1295 105.51 29.0921 105.36 29.2044 105.211Z" fill="#AD8745"/>
<path d="M33.3978 107.757L34.858 105.023C34.9329 104.874 35.0827 104.799 35.2324 104.911L36.8424 105.772C36.9922 105.847 37.0296 105.997 36.9547 106.109C36.8798 106.259 36.7301 106.296 36.6178 106.222L35.2699 105.51L34.7457 106.446L36.0187 107.12C36.1685 107.195 36.2059 107.307 36.131 107.457C36.0561 107.569 35.9438 107.607 35.794 107.532L34.521 106.858L33.9969 107.869L35.3447 108.58C35.4945 108.655 35.532 108.805 35.4571 108.917C35.3822 109.067 35.2324 109.105 35.1201 109.03L33.5101 108.168C33.3604 108.056 33.3229 107.906 33.3978 107.757Z" fill="#AD8745"/>
<path d="M38.5647 109.03C38.7519 108.618 39.2387 108.431 39.6505 108.58C40.0624 108.768 40.287 109.254 40.0998 109.666C39.9126 110.078 39.4259 110.265 39.014 110.115C38.6022 109.966 38.415 109.479 38.5647 109.03Z" fill="#AD8745"/>
<path d="M42.4587 111.838C42.4961 111.725 42.5336 111.688 42.6833 111.613L44.1436 110.864C44.7426 110.527 44.9298 110.378 45.0047 110.115C45.117 109.778 44.9298 109.442 44.5554 109.329C44.2184 109.217 43.9189 109.329 43.6943 109.629C43.6194 109.741 43.5445 109.778 43.3947 109.741C43.245 109.704 43.1701 109.554 43.2075 109.442C43.2075 109.404 43.245 109.367 43.245 109.329C43.4322 108.992 43.9938 108.693 44.6677 108.88C45.3417 109.105 45.6787 109.666 45.4915 110.228C45.3791 110.64 45.0796 110.864 44.2933 111.276L43.2075 111.838L44.6677 112.287C44.8175 112.325 44.8924 112.474 44.855 112.587C44.8175 112.736 44.7052 112.774 44.5554 112.736L42.6085 112.137C42.4587 112.1 42.3838 111.988 42.4587 111.838Z" fill="#AD8745"/>
<path d="M46.4275 113.036C46.4649 112.924 46.5024 112.886 46.6521 112.774L48.0375 111.913C48.5991 111.538 48.7863 111.388 48.8237 111.089C48.8986 110.752 48.7114 110.452 48.337 110.34C48 110.265 47.7005 110.378 47.4759 110.715C47.401 110.827 47.3261 110.864 47.1763 110.827C47.0266 110.789 46.9517 110.677 46.9891 110.527C46.9891 110.49 47.0266 110.452 47.0266 110.415C47.1763 110.041 47.7005 109.704 48.4119 109.891C49.0858 110.041 49.4977 110.602 49.3479 111.164C49.2356 111.576 49.011 111.8 48.2621 112.287L47.2138 112.961L48.7114 113.298C48.8612 113.335 48.9361 113.448 48.8986 113.597C48.8612 113.747 48.7489 113.822 48.5991 113.785L46.6147 113.335C46.4649 113.261 46.4275 113.148 46.4275 113.036Z" fill="#AD8745"/>
<path d="M50.2839 113.785C50.3214 113.598 50.4711 113.485 50.6583 113.523C50.8456 113.56 50.9579 113.71 50.9204 113.897C50.883 114.084 50.7332 114.197 50.546 114.159C50.3963 114.122 50.2839 113.972 50.2839 113.785Z" fill="#AD8745"/>
<path d="M52.83 114.234L53.2044 111.388L52.5304 111.763C52.4555 111.8 52.4181 111.8 52.3432 111.8C52.2309 111.8 52.156 111.688 52.156 111.538C52.156 111.426 52.2309 111.388 52.3432 111.314L53.1669 110.864C53.3541 110.789 53.429 110.752 53.5414 110.789C53.7286 110.827 53.8409 110.939 53.8034 111.164L53.3916 114.309C53.3541 114.496 53.2418 114.571 53.0921 114.571C52.9048 114.534 52.7925 114.421 52.83 114.234Z" fill="#AD8745"/>
<path d="M56.0499 114.571L56.2746 111.725L55.6006 112.137C55.5258 112.175 55.4883 112.175 55.4134 112.175C55.3011 112.175 55.1888 112.062 55.2262 111.95C55.2262 111.838 55.2637 111.8 55.376 111.725L56.1623 111.239C56.312 111.126 56.4244 111.126 56.5367 111.126C56.7239 111.126 56.8362 111.276 56.8362 111.463L56.6116 114.646C56.6116 114.833 56.4618 114.945 56.312 114.908C56.1623 114.87 56.0499 114.721 56.0499 114.571Z" fill="#AD8745"/>
<path d="M58.1466 114.608C58.1466 114.421 58.2964 114.271 58.4836 114.271C58.6708 114.271 58.8205 114.421 58.8205 114.608C58.8205 114.796 58.6708 114.945 58.4836 114.945C58.2964 114.945 58.1466 114.796 58.1466 114.608Z" fill="#AD8745"/>
<path d="M60.2434 114.721C60.2434 114.608 60.2808 114.534 60.3931 114.421L61.5164 113.223C62.0031 112.736 62.1155 112.512 62.078 112.25C62.078 111.913 61.7785 111.651 61.4041 111.651C61.0296 111.651 60.805 111.838 60.6552 112.212C60.6178 112.324 60.5429 112.399 60.3931 112.399C60.2434 112.399 60.131 112.287 60.131 112.175C60.131 112.137 60.131 112.1 60.131 112.062C60.2059 111.688 60.6178 111.201 61.3666 111.201C62.078 111.201 62.5647 111.613 62.6022 112.212C62.6022 112.624 62.415 112.924 61.8159 113.56L60.9548 114.459L62.4899 114.421C62.6396 114.421 62.752 114.496 62.752 114.646C62.752 114.796 62.6771 114.871 62.4899 114.908L60.468 114.945C60.3557 114.945 60.2434 114.833 60.2434 114.721Z" fill="#AD8745"/>
<path d="M64.2122 112.924C64.0999 111.763 64.5492 110.977 65.4103 110.864C66.2715 110.752 66.908 111.463 67.0203 112.624C67.1326 113.785 66.6833 114.608 65.8222 114.683C64.961 114.796 64.362 114.122 64.2122 112.924ZM66.4587 112.699C66.3838 111.838 66.0094 111.314 65.4852 111.351C64.961 111.388 64.6989 111.988 64.8113 112.849C64.8861 113.747 65.2606 114.234 65.7847 114.197C66.3089 114.159 66.5336 113.598 66.4587 112.699Z" fill="#AD8745"/>
<path d="M69.8658 112.587C69.791 112.137 70.053 111.688 70.5023 111.613C70.9516 111.538 71.4009 111.8 71.4758 112.25C71.5507 112.699 71.2886 113.148 70.8393 113.223C70.39 113.335 69.9782 113.036 69.8658 112.587Z" fill="#AD8745"/>
<path d="M74.5834 112.774C74.5834 112.736 74.546 112.661 74.5834 112.587L74.7706 109.329C74.7706 109.105 74.8829 108.992 75.0702 108.917C75.2574 108.842 75.4071 108.917 75.5569 109.067L77.5413 111.651C77.5787 111.725 77.6162 111.763 77.6162 111.8C77.6536 111.95 77.5787 112.1 77.429 112.137C77.2792 112.175 77.1669 112.137 77.092 111.988L76.6053 111.314L75.2574 111.725L75.2199 112.549C75.2199 112.736 75.145 112.811 75.0327 112.849C74.7706 112.998 74.6209 112.924 74.5834 112.774ZM76.2308 110.977L75.2199 109.591L75.1825 111.314L76.2308 110.977Z" fill="#AD8745"/>
<path d="M79.1138 111.239L77.9531 108.318C77.8783 108.131 77.9531 108.019 78.1029 107.944C78.2527 107.869 78.4024 107.944 78.4773 108.131L79.5631 110.864L80.9485 110.303C81.0982 110.228 81.248 110.303 81.2854 110.452C81.3229 110.602 81.2854 110.715 81.1357 110.789L79.4882 111.426C79.301 111.463 79.1513 111.388 79.1138 111.239Z" fill="#AD8745"/>
<path d="M82.6334 109.741L81.2855 106.895C81.2106 106.746 81.248 106.596 81.3978 106.521C81.5476 106.446 81.6973 106.484 81.7722 106.671L83.0452 109.329L84.3931 108.693C84.5429 108.618 84.6927 108.655 84.7301 108.805C84.7675 108.955 84.7301 109.067 84.5803 109.142L82.9704 109.928C82.858 109.966 82.7083 109.928 82.6334 109.741Z" fill="#AD8745"/>
<path d="M87.4259 107.307L85.8159 104.649C85.7036 104.499 85.741 104.349 85.8908 104.237L86.9017 103.601C87.4633 103.264 88.025 103.339 88.3245 103.825C88.5117 104.162 88.4743 104.612 88.1747 104.836C88.624 104.612 89.1108 104.761 89.3729 105.173C89.7098 105.735 89.5226 106.296 88.8487 106.708L87.8378 107.345C87.6506 107.495 87.5008 107.457 87.4259 107.307ZM87.5008 105.098C87.9126 104.836 88.0624 104.537 87.8752 104.2C87.688 103.9 87.3885 103.863 87.0515 104.087L86.415 104.499L86.9766 105.435L87.5008 105.098ZM88.4743 106.446C88.9236 106.184 89.0359 105.847 88.8487 105.51C88.624 105.173 88.2871 105.136 87.8378 105.435L87.2013 105.847L87.8378 106.895L88.4743 106.446Z" fill="#AD8745"/>
<path d="M91.0951 104.949L89.2605 102.44C89.1482 102.29 89.1856 102.14 89.3354 102.028L90.833 100.942C90.9454 100.867 91.0951 100.867 91.2075 100.98C91.2823 101.092 91.2823 101.242 91.1326 101.354L89.897 102.253L90.5335 103.114L91.7316 102.253C91.844 102.178 91.9937 102.178 92.0686 102.29C92.1435 102.403 92.1435 102.552 91.9937 102.627L90.7956 103.488L91.4696 104.424L92.7051 103.526C92.8174 103.451 92.9672 103.451 93.0795 103.563C93.1544 103.676 93.1544 103.825 93.0046 103.938L91.507 105.023C91.3572 105.136 91.2075 105.098 91.0951 104.949Z" fill="#AD8745"/>
<path d="M93.3042 101.392C92.5554 100.493 92.5554 99.5195 93.3417 98.8455C93.8658 98.3962 94.5023 98.2839 95.0265 98.546C95.1014 98.5835 95.1763 98.6209 95.2137 98.6958C95.3261 98.8081 95.2886 98.9579 95.1763 99.0702C95.064 99.1451 94.9516 99.1825 94.8019 99.1076C94.39 98.9204 93.9782 98.9579 93.6786 99.2574C93.1545 99.7067 93.1919 100.381 93.7535 101.055C94.3151 101.729 94.9891 101.841 95.5133 101.392C95.8502 101.092 96 100.718 95.8502 100.306C95.8128 100.156 95.8128 100.081 95.9251 100.006C96.0374 99.8939 96.1872 99.9314 96.2995 100.044C96.337 100.119 96.3744 100.156 96.4118 100.268C96.5616 100.793 96.3744 101.354 95.8502 101.803C95.064 102.402 94.0905 102.29 93.3042 101.392Z" fill="#AD8745"/>
<path d="M96.9735 98.1716C96.1123 97.3479 96.0749 96.3744 96.7863 95.5881C97.5351 94.8393 98.5086 94.8393 99.3697 95.663C100.231 96.4867 100.268 97.4602 99.5195 98.2465C98.8081 98.9953 97.7972 98.9579 96.9735 98.1716ZM98.9579 96.0749C98.3214 95.4758 97.6474 95.4009 97.1607 95.9251C96.674 96.4119 96.7488 97.1232 97.3853 97.7223C98.0218 98.3214 98.6958 98.3962 99.1825 97.8721C99.6693 97.3853 99.5944 96.6739 98.9579 96.0749Z" fill="#AD8745"/>
<path d="M101.916 95.2137L99.4446 93.2668C99.2574 93.117 99.2574 92.9298 99.3697 92.7426C99.4821 92.5928 99.6318 92.5554 99.8565 92.6303L102.627 93.4166L101.204 90.908C101.092 90.7208 101.092 90.571 101.204 90.4212C101.354 90.234 101.541 90.234 101.729 90.3464L104.2 92.2933C104.349 92.4056 104.349 92.5554 104.237 92.6677C104.125 92.78 103.975 92.8175 103.863 92.7052L101.916 91.1701L103.226 93.5289C103.301 93.6786 103.301 93.791 103.226 93.9033C103.151 94.0156 103.039 94.0531 102.889 94.0156L100.306 93.3042L102.253 94.8393C102.403 94.9517 102.403 95.1014 102.29 95.2137C102.178 95.3261 102.028 95.3261 101.916 95.2137Z" fill="#AD8745"/>
<path d="M105.323 90.571L102.702 88.8861C102.552 88.7738 102.515 88.624 102.59 88.4743L103.601 86.9392C103.675 86.7894 103.825 86.752 103.938 86.8643C104.05 86.9392 104.087 87.0889 104.012 87.2387L103.189 88.5492L104.087 89.1482L104.874 87.9127C104.949 87.8003 105.098 87.7629 105.211 87.8378C105.323 87.9127 105.36 88.0624 105.285 88.1747L104.499 89.4103L105.473 90.0468L106.296 88.7364C106.371 88.5866 106.521 88.5492 106.633 88.6615C106.746 88.7364 106.783 88.8861 106.708 89.0359L105.697 90.571C105.622 90.6459 105.473 90.6833 105.323 90.571Z" fill="#AD8745"/>
<path d="M108.206 85.7785L105.435 84.3931C105.285 84.3183 105.211 84.1685 105.285 84.0187L105.735 83.1201C106.222 82.1466 107.12 81.8471 108.168 82.3713C109.217 82.8955 109.554 83.7941 109.03 84.7676L108.58 85.6662C108.543 85.8159 108.393 85.8534 108.206 85.7785ZM108.58 84.5803C108.917 83.869 108.693 83.2699 107.906 82.8955C107.12 82.5211 106.484 82.6708 106.147 83.3822L105.847 83.9813L108.281 85.1794L108.58 84.5803Z" fill="#AD8745"/>
<path d="M110.378 81.3978L107.457 80.2371C107.27 80.1622 107.232 80.0125 107.27 79.8627L107.682 78.8144C107.981 78.103 108.543 77.8409 109.179 78.103C109.629 78.2902 109.928 78.6646 109.891 79.1513L111.164 78.9641C111.239 78.9641 111.314 78.9641 111.351 78.9641C111.501 79.0016 111.538 79.1888 111.501 79.3385C111.463 79.4509 111.388 79.5257 111.201 79.5257L109.778 79.7129L109.479 80.4618L110.565 80.9111C110.752 80.986 110.789 81.1357 110.752 81.2855C110.677 81.3978 110.527 81.4727 110.378 81.3978ZM109.367 79.5257C109.516 79.1139 109.404 78.7769 108.992 78.6271C108.618 78.4774 108.281 78.6271 108.131 79.039L107.832 79.7878L109.067 80.2746L109.367 79.5257Z" fill="#AD8745"/>
<path d="M110.939 76.8674L108.88 76.2683C108.693 76.2309 108.618 76.0811 108.693 75.8939C108.73 75.7067 108.88 75.6693 109.067 75.7067L111.051 76.3058C111.538 76.4555 112.025 76.2309 112.175 75.6693C112.362 75.1076 112.1 74.6958 111.576 74.5086L109.554 73.9095C109.367 73.8721 109.292 73.7223 109.367 73.5351C109.404 73.3479 109.554 73.3104 109.741 73.3479L111.8 73.947C112.549 74.1716 112.924 74.883 112.661 75.7816C112.437 76.7176 111.725 77.1295 110.939 76.8674Z" fill="#AD8745"/>
<path d="M113.335 72.337L110.228 71.7005C110.041 71.663 109.928 71.5133 110.003 71.3261C110.041 71.1763 110.078 71.1389 110.228 71.064L113.111 69.791V69.7535L110.677 69.2668C110.49 69.2293 110.415 69.117 110.452 68.9298C110.49 68.7426 110.602 68.6677 110.789 68.7051L113.934 69.3417C114.122 69.3791 114.197 69.4914 114.159 69.6786C114.122 69.8284 114.084 69.8658 113.934 69.9407L111.051 71.2137V71.2512L113.485 71.7379C113.672 71.7754 113.747 71.8877 113.71 72.0749C113.635 72.2995 113.485 72.3744 113.335 72.337Z" fill="#AD8745"/>
<path d="M114.197 67.3947L111.051 67.0577C110.864 67.0203 110.752 66.908 110.789 66.7582C110.827 66.571 110.939 66.4961 111.126 66.4961L112.587 66.6459V66.6084L111.089 64.8861C111.014 64.8112 110.977 64.7364 111.014 64.624C111.014 64.4743 111.164 64.3619 111.314 64.3994C111.388 64.3994 111.426 64.4368 111.501 64.5117L112.587 65.8222L114.309 64.6989C114.421 64.624 114.496 64.624 114.571 64.624C114.721 64.624 114.833 64.7738 114.833 64.9236C114.833 65.0359 114.758 65.1108 114.646 65.1857L112.961 66.2715L113.335 66.7207L114.309 66.8331C114.496 66.8705 114.608 66.9828 114.571 67.1326C114.496 67.3198 114.384 67.4321 114.197 67.3947Z" fill="#AD8745"/>
<path d="M60.0187 120C26.9204 120 0 93.0796 0 60.0187C0 26.9579 26.9204 0 60.0187 0C93.117 0 120.037 26.9204 120.037 60.0187C120.037 93.117 93.0796 120 60.0187 120ZM60.0187 1.16069C27.5569 1.16069 1.16069 27.5569 1.16069 60.0187C1.16069 92.4805 27.5569 118.877 60.0187 118.877C92.4805 118.877 118.877 92.4805 118.877 60.0187C118.877 27.5569 92.4805 1.16069 60.0187 1.16069Z" fill="#AD8745"/>
<path d="M83.4571 19.7317L83.0452 20.5179C96.5991 28.4555 105.735 43.17 105.735 59.9813C105.735 85.1794 85.2169 105.697 60.0187 105.697C34.8206 105.697 14.3026 85.1794 14.3026 59.9813C14.3026 43.3198 23.2886 28.6802 36.6552 20.7051L36.131 19.9937C22.5398 28.156 13.4041 43.0203 13.4041 59.9813C13.4041 85.6661 34.2964 106.596 60.0187 106.596C85.7036 106.596 106.633 85.7036 106.633 59.9813C106.633 42.8705 97.3105 27.819 83.4571 19.7317Z" fill="#AD8745"/>
</g>
<defs>
<clipPath id="clip0">
<rect width="120" height="120" fill="white"/>
</clipPath>
</defs>
</svg>
