<svg width="120" height="120" viewBox="0 0 120 120" fill="none" xmlns="http://www.w3.org/2000/svg">
<path d="M60 6.58307C89.4357 6.58307 113.417 30.5643 113.417 60C113.417 89.4357 89.4357 113.417 60 113.417C30.5643 113.417 6.58307 89.4357 6.58307 60C6.58307 30.5643 30.5643 6.58307 60 6.58307ZM60 0C26.8966 0 0 26.8966 0 60C0 93.1034 26.8966 120 60 120C93.1034 120 120 93.1034 120 60C120 26.8966 93.1034 0 60 0Z" fill="#F3E5B0"/>
<path d="M21.5361 48.6207C21.5361 48.6207 21.5361 47.3981 21.5361 45.7053C21.5361 44.0125 24.2634 41.7555 24.2634 41.7555V40.627H21.5361H14.6709H11.8496V41.5674C14.0126 43.1661 14.5769 44.7649 14.6709 45.7994V74.4827V79.279H19.6553L30.8465 70.815V62.257L21.5361 69.2163V48.6207Z" fill="#F3E5B0"/>
<path d="M105.329 40.721H98.4639H95.6426V41.6614C97.8997 43.3542 98.3699 45.047 98.4639 46.0815V46.6457C98.4639 46.7398 98.4639 46.7398 98.4639 46.7398V48.8088V69.4984L84.3573 58.8715V28.9655C84.3573 28.4953 84.3573 27.5548 84.3573 26.2382C84.3573 24.5454 87.0846 22.2884 87.0846 22.2884V21.1599H74.7649V22.1003C76.9279 23.699 77.4921 25.3918 77.5862 26.3323V53.605L60.094 40.4388L54.2633 44.8589L42.5078 26.8025C42.5078 26.6144 42.5078 26.5204 42.5078 26.3323C42.5078 24.6395 45.2351 22.3824 45.2351 22.3824V21.2539H32.8213V22.1943C34.9843 23.7931 35.5486 25.4859 35.6426 26.4263V28.1191V29.2476V57.931V74.0125V98.7461H42.5078V62.163L52.4765 54.6395L77.5862 93.2915V98.652H84.4514V73.3542L77.5862 68.1818V80.7837L63.4796 59.0595L57.931 50.5956L60 48.9968L63.3856 51.536L75.3291 60.4702L84.3573 67.2414L100.345 79.279H105.329V45.6113C105.517 43.9185 107.962 41.8495 107.962 41.8495V40.721H105.329ZM42.5078 53.605V39.3103L48.8087 48.9028L42.5078 53.605Z" fill="#F3E5B0"/>
</svg>
