<svg width="421" height="364" viewBox="0 0 421 364" fill="none" xmlns="http://www.w3.org/2000/svg">
<path fill-rule="evenodd" clip-rule="evenodd" d="M203.863 56.0172C207.014 55.8813 210.177 56.4505 213.17 57.3129C214.746 57.776 215.354 55.4174 213.835 54.9036C210.555 53.7638 207.335 53.2454 203.866 53.2539C201.136 53.2417 197.361 53.2969 195.387 55.3133C194.996 55.7016 195.206 56.3536 195.706 56.5029C198.292 57.2975 201.201 56.1284 203.863 56.0172Z" fill="#615845"/>
<path fill-rule="evenodd" clip-rule="evenodd" d="M193.872 64.8568C195.701 65.075 197.573 64.3963 199.362 64.2002C201.557 63.931 203.769 63.7278 205.957 63.5666C207.547 63.4237 207.597 60.9666 205.956 61.0523C203.75 61.1474 201.553 61.2756 199.35 61.5118C197.354 61.7279 194.974 61.8343 193.343 63.0152C192.539 63.5847 192.882 64.7324 193.872 64.8568Z" fill="#615845"/>
<path fill-rule="evenodd" clip-rule="evenodd" d="M242.763 36.7755C241.633 35.7323 240.603 34.6626 239.678 33.4583C238.846 32.3354 238.36 31.0491 237.347 30.0455C236.908 29.5964 235.998 29.7694 235.86 30.4439C235.273 33.5406 238.977 36.6566 241.066 38.5051C242.252 39.4976 243.925 37.8098 242.763 36.7755Z" fill="#615845"/>
<path fill-rule="evenodd" clip-rule="evenodd" d="M283.982 35.5764C285.119 33.0761 286.33 30.5912 287.708 28.2031C288.555 26.7367 289.494 25.3517 290.559 24.0393C291.331 23.0886 292.091 22.3539 292.411 21.1702C292.576 20.5948 292.037 20.1724 291.5 20.281C289.077 20.7532 287.491 23.6925 286.229 25.5891C284.45 28.3325 283.149 31.4081 281.863 34.4087C281.305 35.7624 283.334 36.9896 283.982 35.5764Z" fill="#615845"/>
<path fill-rule="evenodd" clip-rule="evenodd" d="M294.404 37.9903C297.568 34.734 300.698 31.3456 303.315 27.6338C303.801 26.9369 302.831 25.9574 302.15 26.4584C298.538 29.2327 295.812 32.938 292.698 36.2515C291.598 37.4317 293.294 39.1375 294.404 37.9903Z" fill="#615845"/>
<path fill-rule="evenodd" clip-rule="evenodd" d="M312.607 49.2269C314.299 48.6674 315.692 47.6565 317 46.4562C317.343 46.1517 317.426 45.669 317.311 45.2394C317.125 44.5455 316.479 44.1165 315.752 44.3113C315.191 44.4618 314.669 45.0266 314.235 45.3907C313.54 45.9667 312.809 46.4105 311.925 46.6826C310.342 47.2486 311.015 49.7599 312.607 49.2269Z" fill="#615845"/>
<path fill-rule="evenodd" clip-rule="evenodd" d="M267.964 287.711C268.299 287.905 268.626 288.065 268.961 288.259C269.045 288.307 269.15 288.172 269.033 288.133C268.698 287.939 268.396 287.737 268.061 287.543C267.968 287.462 267.88 287.662 267.964 287.711Z" fill="#615845"/>
<path fill-rule="evenodd" clip-rule="evenodd" d="M332.344 119.977C319.276 115.616 305.016 114.868 291.066 116.729C291.03 116.597 290.92 116.45 290.86 116.359C294.925 106.947 300.236 98.0868 304.535 88.7538C306.168 85.1997 307.86 81.2047 308.82 77.1225C309.778 74.8825 310.544 72.5876 310.647 70.3288C310.667 70.0048 310.431 69.7848 310.155 69.6815C310.535 68.5881 310.981 67.4769 311.277 66.3351C312.268 66.0695 312.815 64.5417 311.675 63.8556C297.939 55.2821 283.905 47.7095 271.286 37.4909C270.748 37.0684 270.102 37.1706 269.702 37.5258C269.693 37.4928 269.675 37.4267 269.633 37.4025C269.158 36.2902 267.246 37.0858 267.655 38.2158C270.772 46.4117 273.759 54.7841 277.946 62.4808C274.921 60.7061 271.847 59.0151 269.062 57.2115C263.567 53.6195 257.833 49.6664 251.541 47.598C251.596 47.4062 251.651 47.2145 251.673 47.0315C251.704 46.8816 251.659 46.7164 251.633 46.6173C251.798 46.573 251.972 46.5618 252.137 46.5175C255.882 45.6912 260.266 44.8706 263.878 43.0175C263.986 43.024 264.103 43.0635 264.202 43.037C264.896 42.851 265.548 42.6409 266.217 42.4969C266.217 42.4969 266.217 42.4969 266.259 42.5211C266.343 42.5695 266.385 42.5937 266.618 42.6727C267.705 43.1606 269.068 41.7685 267.982 40.8906C267.806 40.7608 267.645 40.556 267.46 40.3932C267.587 40.0757 267.424 39.7299 267.13 39.5606C267.092 38.7563 266.267 38.0566 265.441 38.2779C264.516 38.5258 263.582 38.7407 262.665 39.0216C262.236 39.1367 261.802 39.5008 261.71 39.9504C261.673 40.2083 261.684 40.3824 261.728 40.5476C257.526 41.78 253.297 43.4443 249.056 44.4035C242.915 45.8013 236.717 46.8597 230.638 48.4888C230.01 48.657 229.753 49.1509 229.744 49.649C229.597 49.7593 229.449 49.8697 229.328 50.0792C225.449 56.2186 223.213 63.8656 220.471 70.5502C218.654 75.0036 216.837 79.4571 214.903 83.871C214.424 84.991 213.254 88.4212 212.475 89.4799C211.805 89.6239 211.253 90.3385 211.763 91.0519C211.924 91.2567 212.109 91.4195 212.271 91.6243C212.092 91.8845 212.073 92.2084 212.27 92.5454C218.254 101.531 230.641 107.845 239.675 113.145C246.019 116.864 253.241 120.95 260.696 123.663C252.744 123.987 243.901 129.048 236.536 135.661C221.287 123.952 202.433 115.97 180.822 113.297C129.8 106.993 77.3995 135.059 62.5303 184.375C62.3232 184.396 62.1096 184.524 61.9886 184.733C47.7296 210.158 52.7378 244.444 64.5266 269.937C78.3899 299.868 102.858 320.476 134.437 329.687C179.416 342.78 229.066 324.802 256.529 289.181C262.145 292.032 268.051 294.381 274.368 296.017C321.179 308.018 368.051 287.207 384.073 241.264C400.164 195.055 380.777 136.182 332.344 119.977ZM286.509 111.221C285.47 112.633 284.339 113.963 283.208 115.293C283.775 111.989 283.833 108.503 283.776 105.118C284.302 101.4 284.637 97.6271 285.382 94.063C285.588 92.9808 284.054 92.5419 283.74 93.6176C283.724 93.6925 283.709 93.7675 283.685 93.8094C283.699 87.2536 283.914 80.7857 284.609 74.26C284.642 74.2512 284.642 74.2512 284.675 74.2423C285.078 74.0281 285.238 73.7018 285.258 73.3778C289.315 77.8155 293.52 82.1428 297.831 86.3356C296.979 88.4411 296.126 90.5465 295.223 92.5947C293.171 97.3592 291.277 102.187 289.701 107.143C288.349 108.178 287.457 109.869 286.509 111.221ZM280.187 114.721C280.202 116.099 280.216 117.476 280.181 118.796C278.676 119.128 277.222 119.518 275.735 119.916C273.527 113.921 271.234 107.877 268.869 101.958C274.631 94.252 277.762 85.0548 281.447 76.2052C279.715 87.1878 279.998 99.0826 280.146 110.341C280.018 111.579 279.889 112.818 279.827 114.039C279.798 114.33 279.968 114.567 280.187 114.721ZM265.981 100.43C266.094 100.719 266.182 101.049 266.262 101.347C266.222 101.463 266.216 101.571 266.209 101.679C266.09 101.499 265.971 101.318 265.729 101.206C256.7 97.2503 248.732 91.7001 240.285 86.7387C252.49 87.2223 266.645 82.6859 278.048 77.3991C274.805 84.8556 272.238 92.5911 267.513 99.2759C266.81 98.8977 265.632 99.3905 265.981 100.43ZM273.068 120.666C272.184 120.938 271.325 121.169 270.442 121.441C263.52 116.885 257.25 112.651 251.315 106.626C246.503 101.753 242.059 96.5339 237.582 91.3232C237.547 91.1911 237.454 91.1096 237.37 91.0612C236.955 90.5703 236.507 90.0883 236.084 89.5643C236.795 89.4445 237.498 89.2916 238.177 89.1806C238.516 89.1251 238.754 88.9552 238.917 88.7699C247.173 94.2074 255.387 100.542 264.749 103.629C265.608 103.93 266.317 103.138 266.387 102.34C266.464 102.497 266.607 102.635 266.709 102.75C268.626 108.717 270.285 115.037 273.068 120.666ZM297.501 97.7926C295.756 101.058 293.992 104.258 292.28 107.514C294.17 102.014 296.303 96.6261 298.686 91.242C299.101 90.2808 299.525 89.3525 299.973 88.3824C300.159 88.5453 300.311 88.717 300.496 88.8798C299.327 91.3889 298.182 93.8561 297.013 96.3652C296.692 97.0179 297.016 97.5684 297.501 97.7926ZM306.373 74.2012C306.171 75.0344 305.936 75.8765 305.71 76.7516C305.671 76.8684 305.697 76.9675 305.691 77.0755C305.087 78.654 304.483 80.2325 303.819 81.7207C303.107 83.2928 302.353 84.8406 301.641 86.4126C301.489 86.2409 301.304 86.0781 301.151 85.9064C303.411 81.1218 305.701 76.1874 306.786 71.1156C306.736 72.1205 306.521 73.1697 306.373 74.2012ZM306.935 69.1631C306.664 68.8108 306.106 68.7123 305.774 69.1909C303.027 73.6102 300.929 78.5994 298.897 83.571C295.241 79.8402 291.561 76.1513 287.881 72.4624C294.332 71.6901 300.718 70.0144 306.963 68.3411C306.968 68.6231 306.93 68.881 306.935 69.1631ZM270.842 40.1953C281.806 50.7155 296.177 57.5606 309.046 65.41C309.031 65.485 308.974 65.5357 308.958 65.6106C308.671 65.3333 308.27 65.1575 307.741 65.2992C300.505 67.2381 293.306 68.9192 285.924 70.0474C285.762 69.8426 285.634 69.629 285.473 69.4243C286.125 69.2142 286.585 68.4181 285.912 67.89C284.953 67.0846 283.87 66.3477 282.787 65.6108C277.767 57.7124 274.497 48.8137 270.842 40.1953ZM267.798 59.4981C271.624 62.0145 276.078 65.8149 280.694 67.9778C280.714 68.1849 280.776 68.4162 280.97 68.6121C281.52 69.2086 282.069 69.8051 282.586 70.4105C282.561 70.4524 282.546 70.5273 282.555 70.5604C282.423 70.5958 282.308 70.6973 282.194 70.7988C281.768 70.6649 281.273 70.7977 280.991 71.3335C280.604 72.0039 280.301 72.7226 279.956 73.4172C266.801 79.1731 251.527 84.6826 237.179 84.1355C239.507 79.4743 241.484 74.6945 243.378 69.8664C245.908 63.4509 249.221 56.6488 251.057 49.8881C256.799 52.8121 262.344 55.9303 267.798 59.4981ZM232.335 50.7257C238.261 49.3149 244.299 48.1928 250.251 46.8812C250.203 46.965 250.155 47.0488 250.139 47.1237C250.097 47.0995 250.023 47.0842 249.981 47.06C248.914 46.7792 248.193 48.3182 249.156 48.8745C246.434 53.783 244.771 59.4703 242.75 64.6159C240.158 71.3312 237.381 77.8836 234.387 84.4231C234.222 84.4674 234.033 84.5535 233.927 84.6881C233.098 73.3999 233.794 61.9866 232.335 50.7257ZM220.297 77.9634C223.648 69.9823 226.672 61.8408 230.298 53.963C231.006 64.9295 230.528 75.9658 231.658 86.9252C231.667 86.9583 231.676 86.9913 231.685 87.0243C231.687 87.1654 231.722 87.2976 231.725 87.4386C230.172 87.8547 228.628 88.3039 227.207 88.6846C224.356 89.4129 218.015 91.7849 214.64 90.4227C217.332 87.6473 219.596 79.7095 220.297 77.9634ZM215.141 93.0863C217.114 93.4431 219.372 93.0151 221.242 92.7265C225.149 92.1048 228.981 91.0778 232.817 90.1918C231.931 95.7416 231.379 101.875 232.859 107.003C226.224 103.256 219.586 98.8368 215.141 93.0863ZM240.773 111.293C238.956 110.328 237.064 109.347 235.187 108.292C235.479 104.885 234.879 101.326 234.88 97.891C234.886 95.7998 235 93.715 235.181 91.6125C235.876 92.4888 236.571 93.365 237.266 94.2412C238.276 99.9914 238.548 106.293 241.28 111.334C241.485 111.704 242.113 111.536 242.106 111.113C242.051 106.417 240.69 101.469 239.316 96.7377C239.74 97.2616 240.23 97.7679 240.662 98.3249C240.407 98.4287 240.229 98.689 240.332 98.9445C241.318 101.301 241.949 103.788 242.613 106.267C243.251 108.646 243.595 111.387 244.933 113.472C243.502 112.757 242.096 112.001 240.773 111.293ZM245.771 113.956C245.961 113.869 246.157 113.675 246.161 113.426C246.391 110.85 245.185 108.198 244.364 105.797C243.674 103.751 242.762 101.8 241.891 99.8725C242.933 101.116 244.032 102.309 245.098 103.511C244.794 103.699 244.558 104.01 244.682 104.473C245.101 106.167 245.519 107.861 245.929 109.522C246.312 111.084 246.442 112.891 247.631 114.024C248.002 114.35 248.596 114.19 248.721 113.732C249.13 112.347 248.568 111.046 248.163 109.667C247.767 108.321 247.371 106.975 246.966 105.596C247.761 106.446 248.555 107.295 249.391 108.169C249.171 108.405 249.068 108.681 249.174 109.077C249.628 110.903 250.082 112.73 250.701 114.512C250.98 115.287 251.287 116.303 251.839 117.04C249.806 116.062 247.756 115.018 245.771 113.956ZM253.513 117.867C253.702 117.781 253.882 117.661 253.953 117.395C254.264 116.178 253.324 115.049 252.882 113.927C252.458 112.872 252.099 111.8 251.774 110.718C252.213 111.167 252.694 111.64 253.142 112.122C252.838 112.31 252.654 112.678 252.777 113.141C253.368 115.214 254.606 118.247 256.648 119.258C257.049 119.434 257.626 119.208 257.601 118.719C257.543 117.708 257.125 117.076 256.547 116.239C256.13 115.607 255.754 114.999 255.445 114.374C257.596 116.454 259.987 118.505 262.488 120.172C261.992 120.305 261.61 120.726 261.526 121.209C258.821 120.234 256.147 119.109 253.513 117.867ZM247.586 295.19C247.251 295.527 246.959 295.889 246.624 296.227C246.323 296.555 245.979 296.86 245.678 297.188C224.617 317.848 194.412 329.625 163.755 329.8C163.669 329.61 163.559 329.463 163.334 329.417C135.754 323.632 112.792 313.67 91.3516 294.978C61.7338 269.163 63.5704 237.292 61.749 201.549C61.7194 200.778 60.6661 200.812 60.5789 201.544C56.4619 235.478 61.1524 267.654 85.219 292.974C100.915 309.522 123.597 323.596 146.826 328.74C144.656 328.436 142.518 328.124 140.353 327.712C81.7129 316.367 45.8455 252.029 60.1382 196.066C60.7301 197.218 62.6673 197.443 62.9893 195.869C73.6041 145.213 117.404 116.902 167.459 116.027C191.606 115.613 215.361 123.379 235.099 137.038C233.318 138.719 231.621 140.449 230.083 142.242C229.837 142.379 229.641 142.573 229.394 142.71C228.704 142.116 227.875 141.665 227.079 141.206C226.157 140.673 225.332 141.426 225.262 142.224C224.493 141.863 223.765 141.527 223.178 141.188C222.005 140.511 220.973 141.814 221.305 142.788C220.009 142.179 218.737 141.528 217.416 140.961C216.739 140.682 216.149 141.124 215.967 141.633C214.082 140.545 212.172 139.498 210.214 138.535C209.352 138.093 208.73 139.074 209.189 139.731C171.714 121.864 113.574 136.309 92.1727 172.218C72.2559 200.186 72.5976 231.331 86.9804 257.121C86.4694 257.329 86.08 257.858 86.3651 258.525C101.731 290.497 137.415 317.804 174.685 310.19C175.19 310.09 175.374 309.722 175.418 309.356C187.106 309.624 198.78 307.594 209.939 303.117C213.706 304.091 217.993 304.359 221.422 303.015C221.834 302.834 221.948 302.201 221.414 302.061C219.289 301.532 217.101 301.693 214.92 301.747C214.356 301.756 213.807 301.691 213.267 301.658C215.071 300.856 216.815 299.964 218.583 299.03C218.573 299.387 218.712 299.774 219.162 299.866C222.402 300.592 229.244 300.884 230.232 296.51C230.349 296.019 229.892 295.504 229.405 295.67C227.993 296.083 226.924 297.114 225.547 297.66C223.717 298.363 221.91 298.492 220.015 298.292C221.831 297.274 223.63 296.19 225.403 295.007C225.555 295.178 225.764 295.299 226.055 295.328C227.642 295.434 229.167 295.308 230.704 294.967C232.515 294.588 233.539 293.783 234.718 292.369C234.987 292.049 234.737 291.514 234.266 291.605C232.241 292.112 230.228 292.793 228.183 293.093C228.945 292.499 228.854 291.497 228.346 290.924C230.845 289.015 233.174 286.868 235.434 284.598C234.437 286.034 233.417 287.511 232.42 288.947C231.862 289.77 233.147 290.736 233.799 289.994C241.342 281.669 248.797 271.03 251.514 259.89C258.491 242.048 259.747 222.551 255.935 204.093C256.198 204.413 256.68 204.496 256.946 204.035C258.943 200.383 258.635 195.401 258.974 191.379C259.078 190.183 257.278 190.205 257.131 191.377C256.698 195.177 255.467 199.438 255.764 203.325C254.136 195.792 251.663 188.415 248.376 181.434C248.541 181.39 248.689 181.279 248.71 181.096C249.005 178.361 248.435 175.574 248.132 172.858C248.072 172.236 247.067 172.187 247.136 172.841C247.335 175.302 247.369 177.808 247.808 180.24C246.158 176.857 244.319 173.561 242.265 170.392C242.754 168.384 242.097 165.798 241.594 164.055C241.577 163.989 241.526 163.932 241.508 163.866C241.695 163.639 241.849 163.42 242.036 163.193C244.863 166.473 247.518 169.906 250.125 173.422C249.609 173.347 249.041 173.606 249.092 174.194C249.389 177.55 248.768 181.577 250.273 184.68C250.445 185.059 251.057 184.965 251.158 184.549C251.934 181.366 251.3 177.675 250.822 174.439C251.272 175.062 251.74 175.751 252.191 176.374C251.75 176.315 251.347 176.529 251.381 177.052C251.815 180.654 252.009 184.285 252.542 187.861C252.608 188.375 253.455 188.36 253.538 187.878C254.069 184.442 253.446 180.925 252.99 177.506C253.89 178.752 254.782 179.965 255.658 181.253C256.007 181.762 256.989 181.463 256.737 180.787C253.921 173.184 249.273 166.673 243.781 160.849C246.419 157.875 249.371 155.278 252.466 152.819C270.45 175.13 275.337 206.19 273.968 234.253C273.314 247.674 269.944 259.945 264.585 270.873C264.208 270.655 263.71 270.647 263.409 270.975C260.134 274.615 258.362 279.765 255.877 283.972C253.549 288.102 250.706 291.768 247.586 295.19ZM222.154 156.267C218.215 161.785 214.897 167.774 212.76 173.942C215.179 165.786 218.487 157.78 223.541 151.397C222.873 152.603 222.237 153.801 221.767 154.954C221.537 155.547 221.777 156.049 222.154 156.267ZM128.759 296.996C134.377 299.989 140.358 302.353 146.504 304.142C149.475 305.187 152.469 306.049 155.493 306.762C144.641 305.384 134.446 302.627 123.873 296.606C113.677 290.802 105.34 282.553 98.3127 273.244C106.543 282.549 116.828 290.666 128.759 296.996ZM87.8944 185.725C88.0443 185.756 88.1853 185.753 88.3263 185.751C76.6531 213.953 78.8079 242.878 97.3433 267.908C79.253 244.671 74.562 213.947 87.8944 185.725ZM149.023 300.987C137.615 297.138 126.449 290.886 115.61 282.422C75.7947 251.193 77.6855 205.779 102.07 165.671C102.336 165.21 102.296 164.796 102.057 164.434C129.185 134.039 184.221 126.906 217.2 148.35C218.4 149.127 219.476 149.972 220.627 150.832C211.548 162.544 208.197 179.91 205.336 193.285C200.408 216.528 206.927 244.956 224.221 261.784C228.205 267.269 232.845 272.294 237.983 276.796C237.512 277.418 237.074 278.032 236.603 278.654C215.946 302.534 180.483 309.097 149.023 300.987ZM243.65 260.545C243.487 260.73 243.384 261.006 243.482 261.369C243.794 262.667 244.356 264.499 245.322 265.728C245.226 265.895 245.129 266.063 245.032 266.231C244.679 265.44 244.235 264.709 243.932 263.975C242.993 261.925 242.096 259.899 241.223 257.831C241.978 258.797 242.847 259.662 243.65 260.545ZM237.547 168.115C254.801 192.462 259.073 226.379 250.24 254.21C249.704 255.912 249.076 257.533 248.448 259.153C226.368 235.036 224.467 197.544 237.547 168.115ZM253.583 152.095C281.368 131.157 324.74 131.116 349.901 155.895C373.476 179.115 376.339 218.085 360.188 245.964C341.763 277.782 298.575 289.744 266.659 273.327C270.951 265.023 274.135 256.024 275.932 246.476C282.865 210.229 273.86 176.624 253.583 152.095ZM383.98 231.798C372.822 281.749 327.038 302.127 279.309 294.233C271.712 292.975 264.627 290.588 257.95 287.348C258.47 286.642 258.971 285.87 259.481 285.132C260.299 286.86 261.663 288.514 263.496 288.483C263.985 288.458 264.269 288.063 264.178 287.592C263.823 285.739 261.872 284.668 260.94 283.041C261.199 282.688 261.384 282.32 261.635 281.934C262.964 283.986 264.904 286.866 267.12 286.414C267.361 286.385 267.563 286.083 267.567 285.834C267.571 285.585 267.518 285.386 267.423 285.164C270.085 287.036 272.835 288.708 276.033 289.94C276.393 290.092 276.623 289.499 276.288 289.305C273.534 287.883 270.884 286.185 268.299 284.469C268.835 284.75 269.338 285.041 269.937 285.163C270.354 285.264 270.697 284.96 270.75 284.627C270.809 284.717 270.836 284.816 270.961 284.889C274.401 286.623 277.889 288.274 281.441 289.766C284.516 291.067 288.533 293.107 291.944 292.618C292.316 292.554 292.448 291.988 292.17 291.743C290.041 290.012 286.896 289.509 284.35 288.597C280.093 287.117 275.85 285.421 271.744 283.581C271.217 283.333 270.793 283.73 270.692 284.146C269.221 281.566 266.421 279.837 264.245 277.799C264.366 277.589 264.496 277.413 264.617 277.203C268.897 279.563 273.379 281.62 278.185 283.166C279.111 283.449 279.636 282.104 278.831 281.611C278.16 281.224 277.565 280.853 276.895 280.466C282.566 282.204 288.391 283.193 294.229 283.435C293.952 283.722 293.893 284.163 294.32 284.438C299.286 287.109 306.606 288.654 312.028 286.422C312.44 286.241 312.602 285.525 312.045 285.426C306.327 284.444 300.829 286.129 295.366 283.45C299.326 283.557 303.296 283.308 307.22 282.752C307.262 282.777 307.271 282.81 307.313 282.834C311.723 284.096 316.967 285.559 321.55 284.686C322.087 284.577 321.991 283.823 321.566 283.69C318.345 282.64 314.866 282.474 311.49 282.033C315.832 281.189 320.125 279.897 324.296 278.283C324.334 278.556 324.513 278.827 324.837 278.847C329.368 279.368 334.74 279.062 338.681 276.589C338.985 276.401 338.861 275.939 338.495 275.895C334.235 275.726 330.201 277.586 325.937 277.666C334.747 274.066 342.949 268.858 350.065 262.241C354.447 261.811 358.283 260.003 360.826 256.276C360.956 256.1 360.702 255.814 360.488 255.942C357.732 257.814 355.015 259.569 351.885 260.443C353.705 258.645 355.424 256.732 357.091 254.763C361.735 252.137 366.782 248.766 369.284 244.094C369.42 243.809 369.107 243.433 368.812 243.653C365.932 245.594 363.299 247.928 360.649 250.197C360.722 250.071 360.803 249.978 360.884 249.886C362.675 247.316 364.214 244.602 365.612 241.89C368.271 239.123 370.931 235.967 372.126 232.495C372.268 232.102 371.691 231.797 371.455 232.108C370.225 233.464 369.147 234.993 368.094 236.479C379.458 208.182 371.395 173.333 349.753 152.039C320.23 123.01 259.909 130.107 237.634 164.869C237.468 164.913 237.312 164.99 237.191 165.2C223.522 188.731 222.868 219.329 234.778 243.691C233.807 242.18 232.811 240.712 231.921 239.109C218.813 215.563 222.419 189.239 234.471 166.283C234.97 165.37 233.638 164.629 233.088 165.485C214.321 194.702 219.852 231.47 240.435 256.873C239.761 256.735 238.825 257.34 239.113 258.148C239.895 260.276 240.579 262.43 241.452 264.498C242.048 265.932 242.568 267.741 243.634 268.943C243.392 269.362 243.192 269.805 242.941 270.191C241.991 271.402 241.109 272.736 240.233 273.962C239.974 274.315 239.681 274.677 239.422 275.03C234.983 271.154 230.871 266.909 227.24 262.215C227.245 261.966 227.174 261.701 226.962 261.439C226.09 260.433 225.243 259.385 224.395 258.338C224.208 258.034 223.996 257.772 223.775 257.477C210.52 238.008 208.344 215.747 211.083 193.587C211.431 193.564 211.759 193.335 211.734 192.846C211.677 191.444 211.704 190.091 211.764 188.729C212.289 185.401 212.889 182.088 213.573 178.824C222.387 162.685 231.771 147.35 246.772 135.929C252.63 131.491 259.177 128.036 266.104 125.472C266.179 125.487 266.221 125.511 266.296 125.527C266.322 125.626 266.439 125.665 266.499 125.756C262.79 127.245 259.334 129.021 256.605 130.992C255.325 131.902 256.531 134.022 257.852 133.137C268.581 125.729 280.485 126.541 292.659 124.129C293.362 123.976 293.303 122.965 292.653 122.785C290.277 122.111 287.626 121.866 284.871 121.895C284.906 121.496 284.8 121.1 284.546 120.814C284.81 120.743 285.033 120.648 285.297 120.577C285.844 120.501 286.381 120.393 286.927 120.317C287.395 121.006 288.685 121.192 289.226 120.303C289.307 120.211 289.422 120.109 289.494 119.984C297.485 119.011 305.506 118.81 313.205 119.261C369.47 122.531 395.058 182.08 383.98 231.798Z" fill="#615845"/>
<path fill-rule="evenodd" clip-rule="evenodd" d="M282.068 282.196C280.933 281.792 280.49 283.575 281.592 283.988C287.631 286.301 294.506 290.02 301.101 289.917C301.416 289.903 301.517 289.487 301.265 289.342C295.565 285.911 288.305 284.456 282.068 282.196Z" fill="#615845"/>
<path fill-rule="evenodd" clip-rule="evenodd" d="M323.585 280.917C321.446 280.995 319.295 280.898 317.184 280.685C316.71 280.635 316.575 281.45 317.057 281.533C320.958 282.082 326.264 283.777 329.833 281.368C330.104 281.189 329.998 280.793 329.674 280.773C327.703 280.558 325.626 280.866 323.585 280.917Z" fill="#615845"/>
<path fill-rule="evenodd" clip-rule="evenodd" d="M337.007 273.779C336.518 273.804 336.506 274.551 337.004 274.559C340.091 274.582 343.482 274.417 345.808 272.129C346.061 271.884 345.805 271.457 345.475 271.546C342.556 272.151 340.066 273.562 337.007 273.779Z" fill="#615845"/>
<path fill-rule="evenodd" clip-rule="evenodd" d="M350.299 266.287C348.658 266.904 347.015 267.379 345.338 267.864C344.488 268.127 344.824 269.383 345.692 269.186C348.684 268.455 352.758 267.93 354.908 265.512C355.185 265.225 354.905 264.84 354.565 264.896C353.058 265.087 351.708 265.732 350.299 266.287Z" fill="#615845"/>
<path fill-rule="evenodd" clip-rule="evenodd" d="M343.842 143.99C344.041 143.937 343.952 143.606 343.754 143.659C343.555 143.712 343.644 144.043 343.842 143.99Z" fill="#615845"/>
<path fill-rule="evenodd" clip-rule="evenodd" d="M350.75 151.134L350.783 151.125L350.367 149.572L350.334 149.581L350.75 151.134Z" fill="#615845"/>
<path fill-rule="evenodd" clip-rule="evenodd" d="M349.086 146.905C355.404 153.039 359.947 160.215 364.348 167.784C364.827 168.647 366.336 168.066 365.971 167.101C362.577 158.661 356.852 151.836 349.951 146.036C349.362 145.556 348.545 146.342 349.086 146.905Z" fill="#615845"/>
<path fill-rule="evenodd" clip-rule="evenodd" d="M135.796 306.869C134.871 306.196 133.694 307.751 134.594 308.466C142.122 314.488 152.078 319.789 162.01 319.324C162.956 319.283 163.247 317.859 162.231 317.635C152.579 315.582 143.843 312.717 135.796 306.869Z" fill="#615845"/>
<path fill-rule="evenodd" clip-rule="evenodd" d="M160.01 312.387C159.013 311.839 158.134 313.315 159.115 313.937C164.504 317.133 170.735 320.032 177.116 320.057C177.722 320.072 178.096 319.087 177.461 318.832C171.727 316.331 165.595 315.388 160.01 312.387Z" fill="#615845"/>
<path fill-rule="evenodd" clip-rule="evenodd" d="M171.407 311.175C170.29 310.837 169.886 312.503 170.947 312.892C176.742 315.093 183.29 319.041 189.651 318.859C190.455 318.821 190.859 317.685 190.081 317.292C184.357 314.434 177.505 313.047 171.407 311.175Z" fill="#615845"/>
<path fill-rule="evenodd" clip-rule="evenodd" d="M189.356 312.209C188.202 312.129 188.215 313.896 189.336 313.985C192.087 314.204 194.743 314.732 197.492 314.421C198.081 314.369 198.273 313.503 197.632 313.356C194.899 312.672 192.164 312.378 189.356 312.209Z" fill="#615845"/>
<path fill-rule="evenodd" clip-rule="evenodd" d="M83.7478 176.99C89.6661 165.771 98.8137 153.652 110.298 147.741C110.421 147.673 110.302 147.492 110.179 147.561C97.6566 153.43 87.8657 163.81 82.7535 176.584C82.514 177.144 83.4664 177.526 83.7478 176.99Z" fill="#615845"/>
<path fill-rule="evenodd" clip-rule="evenodd" d="M184.366 128.638C197.416 129.498 209.445 131.304 221.243 137.138C221.77 137.386 222.34 136.738 221.901 136.289C212.157 127.283 196.869 127.059 184.395 126.895C183.225 126.89 183.253 128.582 184.366 128.638Z" fill="#615845"/>
<path fill-rule="evenodd" clip-rule="evenodd" d="M243.479 166.065C243.884 167.444 244.148 168.825 244.288 170.275C244.29 170.416 244.506 170.429 244.537 170.279C244.727 168.741 244.397 167.377 244.04 165.915C243.943 165.551 243.381 165.702 243.479 166.065Z" fill="#615845"/>
<path fill-rule="evenodd" clip-rule="evenodd" d="M245.55 169.3C245.746 171.62 246.339 173.834 246.668 176.119C246.715 176.425 247.228 176.358 247.215 176.043C247.168 173.753 246.874 171.601 246.687 169.314C246.633 168.584 245.505 168.603 245.55 169.3Z" fill="#615845"/>
<path fill-rule="evenodd" clip-rule="evenodd" d="M253.935 182.884C253.858 186.694 253.235 190.58 253.623 194.407C253.694 195.202 254.785 195.441 255.02 194.599C256.126 190.797 255.685 186.771 255.495 182.891C255.47 181.871 253.942 181.855 253.935 182.884Z" fill="#615845"/>
<path fill-rule="evenodd" clip-rule="evenodd" d="M259.07 202.579C259.026 202.414 258.991 202.282 258.947 202.118C258.929 202.052 258.797 202.087 258.848 202.144C258.892 202.309 258.927 202.441 258.971 202.605C258.989 202.671 259.088 202.645 259.07 202.579Z" fill="#615845"/>
<path fill-rule="evenodd" clip-rule="evenodd" d="M229.329 247.276C229.086 246.633 228.194 246.872 228.305 247.551C228.9 251.358 228.801 257.334 232.253 259.774C232.564 260.009 233.006 259.678 233.017 259.321C233.085 257.461 232.202 255.75 231.624 253.992C230.923 251.772 230.18 249.527 229.329 247.276Z" fill="#615845"/>
<path fill-rule="evenodd" clip-rule="evenodd" d="M236.024 264.465C236.245 264.76 236.641 264.654 236.652 264.297C237.104 260.564 234.911 256.476 233.551 253.122C233.231 252.322 231.9 252.643 232.197 253.485C233.549 256.947 233.766 261.458 236.024 264.465Z" fill="#615845"/>
<path fill-rule="evenodd" clip-rule="evenodd" d="M242.706 268.519C242.154 266.329 240.927 264.391 240.054 262.323C238.991 259.81 238.076 257.186 237.5 254.507C237.267 253.507 235.822 253.93 235.98 254.915C236.649 259.658 237.764 265.805 241.448 269.245C241.98 269.775 242.909 269.279 242.706 268.519Z" fill="#615845"/>
<path fill-rule="evenodd" clip-rule="evenodd" d="M48.6706 263.101C51.0171 273.84 55.62 284.542 63.0602 292.749C63.6692 293.435 64.6751 292.564 64.2644 291.824C59.1978 282.167 53.297 273.23 49.6288 262.844C49.3945 262.234 48.5354 262.464 48.6706 263.101Z" fill="#615845"/>
<path fill-rule="evenodd" clip-rule="evenodd" d="M55.7549 294.033C55.0662 293.049 53.4389 293.981 54.1364 294.998C56.4498 298.345 59.5678 300.201 63.0936 302.125C63.8807 302.552 64.558 301.378 63.795 300.91C60.7761 299.027 57.8209 296.986 55.7549 294.033Z" fill="#615845"/>
<path fill-rule="evenodd" clip-rule="evenodd" d="M371.555 139.964C372.182 140.716 373.369 139.726 372.907 138.928C366.684 128.129 355.226 122.239 345.108 115.671C344.378 115.194 343.791 116.308 344.455 116.803C354.289 123.765 363.805 130.601 371.555 139.964Z" fill="#615845"/>
<path fill-rule="evenodd" clip-rule="evenodd" d="M371.5 123.368C370.736 122.369 369.043 123.318 369.782 124.36C378.181 136.276 384.252 148.886 389.294 162.552C389.703 163.682 391.364 163.272 391.112 162.065C388.142 147.809 380.231 134.806 371.5 123.368Z" fill="#615845"/>
<path fill-rule="evenodd" clip-rule="evenodd" d="M65.5165 153.755C69.4276 149.98 73.3203 145.608 76.6248 141.287C77.2584 140.48 76.4723 139.132 75.4374 139.763C70.699 142.698 66.8689 147.832 63.5998 152.285C62.7397 153.436 64.5613 154.684 65.5165 153.755Z" fill="#615845"/>
<path fill-rule="evenodd" clip-rule="evenodd" d="M392.944 244.766C392.044 253.436 388.347 261.05 384.928 268.908C384.401 270.111 385.918 271.015 386.688 269.924C391.817 262.635 394.138 253.584 394.579 244.789C394.644 243.709 393.05 243.711 392.944 244.766Z" fill="#615845"/>
</svg>
