<svg xmlns="http://www.w3.org/2000/svg" viewBox="0 0 55.78 107.76"><defs><style>.cls-1{fill:#f3e5b0;}</style></defs><title>Asset 1</title><g id="Layer_2" data-name="Layer 2"><g id="Layer_1-2" data-name="Layer 1"><path class="cls-1" d="M0,34.08c.05,0,.1,0,.19,0l.15.05v0C.29,34.18.19,34.13,0,34.08ZM20.35,23.57v.05c0,.14-.19.24-.19.38-.24.15-.48.87-.81.91,0,.05-.05.1,0,.24-.15.05-.48.48-.68.44s-.05,0-.05,0,0,.05.05.1c-.19,0-.38.1-.33.29-.15-.05-.19-.1-.24-.1l-.15.19H18c.05,0,.05,0,.05.05l-.1.1s.1-.05.1-.1.1,0,.19-.05a1,1,0,0,1-.09.48.47.47,0,0,0-.29-.09h-.19c0,.05-.1.14-.25.24a.16.16,0,0,1,0,.14l0,.15h-.09a.38.38,0,0,1,.09-.24s-.19.09-.23,0,.09.1.14.1l-.1.1h.1s.05,0,.05.09c-.19-.14-.48.24-.53.24.1.48.43-.29.57,0,0,0,0,0,0-.05v0s0,0,0,.09c.15,0,.05-.19.2-.19h0s0,0,.05.1v0a2.72,2.72,0,0,1-1.34,1c0,.29-.39.15-.39.44-.09-.1-.43.14-.33.24a.29.29,0,0,0-.2.09c.05.15.2.19.39.05L15.84,29c-.05-.05-.05-.05-.09-.05a.57.57,0,0,1,.38.14v.05l-.05.05s-.14-.29-.14-.05v.05c.05,0,.05,0,0,.09-.24,0-.39.15-.39.34-.24,0-.38.14-.52.48,0-.05-.1-.05-.15.09s-.38.39-.43.53c-.24,0-.38.1-.38.24H14c-.14,0-.1.05-.1.1s-.14,0-.19,0,0,0,.05,0l0-.05s-.1,0-.24,0,.09.1.09.15a.81.81,0,0,1-.38.14v-.09a3.28,3.28,0,0,0-.58.19s.05,0,.15,0l-.05.05v0l.1.05s0,0,.09.05l-.09,0c0,.05.09.15.09.2l.34-.1c-.15.29-.29.39-.43.34a.69.69,0,0,1-.68.28s0,0,0,.1a.1.1,0,0,1-.09.1L17,33a13.46,13.46,0,0,0,1.54.29,13,13,0,0,1,2.11.43.91.91,0,0,1,.67.14c.24,0,1.25.34,1.68.34l.05.05.05,0c.24,0,.77.39,1,.24,0,.15.28.15.33.1A9.79,9.79,0,0,0,26,35c-.15.14-.34.14-.63.09a2.42,2.42,0,0,1-1,.24h-.05l-.05.1c-.43,0-.62,0-.67,0a.18.18,0,0,1-.15,0,2.82,2.82,0,0,1-1.68.33l-.14.15-.43-.15c0,.05-.1.1-.1.15-.43,0-.67.09-.81.33a20,20,0,0,1-2.21.2,4.61,4.61,0,0,1-1.54.28,9.37,9.37,0,0,1-1.63-.09c-.63,0-1.1.29-1.54,0a14.37,14.37,0,0,1-2,.1l-.09,0c-.05,0-.05,0-.05.1-.19-.2-1,0-1.1,0l-.15.15c-.09,0-.24,0-.48,0,0,0,0,0,.1,0,0,.39-.1,1.73-.05,2.31l0,.05c-.05,0-.05,0-.05.09a5.08,5.08,0,0,1,.1,1.44c.05,0,.05,0,0,0h0v0a2.2,2.2,0,0,1,0,.81h0v.1c0,.1,0,.14-.1.14.2.24-.19.87,0,1.11a.36.36,0,0,1-.2.09c0,.15-.09.34.05.34-.05,0-.05,0-.09,0A.74.74,0,0,0,9,44a.26.26,0,0,0,.15.19s-.05,0-.1,0H9a5.66,5.66,0,0,1,.24,2.11s.24.1.28,0c.15.19-.19.53-.14.72a.17.17,0,0,0,.14,0,14.69,14.69,0,0,1,.15,2l-.1.09a1.77,1.77,0,0,1,0,.91,5.51,5.51,0,0,1,.05,2c-.1,0-.15.1-.15.19a1,1,0,0,1-.24,0s0,.48-.24.48a.18.18,0,0,1,.05.15.47.47,0,0,0-.38.24v-.1s-.15,0-.34,0c0,0-.14.1-.09.24H7.68a.67.67,0,0,0-.1.29c.15,0,.2-.14.34-.1v.24s-.14,0-.34-.09c0,.24-.57.19-.62-.05l0,0,0,0s0-.09-.2-.09c0,.14,0,.33,0,.33H6.67s0,0,0,.05v.1c-.14,0-.24.05-.24.19s-.29.15-.43.1c.14-.24.19-.44.14-.53s-.24,0-.52,0a.94.94,0,0,0,.24-.34.53.53,0,0,0-.24,0c0-.15.09-.25.09-.29s0,0-.09-.1l-.15-.1,0,0c.05,0,.05,0,.1,0a3.87,3.87,0,0,0-.24-1.2c0-.19.38-.48.43-.67a11.3,11.3,0,0,0,.05-1.3l-.05,0V49.3a.26.26,0,0,1,.09-.19c-.14,0-.14,0-.14-.15,0,0,.1,0,.14,0s0-.15-.09-.1-.1,0-.1,0,.15-.1.19-.14,0,0-.09,0h-.1v-.05h0s.14,0,.14,0a.16.16,0,0,0-.14-.05s.1,0,.1-.09l-.05,0-.15-.19s.2,0,.2,0-.1-.05-.2-.05a1.85,1.85,0,0,0,.15-1h0s-.1,0-.1-.05,0-.28,0-.57c0,0,0-.29.09-.34-.09-.24.1-.53,0-.67,0,0,0-.05,0-.14s0-.2.1-.15v-.24a.62.62,0,0,0-.15.1c0-.19.34-.91.1-1.11h0l.05,0v-.29s-.05,0-.15,0a.34.34,0,0,1,.1-.24.28.28,0,0,1,0-.34c0-.05,0-.05-.1-.05,0-.19.1-.43.1-.57h0l-.09,0v0s-.1,0,0-.1,0-.05.09-.05A.76.76,0,0,1,5.57,42s0,0,.09,0c0-.14,0-.19-.09-.14s-.1-.91.09-1c-.14-.14,0-.72-.14-.91.19-.15.05-.63.1-.77s0,0,0,0v-.09h0a6.39,6.39,0,0,0,0-1.16s.09,0,.14-.09a1.17,1.17,0,0,1,0-1.06c-.1-.33,0-.77-.1-1.25,0,0-.19,0-.19,0s0-.09.19-.09v-.1a4.12,4.12,0,0,1-1-.24c-.1,0-.1.1,0,.1,0,.05,0,.05-.1,0s0-.1-.1-.1-.14,0-.14.19-.43-.14-.67-.19v0a.39.39,0,0,0,.29.1.06.06,0,0,1-.1,0H3.7c0,.1.09,0,.09.15a1.83,1.83,0,0,0-.86-.19v-.15c-.15,0-.19,0-.19.1l-1-.29a.18.18,0,0,1,.05-.15c-.24,0-.87-.28-1.06-.28s0,0,0-.1-.05.05-.09.05l-.24-.24c.14,0,.28,0,.28.1a.47.47,0,0,1,.34-.1s0,.1.05.1v-.1h.24c.05,0,.05,0,.05.1l-.05,0a.09.09,0,0,0,.09-.09c.15,0,.68-.15.92,0,0,0,0,0,0-.15a1.26,1.26,0,0,0,.53.15v.09a4,4,0,0,1,.72,0c0-.14-.38-.14-.43-.33s.19.19.34.14V34c.14,0,.48,0,.67.09s.09-.14,0-.24-.1-.05-.1-.09a.22.22,0,0,0,.24,0l0-.05,0,0c0-.14.24-.09.38-.14,0,.14.15,0,.29.09s.34-.43.48-.47l.34.09c.14-.05.09-.29,0-.34a21.54,21.54,0,0,0,.15-2.3c0-.05-.1-.1-.1-.14h.1c0-.2,0-1.39,0-1.73a1,1,0,0,0,.05-.39c0-.14,0-.19,0-.24s-.09,0-.09,0a11.28,11.28,0,0,0,.05-1.68s-.05-.1-.15,0A3.55,3.55,0,0,0,6,24.63v-.87l-.09-.09v-.1c.14-.05,0-.34.09-.38s0-.1-.09-.05c0-.58.09-2.59.24-3.6,0-.15,0-.19-.2-.19s0,0,0,.09c-.33,0-.67-.48-.91-.72,0,0,0,0,0-.09s0,0,0,0v0c-.24-.19-.48-1.1-.67-1.29,0-.15-.05-.48-.05-.63a5.8,5.8,0,0,1,.19-2.4,5.73,5.73,0,0,0,.92-1.15h.09c0-.19.67-.53.67-.87.15,0,.2,0,.2-.19a.91.91,0,0,0,.33-.38c.1,0,.19,0,.24-.14s0-.1,0-.1a.8.8,0,0,0,.2-.62A12.47,12.47,0,0,0,7.3,9.12a4.65,4.65,0,0,0,.19-1.44l0-.1a.18.18,0,0,0,0-.14,9.24,9.24,0,0,0,0-1.15A3.94,3.94,0,0,1,8.78,4.42c.24,0,1.06-.15,1.25,0a5.32,5.32,0,0,1,.91,0c.05,0,.1,0,.1,0a7,7,0,0,1,2,.81c.05.15.29.29.33.44a.4.4,0,0,0,.29-.15h.1c.86-.53,1.87-1.1,3-1.68A9.47,9.47,0,0,1,19,3l.1,0c.05,0,.05,0,.05,0a4.28,4.28,0,0,0,.52-.1l1.06-.14L22.47,3a4,4,0,0,0,.62.19,1.51,1.51,0,0,0,.38.14,7.53,7.53,0,0,1,2.93,4c0,.15.15.49.1.63a2.7,2.7,0,0,1,.05,1l0,.05.05,0a.5.5,0,0,0,0,.38c.15.05.05.68.1.87s0,.86-.19,1c.14.19-.1.57-.05.77a.11.11,0,0,1-.15,0s0,.14,0,.28c-.19.05-.19.58-.33.72,0,.15-.15.34-.1.48a.16.16,0,0,0-.14,0,1,1,0,0,1-.24.82v.24h-.1l-.34,1s0,0-.09,0h0c0,.19-.34.72-.38,1h-.1c0,.24-.48.67-.48.91-.05,0-.05,0-.1.05s0,.09-.14.09-.14.19,0,.34l-.19.14c0,.05.05.15.19.29s-.19.29-.19.43c-.19-.05-.19.24-.39.24v.1a.1.1,0,0,0,0,.14c-.24,0-.57.87-1,1v.19h0c-.05.05-.05.05-.1.05.1.38-.14.58-.34.91H21.6c-.19.34-.29.48-.33.48,0,.19-.44.43-.48.77h-.05s-.1.24,0,.14l-.15.15c0,.05.1.14.1.19s-.1.05-.1.14h-.14c.05.1.05.15-.1.15ZM1.1,34.51s0,0,0,0S1.1,34.47,1.1,34.51Zm.34-.43c0,.05-.05.05-.1.05S1.39,34.08,1.44,34.08Zm.05.53c.05,0,.14,0,.19,0S1.49,34.56,1.49,34.61Zm1,.19a.13.13,0,0,0,.14-.14,2,2,0,0,0-.72-.24c-.14.14-.14.19,0,.19C2.26,34.61,2.45,34.66,2.5,34.8ZM2,33.55l-.05.05C1.92,33.55,1.92,33.55,2,33.55Zm.19,0-.05.05Zm0,1.2s0,0,0,0S2.21,34.71,2.21,34.75Zm.14-1.2c0,.05-.09.05-.09,0Zm.39,1.54V35H2.69v.09Zm.76,0,0,0v0Zm.77-.67c.05,0,.19,0,.48,0v-.14a3.79,3.79,0,0,0-1,0C3.84,34.47,4.22,34.42,4.27,34.47ZM4.32,34s.1,0,.1,0h0c0-.15-.33-.1-.19,0Zm0,1.48v-.14S4.37,35.48,4.32,35.52Zm.1,0h0Zm.14-.24h-.1v0S4.56,35.28,4.56,35.33Zm.05.1h0Zm.38-1c0-.05.1-.1,0-.14s-.24,0-.24,0S4.9,34.47,5,34.42ZM4.9,50.79l-.05.05Zm.19-15.27s0,0,0,0-.15,0-.15-.09Zm.29,0-.1,0,0,0C5.38,35.43,5.42,35.48,5.38,35.52Zm.43,1.4.05,0h0S5.86,37,5.81,36.92Zm.14.14h0s.1,0,.1-.05Zm.19.1v0h.15l0,0s-.14,0-.14,0Zm.2,1.53-.1-.09v.19Zm.14-1.34h0Zm.19,2.59c0,.14,0,.14-.09.1h-.1v.19c.24.09.53,0,.67,0s-.33.14-.33.19.19.48,0,.48a.15.15,0,0,1,0,.29,1,1,0,0,1,.1.53c0-.15.24,0,.19.19a3.85,3.85,0,0,0,.19-1.1H7.15c-.05-.15-.05-.24,0-.29a.35.35,0,0,0,.1.19,2.45,2.45,0,0,0-.1-.86.15.15,0,0,1-.19,0s.09,0,.24,0,0-.14,0-.29c-.19,0-.29,0-.29-.19a.4.4,0,0,1-.33.14s.14.2.09.39h.15s0,0-.05,0l-.1,0s0,0,0,.1Zm-.09-2.26a.43.43,0,0,1,.24.24c-.2,0-.05.2,0,.2s-.1.14-.15.14c.15.19,0,.38.1.53,0-.15,0-.19.05-.19s0,.19,0,.33h0c0-.24,0-.33.1-.33,0-.05-.1-.1-.1-.15L7,38.4s0,0,0,0a.06.06,0,0,1-.1,0c0-.1,0-.15.1-.19l-.1-.1a2.52,2.52,0,0,1,0-.58l-.38-.09.09.09h0Zm0,3.94c0,.05.1.05.2.05s-.05-.1-.15-.1h.19a.25.25,0,0,1,0-.24h0a.18.18,0,0,0-.15,0v.29S6.62,41.57,6.62,41.62Zm.15.43c.05,0,.05,0,.05-.14H6.67C6.67,42,6.72,42.05,6.77,42.05Zm0,.15s0-.05-.1-.05v.19C6.67,42.29,6.77,42.24,6.77,42.2Zm.05,1h0s-.09.29,0,.29a.9.9,0,0,1,.1-.43c-.15,0-.15-.43-.34-.48a.3.3,0,0,1,0,.29s0,0,.1-.05h.05v.29s0,0,0,.09ZM6.72,39v.09c0,.05,0,.05,0,.05Zm.1-1.59v.15c0-.05,0-.05-.05-.05l0-.1Zm0,2.55h-.1v-.05S6.82,39.94,6.82,40Zm.09,3.79v.1s0,.09,0,.14,0-.05,0-.1v0c.15,0,.19,0,.19,0l0,.2-.15.19c.1.24.1.43,0,.48A.21.21,0,0,1,7,45C7,45,7,45,7,45l0,0c.19-.15.28-.53.09-.68v-.19c.1-.05.15-.09.1-.19V44l.09.05a.67.67,0,0,1,.1-.29s0,.05,0,.1v.05c0-.05,0-.05.09-.05V44H7.44s.1.14,0,.29c.19-.15.19-.48.24-.63s-.1.1-.24.1v-.05s0-.09,0-.09l0,0s0,0,0,0c.15-.24.15-.38,0-.48.15,0,.2,0,.2-.09-.15,0-.29.24-.34.24s-.05-.15-.1-.1,0,.1,0,.15l0,0C7.1,43.68,7,43.78,6.91,43.78ZM7,39.89l0,.1H7s-.1,0-.1,0v-.1l0,0S7,39.84,7,39.89ZM7,42c0-.05,0-.1,0-.1v0C6.91,42,6.91,42,7,42Zm.1-1.54h0Zm0-2.93a.08.08,0,0,0,.14,0Zm0,1.83c.14,0,.24-.24.09-.29,0,.09,0,.09-.09,0ZM7,41l.09-.05H7s0,0,.19,0S7.06,41.09,7,41Zm0,.29v-.15S7.06,41.14,7,41.24Zm.48,5.13v.1c0,.05,0,.05.09.05a1.88,1.88,0,0,1-.19-.58h.1c0-.19-.34-.1-.34-.24,0,0-.05.14-.09.1.14.24.09.43,0,.52h0s0,0,.09,0v.05l.15-.48v.58s0,0,0,.09S7.34,46.37,7.49,46.37Zm-.34-6.81H7.06v-.1A.11.11,0,0,1,7.15,39.56Zm-.09,8.06.09.05s.1,0,.1,0,0,.28.09.28,0-.38,0-.38v0Zm.09-10.08s.1,0,.1,0S7.15,37.49,7.15,37.54Zm.24-8.83v-.1l-.09.05,0,.05ZM7.25,43.49v0ZM7.34,29V29c0,.05,0,0,0-.09Zm0,8.54s0,0,0,0c.15,0,.19,0,.19-.05s-.19,0-.19.05Zm.15,9.27,0,0h-.1v.53C7.54,47.19,7.44,47,7.49,46.76Zm0-1.68c0,.14,0,.19.1.19a.34.34,0,0,0,0-.19v-.15H7.49V45S7.49,45.08,7.44,45.08Zm0,.38s0,0,0,0Zm0,.14v0Zm.14-7.53s0,0,0,0,0,0,0,.09S7.58,38.21,7.58,38.07Zm-.09,6.72h0Zm.09-6.39v-.14h0v.14Zm0,6.87a.39.39,0,0,1,0,.14C7.63,45.32,7.63,45.27,7.54,45.27Zm.62-7.92a1.24,1.24,0,0,0-.58.14s.15,0,.24-.05a.78.78,0,0,0,.15.44c0-.05,0-.39.19-.53h0ZM8,38.45a.18.18,0,0,1-.15-.05v.15S8,38.5,8,38.45Zm-.15.63a.27.27,0,0,0,.19,0V39c0-.05,0-.05.1-.05a1.16,1.16,0,0,1-.05-.43c0,.05-.09.05-.24.09C7.92,38.93,7.92,39,7.87,39.08Zm.1-1.4h0S8,37.73,8,37.68Zm.38-.43c.05,0,.19,0,.19,0S8.4,37.2,8.35,37.25Zm.1,16.08c-.1,0-.1-.09,0-.14h.1A.16.16,0,0,1,8.45,53.33Zm.33-16.08c-.09,0-.14,0-.14,0S8.78,37.3,8.78,37.25Zm.05,4.13v-.19c-.09,0-.14.05-.14.09Zm-.09-.86a.1.1,0,0,0,.09.09A.1.1,0,0,0,8.74,40.52Zm.14-.1a.11.11,0,0,0-.1-.1v.1Zm-.05,0h.1S8.83,40.42,8.83,40.47Zm.1-.15h0Zm.33-3.16-.09.09Zm0,9.31v.19C9.36,46.61,9.36,46.56,9.26,46.47Zm.1-9.31h0Zm.1,10.12v0h-.1v0ZM10,29.71a.26.26,0,0,0,.29-.19c0-.05.24.05.24-.09s-.05,0-.05-.05a2,2,0,0,1,.34-.1v-.19C11,29,11,29,11,29c.24-.05.72-.53,1-.58-.05-.14,0-.14.14-.1a.53.53,0,0,1,.29-.33c0-.05,0-.05,0-.1v-.05c.15.05.2.05.24,0a.11.11,0,0,1-.09-.1c.14,0,.57-.1.62-.29l0-.09c.1,0,.14,0,.19-.05s-.09,0-.19-.15c.05,0,.14-.14.19-.14.24.1.29-.1.48-.29,0-.05,0-.05,0-.05s-.05,0-.05-.09c.24-.1.48.09.57-.15h-.09s.14-.14.09-.19-.09-.05-.09-.14a.5.5,0,0,0,.28,0c0-.05,0-.1.05-.15s.05,0,.05,0h.15a.61.61,0,0,1,.47-.34v0s-.09-.05,0-.09h.19c0-.05-.15,0-.1-.15.15.05.24,0,.34-.14h-.1a.16.16,0,0,1-.14,0c.24-.1.38-.24.34-.38l-.15,0,.05,0c.14,0,.1-.05.1-.1H15.7c-.1.1.05-.14.05-.1v.05h.09c0-.05-.05-.05-.09-.05s0-.19,0-.19h.1c.19.15.34.1.48-.24.24,0,.29-.29.38-.38s-.14-.1-.19-.1a2.58,2.58,0,0,1,.34-.05c0-.14.38-.48.33-.67l-.09.1c-.05,0-.05,0-.1.05L17,22.9a.11.11,0,0,1,.1-.1h.05v-.05c.05,0,.09,0,.14-.09v-.1h.1a.14.14,0,0,1,.19,0c.05-.24.1-.33.05-.38a.32.32,0,0,0,.43-.29c-.05,0-.1.1-.14.05l-.05-.05v-.1a.66.66,0,0,1,.29,0,2.8,2.8,0,0,0,.52-.81h-.24a.27.27,0,0,1,.24-.15c0-.14,0-.24,0-.28s.15,0,.34-.1l0-.05v-.09c.14,0,.19,0,.24,0s-.24,0-.29-.05l.29-.1v0H19.2c-.19,0-.09,0,.29-.24,0,0-.1,0-.14,0s0,.05-.05.05-.1-.05-.05-.09h.1l-.05,0c0-.05,0-.1.05-.1s0,.05.09.05,0-.24-.05-.29a.45.45,0,0,0,.29-.09c.05-.05,0-.1-.05-.15a.24.24,0,0,1,.15-.09c0-.24.53-.82.57-1s.24-.53.44-.58a2.5,2.5,0,0,1,.38-.72.16.16,0,0,0-.05-.14.26.26,0,0,0,.19-.29h.1c.24-.62,1.1-2.06,1.34-2.64v-.05s0,0,0-.1.09,0,.09-.19a.22.22,0,0,0,.1-.19c.05,0,.09,0,.14-.09A.1.1,0,0,1,23,13s.19-.14.24-.29h-.1c.05-.14.14-.19.19-.14s-.09-.1-.09-.15.19,0,.19,0a.11.11,0,0,0-.1-.09v0a.11.11,0,0,0,.1-.09c-.15-.15.24-.53.24-.77a1.07,1.07,0,0,1,.09-.39c.63-2.25.63-3.74.05-4.46a6.82,6.82,0,0,0-2-.19s0,0-.05,0c-.24,0-.67.2-.87.15s-.62.29-.76.33h-.15a.63.63,0,0,1-.57.24,5.83,5.83,0,0,1-1.16.58c0,.05,0,.1,0,.1-.39.19-1.25.91-1.59,1.1a.16.16,0,0,1,0,.14,10.42,10.42,0,0,0-1.58,1.16c-.63.53-1.06.91-1.35,1.1a2.59,2.59,0,0,1-.62.63c-.05.19-.62.67-.58.91A2.17,2.17,0,0,0,12.19,14c-.14,0-.09.62-.24.67.05.58-.62,1.35-.62,1.78a3.27,3.27,0,0,0-.39,1.63c-.14.34-.14.53-.09.58A8.68,8.68,0,0,0,10.61,20v.34s-.1.09,0,.14a6.78,6.78,0,0,0-.05,1h-.09a7.8,7.8,0,0,1-.2,1.54,2.63,2.63,0,0,1-.14,1.2,1,1,0,0,1-.1,1A2.12,2.12,0,0,1,10,26c0,.48,0,.77,0,.81s-.1.05-.1.1A20,20,0,0,1,9.7,30c.14,0,.19-.09.19-.14Zm-.29,2.41a.45.45,0,0,0,0,.33,2.32,2.32,0,0,1,.53.1,1.18,1.18,0,0,1,.19-.43c0,.14.25,0,.29,0a.83.83,0,0,0-.48-.09v.14a.16.16,0,0,0-.14-.05c-.05,0-.05,0-.1,0a.52.52,0,0,0,.34-.24.51.51,0,0,1,.24,0c0-.14.19-.09.24-.09v-.2l-.19-.09c0,.14-.34.14-.34.19s.14,0,.19.05c-.48.1-.72.19-.72.29.15,0,.19-.1.24-.1A.29.29,0,0,1,9.74,32.12Zm.2-1.49h0v-.1s0,0,0,.1,0,0-.1-.05-.05,0-.1,0l0,.05Zm0-.77h0Zm-.05,0v0Zm.87,1.3V31c-.15,0-.49-.09-.73-.09,0,.05,0,.05,0,.09Zm-.68.47c.1,0,.15,0,.15-.09s-.2,0-.2.05Zm.1-1.15v-.09H10v.09ZM10.08,32h0Zm.24-.86c-.05.05-.05.05-.1,0l-.14-.05c-.05.14.1.1.1.14S10.32,31.16,10.32,31.11Zm-.1.86h0Zm.2-1.78a.74.74,0,0,1-.24,0v.09S10.42,30.34,10.42,30.19Zm0,2.31s.09,0,.09,0S10.42,32.45,10.42,32.5Zm.24-2.35c.09,0,.14,0,.14-.15s-.24,0-.29.05Zm-.05,2.35c.05,0,.1,0,.1,0S10.61,32.45,10.61,32.5ZM10.94,30v-.1h-.09V30Zm-.09,2.54c.05,0,.05,0,.05,0Zm.19,0v-.1h-.1v.1ZM11.18,29c.05,0,.1,0,.1-.05S11.18,29,11.18,29Zm0,1.77c0,.05,0,.05.05,0Zm.24-.19s0,0-.14-.1v.1Zm.25.62-.05.05h.24v-.19c0,.05,0,.05-.15.05S11.71,31.16,11.67,31.2Zm.81-.91c-.14-.05-.34-.1-.38.05C12.24,30.39,12.48,30.34,12.48,30.29Zm-.05,1.34v-.09h0v.09Zm.29.29c.1,0,.15-.09.15-.19,0,.15-.15.1-.15.15S12.77,31.88,12.72,31.92Zm.24-.57s-.05,0-.14,0S12.87,31.35,13,31.35Zm.19-4c-.05,0-.09,0-.09-.05S13.15,27.31,13.15,27.36Zm0,1.83,0-.05c-.05-.05-.05-.05-.09,0v.09C13.15,29.23,13.2,29.23,13.2,29.19Zm.05-.15a.06.06,0,0,1,.05.1s.14-.19.19-.19-.24,0-.29,0S13.2,29,13.25,29Zm.19,2v-.14c-.14,0-.14.14-.19.14S13.34,31.11,13.44,31.06Zm.1-1.73h-.15a.18.18,0,0,0,.15.05Zm0-.43V29a1.72,1.72,0,0,1,.33-.24A.84.84,0,0,0,13.54,28.9Zm.38,1.82c-.05.05-.09.05-.19.05s-.1.05-.15.1C13.78,30.87,13.87,30.82,13.92,30.72Zm-.09-3.93h0Zm.43,3.6c0-.15-.39-.1-.39,0C14,30.48,14.11,30.39,14.26,30.39Zm-.19-4.08s.09-.1.14,0S14.16,26.31,14.07,26.31Zm.28,3.79V30h-.09v.19S14.3,30.1,14.35,30.1Zm0,.19v-.14l0,0v.1Zm.19-4.13h0Zm.15,4.08s-.15-.14-.15-.19a.36.36,0,0,1,0,.24A.18.18,0,0,0,14.69,30.24Zm0-2.54c.05,0,.05-.05.05-.1h-.1q-.15.15,0,.15C14.64,27.7,14.64,27.7,14.69,27.7Zm-.1-1.92v0h.05Zm.2,4.27s-.1-.09-.15-.09v.09Zm0-.19a.1.1,0,0,0,.09-.1A.11.11,0,0,0,14.74,29.86ZM15,25.3l-.1.05v-.1h0Zm-.05,4.08h0Zm.38.14v-.09h-.19S15.17,29.52,15.31,29.52Zm0-.19c.19,0,.24-.1.19-.24s0,0-.09.05a.06.06,0,0,1-.1.05s0,0,0-.05-.14,0-.19.05h.14Zm0-4.27v.09h-.09v-.09Zm.24-.29h-.09C15.46,24.72,15.55,24.72,15.55,24.77Zm.2,4.27-.05.05s0,0-.1-.05a.27.27,0,0,1,.19,0v0l0,.05Zm-.1.24s0,0,0-.05S15.65,29.23,15.65,29.28Zm.1-.19h0Zm.24-1-.1-.1s-.19.29-.14.34Zm-.05-3.65.09-.09h-.14S15.89,24.43,15.94,24.48Zm0,4.66v0Zm.48-5.23a.15.15,0,0,0-.1-.05C16.32,23.91,16.37,23.91,16.42,23.91Zm-.05,3.93c.05-.05.05-.05.05-.09h-.1v.09Zm.29-.24-.24.15C16.61,27.6,16.71,27.55,16.66,27.6ZM17,23h0Zm.34-.38a.16.16,0,0,0,.05.14C17.38,22.71,17.38,22.66,17.33,22.66Zm.19-.39.05.05-.19.15s.09-.15,0-.2Zm-.1,5.24v-.05h0v.05Zm.44-1.11c-.05,0-.29,0-.29.05S17.81,26.45,17.86,26.4ZM17.76,22l-.09,0S17.71,22,17.76,22Zm-.09,5.14h0Zm.24-1c-.15,0-.2.15-.15.19S18,26.21,17.91,26.16Zm.19.29c0-.05-.05-.1-.19-.1v.1C17.91,26.5,18.05,26.4,18.1,26.45Zm.33-.86h.15v-.1h-.1c0,.05,0,.05-.05.05Zm.1-.68V25s0,0,0-.05,0,0,.09,0l0-.05a.48.48,0,0,0,.24.09c0-.14,0-.24.05-.28a.66.66,0,0,0-.43.28Zm.29-4.12-.1.09C18.72,20.83,18.82,20.83,18.82,20.79Zm.05,4.41c-.1,0-.15,0-.15.05S18.87,25.3,18.87,25.2ZM19,20.31c-.05,0-.05,0-.05,0Zm.58,3.88c-.15,0-.24,0-.24.15S19.54,24.29,19.54,24.19Zm-.15-4.51h0ZM20,19C20,19,20,19,20,18.91l-.1.1Zm.77,4.27s0-.05,0-.14A.09.09,0,0,1,20.74,23.28Zm.38-.38H21v-.1C21.12,22.8,21.17,22.85,21.12,22.9Zm.19-.39s0-.09.1-.09l.14.09ZM22.47,21s-.1,0-.1,0Zm1.2-2.5s0,0,0,0S23.67,18.48,23.67,18.53Zm.38-.58h.05c-.1.1-.19.1-.24.05s.05-.09.09-.09S24,17.91,24.05,18Z"/><path class="cls-1" d="M40.94,27.41l0,.05c.38-.05.67-.58.86-.63,0,0,.05-.24.05-.28h.09s.05,0,.1,0,0,0-.1,0,.1-.15.05-.2c.15,0,.53-.38.77-.33.05,0,.05-.15.19-.15.05-.19.43-.43.58-.57l0,.05a2.93,2.93,0,0,1,.86-.48l.1-.2s0,0-.1,0h0a.63.63,0,0,1,.48-.48s-.09,0,0,.2c.14,0,.24-.24.38-.24v0c.09-.09.14-.14.19-.14s0-.05-.1-.05c.29,0,.2-.38.53-.14-.14-.05-.24.05-.29.05.1.24.29-.05.49-.05l.14-.15h0c0,.05,0,.05.09,0a.34.34,0,0,0,.1-.24c.05,0,.09.05.09.15s0-.05,0-.1.48-.09.53-.09.1-.1.1-.15c.19.15.43-.24.48-.09s.05,0,.05-.05l0-.05c.15,0,.77-.14.82,0a.38.38,0,0,1,.53.05.65.65,0,0,1,.67.05,1.57,1.57,0,0,1,.29.09v0H50c.05.05.1,0,.14,0a.34.34,0,0,1,.24.1c0,.09-.09.09-.19,0s.24.09.24.24a2.19,2.19,0,0,0-.38-.1,2.12,2.12,0,0,0,.57.34c0,.09.24.19.34.29v.09c0,.05-.14,0-.19,0l-.1,0c0,.14.29.14.29.28s0,.05.1.05.19.24.19.39a2.37,2.37,0,0,0-1.06-.72,1.8,1.8,0,0,0,.53.28.18.18,0,0,1,0,.15c.29,0,.43.38.58.53,0,0-.1,0-.15-.1s-.09-.1-.14-.1v.15l-.34-.29H50.5c0,.05.19.34.38.38a.15.15,0,0,1-.05.1l0,.1a1.46,1.46,0,0,0-.68-.34l.48.34A2.85,2.85,0,0,0,49.11,25c0,.05-.15.05-.15.1a1.42,1.42,0,0,0-1.15.38h-.14c-.05,0-.05.19-.2.15.05-.05.05-.1-.09-.1a.1.1,0,0,1,0,.14.74.74,0,0,0-.67.29c-.15,0-.49.29-.82.24,0,0,0,.05-.1.15l-.14-.1c0,.05,0,.05,0,.1a.16.16,0,0,0-.05.14c0-.05,0-.05,0-.05-.19.34-.38.39-.52.24,0,.1,0,.15,0,.19h.29A.55.55,0,0,1,45,27a2.6,2.6,0,0,1-.77.53,1.74,1.74,0,0,1-.77.62c0-.05,0-.05,0-.05v0l.19-.09a.25.25,0,0,0,.2-.24,1.12,1.12,0,0,0,.76-.58c0-.05-.09-.05-.14,0h0l-.05.05c.05,0,.05.1,0,.1s-.19.09-.24,0c0,.2-.62.48-.67.72a.82.82,0,0,1-.48.29l-.14.29a4.79,4.79,0,0,0,.57-.53h0c0,.05,0,.05,0,.05-.19.19-.29.29-.34.29a2.51,2.51,0,0,1-.81.77c-.15.19-.24.28-.39.28a.91.91,0,0,1-.52.63s0,.09,0,.09a2.44,2.44,0,0,0-.72.77c-.14,0-.24.2-.28.2a5.8,5.8,0,0,1-.39.62,1.3,1.3,0,0,0,.15.34,1,1,0,0,1,.33-.29c-.14.05-.29.38-.33.43a.59.59,0,0,1,.14.24s-.1,0-.1,0,.05.24.1.24c0,.24.38.91.43,1.1l1,1.82c0,.39.58,1.25.58,1.59a19.43,19.43,0,0,1,1.05,7,5.21,5.21,0,0,1-.14,1.2,2.84,2.84,0,0,1-.1.86h.1c0,.05-.05.1-.1.15s-.09.24,0,.28-.1.2-.05.34-.15.1-.15.19.1.05,0,.19l-.09.15c0,.09,0,.14,0,.19l-.1,0-.05.05c0,.14.1,0,.1.19h-.14c0,.05,0,.05,0,.05s.05,0,.05,0a.11.11,0,0,1-.09.1l0,.1c-.14,0,0,.33-.24.33V49a.37.37,0,0,0-.28.1h.19s0,.1-.1.24H42.1s.09,0,.09.05a.92.92,0,0,0-.48.19c0-.14,0-.19.15-.19a7.62,7.62,0,0,0,.52-1c0-.24.1-.43.1-.58-.24,0-.38.67-.58.72v.1l.05,0a.47.47,0,0,0-.24.14s.1,0,0,.19-.19.34-.38.34c0,.09,0,.19-.15.33l-.09.1a.25.25,0,0,1-.2.14c0,.2-.43.44-.38.63a.4.4,0,0,1-.29.09c-.05,0,.1.1.1.15s-.19.14-.24.14c-.15.34-.87.67-1,.91-.14,0-.24.24-.38.29s-.34.19-.44.29h-.14a1.57,1.57,0,0,1-1,.48c-.14,0-.19.05-.19.19s-.58.24-.82.2a.35.35,0,0,0-.19.19v-.15l-.77.53c-.14-.24-.52,0-.72-.1a6.29,6.29,0,0,0-.76.24c-.05,0-.05,0-.05,0l0-.05c-.14.14-.29.19-.38.09a1.08,1.08,0,0,1-.53.25s0,0,0-.1a1.92,1.92,0,0,1-.58.05q0-.08-.57-.15l.09,0h.05s-.09,0-.33,0a.2.2,0,0,0-.29-.1c-.24-.1-.43-.43-.72-.43v0c.05,0,.09-.05.05-.09s-.34-.2-.48-.15-.05-.1,0-.19h-.2l-1-1v-.1c-.15,0-.34-.48-.53-.43v-.14H28c0-.05-.53-.48-.29-.72-.19,0,0-.58,0-.63s0-.24.19-.24c-.15-.14-.1-.43-.15-.57s-.14.19-.19.14.15-.48.1-.48-.15,0-.15.19c-.14,0-.09-.24-.14-.38l.1-.1A.53.53,0,0,1,27.6,48a1.55,1.55,0,0,1,.29-1v-.39c-.05-.14-.15,0-.19,0s0-.24-.05-.29c.14,0,.14-.29.09-.43.2.1.2-.38.39-.38h-.05s0,0,0-.05.15-.39.19-.43h-.09l.38-.48c.1,0,.15,0,.1.09s.05.05.05,0v0h0c-.14,0,0-.24,0-.28l-.05,0c-.05,0-.05,0-.1,0l-.05,0c0,.05,0,.1,0,.1v-.19c.33-.05.57-.24.52-.48l0,0,.05,0c-.05,0,0-.15.05-.24l.09-.15a.1.1,0,0,0-.14,0l-.1.1c0-.14-.14,0-.14-.19a.16.16,0,0,0,.14-.05.09.09,0,0,1,.15,0c.05,0,.05-.1.05-.19s.14-.1.19-.1.05-.14.19-.24h-.05c0-.05,0-.05,0-.09s.19-.48.34-.53v-.1s-.1,0-.15.05c0-.34.15-.48.48-.48v0l.1-.09.1-.15s0,.1.09.1a2.51,2.51,0,0,0-.09-.29c.09-.19.14-.29.19-.29s-.1.15-.1.19.1,0,.15,0h0c.05,0-.14,0-.09-.1s.19-.19.24-.19c-.15-.15.09-.29-.05-.34.19,0,.29-.09.29-.33.19-.15.24-.48.38-.53a.16.16,0,0,0-.05.14c.24,0,.29-.57.44-.67h-.1c-.05,0,0,0,.05-.1a.16.16,0,0,0,.05-.14c-.1,0-.15,0-.15.19-.19-.29.19-.19.39-.38-.05,0,.19-.19.14-.34h.05s0,0,.09,0,.05-.1,0-.14.05-.1.15,0c-.05-.15.14-.34.09-.53.2,0,.63-.58.68-.62s0-.05,0-.1h.14c0-.19.63-.62.48-1,.05,0,.19,0,.39-.1,0-.09,0-.14-.1-.14l.19-.14c-.05,0-.05-.1-.09,0s-.15.14-.2.14.15-.09.1-.24c.1,0,.24-.14.48-.43h.29s0,0,0-.05,0,0,0,.05h-.19c0-.05,0-.14.09-.19l.15-.15c0,.05.28,0,.28-.14s0,0,0-.09,0-.24,0-.34c.24.05.44-.39.48-.43h0s0,0,0-.1a.27.27,0,0,1,.19,0s0-.09,0-.19a.79.79,0,0,0,.48-.48c.1.05.14,0,.19,0h-.09s0-.09.09-.09,0,0,.1,0a11.29,11.29,0,0,0-.72-1.25,4.56,4.56,0,0,0-.72-1.15c-.05-.19-.43-.63-.48-.87,0,0,0,0-.1,0a9.72,9.72,0,0,1-.86-1.3c0-.05,0-.05-.1-.05l0-.05-1.44-2.2c0-.05,0-.2,0-.24H32a33.21,33.21,0,0,1-2.5-6.24A9.18,9.18,0,0,1,29.33,18a4.07,4.07,0,0,1-.1-.86c0-.05,0-.05-.05-.05a2.78,2.78,0,0,0,0-.91c.1-.19.1-.34.05-.38a2.3,2.3,0,0,0,.05-.53c.14,0,.19,0,.19-.05h-.09c-.05,0-.05,0-.1-.05a2.87,2.87,0,0,0,.19-1c.15-.05.19-.33.15-.38.14,0,.19-.43.33-.43v0a.06.06,0,0,1-.05-.1c.05,0,.15.1.2.05s0,.1,0,.14c.2-.19.34-.91.48-1.1s.48-.87.63-1.06l.09,0a4.51,4.51,0,0,1,.82-1.06,2,2,0,0,1,.62-.72v-.1a11.15,11.15,0,0,1,1.59-1.58c0-.05,0-.05,0-.1.19,0,.29-.09.29-.24A2.39,2.39,0,0,0,35,7.3c.15,0,.48-.44.67-.58a1.86,1.86,0,0,0,.39-.43c1.15-.77,2-1.35,2.59-1.68l.1-.1.72-.33a22.14,22.14,0,0,1,2-1.11l1.63-.81a1.83,1.83,0,0,0,.77-.39c.58-.05,1.44-.62,2-.67a18.55,18.55,0,0,1,3-1.06s.43,0,1.1-.14A8.38,8.38,0,0,0,51,.1c.14,0,.38.28.57.33s.1,0,.1,0,0,0,.05,0A20.72,20.72,0,0,1,54,3.07,7.49,7.49,0,0,1,55.2,4.56c-.05.19.15.29.15.48a5,5,0,0,1,.33.67,4.65,4.65,0,0,1,.1.77,2.17,2.17,0,0,1-.58.43,1.15,1.15,0,0,1-.86-.33h-.15a9.84,9.84,0,0,1-1.77-1.16.4.4,0,0,1-.19,0l-.2,0a1.25,1.25,0,0,1-.81,0h-.43a1.57,1.57,0,0,1-.29.09h-.67s-.25.15-.39.1,0,.05,0,.05l0,.1a.18.18,0,0,0-.15,0h-.05a2.69,2.69,0,0,1-1.34.19c-.1.14-.39.24-.86.24a2.24,2.24,0,0,1-1.2.38l-.1.05s0,0,0,.1h-.19a6.66,6.66,0,0,1-1.35.62,2.43,2.43,0,0,1-.86.38l-.1.15c-.24-.05-.62.38-.81.38l-.19.1a8.12,8.12,0,0,0-1.16.62v.1l-.28.14a1.94,1.94,0,0,0-.87.58,1.29,1.29,0,0,0-.81.53h-.15c-.14,0-.29.24-.43.53-.38.14-.82.71-1.15.86-.15.19-.67.53-.82.77h0s-.28.19-.33.33c-.19-.05-.24.34-.39.29-.14.34-1,1.15-1.15,1.54a.19.19,0,0,1-.14,0c.05.15-.1.39-.24.34A12.28,12.28,0,0,1,33.55,16l0,0h0c0,.15-.2.29-.15.48a3.89,3.89,0,0,0-.38.87,2.74,2.74,0,0,0,0,1.53v.24a3.44,3.44,0,0,1,.19.53v.1a15.56,15.56,0,0,0,.58,1.68v.14l.86,2a1.51,1.51,0,0,1,.29.58c.19.38,1,1.48,1.25,2,.33.34,1,1.35,1.2,1.68a.18.18,0,0,0,0,.15l0,0c.39.39.92,1.59,1.25,2,.15-.14.24-.19.24-.38a.29.29,0,0,1,.19-.05c0-.05.24-.24.2-.38a4.88,4.88,0,0,0,1.1-1l0-.05V28c.09,0,.14,0,.19-.14s0-.05,0-.1a.41.41,0,0,1,.19-.09,1,1,0,0,1,0-.24s.2-.15.24-.15H41C41,27.36,41,27.36,40.94,27.41ZM27.7,46.85V46.8l0,0A.16.16,0,0,1,27.7,46.85Zm.14,3.7-.05,0v0Zm.38-4.61,0-.14v0l-.05.1Zm.05-.77c-.14.15-.19.29-.05.34S28.42,45.17,28.27,45.17Zm.24-.09c-.05,0-.09,0-.09,0S28.46,45.12,28.51,45.08Zm.39-1.44s0,0,0,.09,0,.05,0,.1h-.15s.1-.15.05-.19Zm-.1.72v-.1h-.05v.1Zm.72-2.26c0,.1-.05.14-.14.1a.36.36,0,0,0,0-.2Zm-.05-27c.05,0,.1,0,.1,0a.79.79,0,0,1-.05-.24c.05,0,0,0-.1,0A.17.17,0,0,1,29.47,15.07Zm.05.1a.17.17,0,0,1,.05.14A.16.16,0,0,1,29.52,15.17Zm.05-.53c.05,0-.05.1,0,.15S29.62,14.64,29.57,14.64Zm0-.19c0,.09.05.14.09.14S29.62,14.45,29.57,14.45Zm.14-.43a2.39,2.39,0,0,1-.09.38C29.76,14.35,29.86,14.07,29.71,14Zm.15-.44c0,.05-.2.34-.05.39S29.9,13.58,29.86,13.58Zm.19,28,.05,0h0v0S30.1,41.62,30.05,41.57Zm.09-28.42h0v-.09s0,0,0-.05Zm0,0h0Zm0,28.28v0Zm.24-28.85h0Zm.1-.15-.05.05c.05,0,.05-.05.05-.14Zm.29-.43h0Zm1.15,33.22v.05l0-.05.05.05a6.46,6.46,0,0,0-.34,1c-.05,0-.1.34-.24.34a2.6,2.6,0,0,0-.05.62h.19s.05.1.05.15a.58.58,0,0,0-.29,0c0,.14.2,0,.15.14s-.1,0-.24,0H31.2c.05.1.1.15.14.15h-.19V48c.24.14.24.48.05,1.1a.4.4,0,0,1,.14.29l-.24-.19c-.09.33,0,.57.1.67,0-.29.05-.43.14-.48,0,.29,0,.43.05.48s.24.05.29,0,.1.14.24.14v0l.19.2c.15,0,.29-.2.34-.2v0s0,.1,0,.1,0-.15.09-.15,0,.15,0,.15.29.14.34,0a1.08,1.08,0,0,0,0,.38,5,5,0,0,0,2.5.15A5.32,5.32,0,0,0,36.67,50h0l.1,0a7,7,0,0,0,2.49-3.16,3.05,3.05,0,0,0,.39-1.11,5.41,5.41,0,0,0,.19-.57,14.75,14.75,0,0,0-.1-5,3.8,3.8,0,0,1-.09-.53,4,4,0,0,1-.1-.53,23.63,23.63,0,0,0-1-2.45c0-.19-.24-.57-.29-.82-.09,0-.14-.09-.14-.28h-.15c0-.15-.09-.39-.09-.43s-.15.14-.19,0,.09-.1.09-.15v-.1s0,0-.09,0c-.39.33-1.16,1.34-1.49,1.68v.14a1.75,1.75,0,0,0-.53.72,4.64,4.64,0,0,0-.67,1c0,.05.14,0,.14,0-.29.14-.43.29-.38.48l-.19.1c0,.14-.72,1.15-.87,1.58h.15s-.2.19-.24.19v.15a.6.6,0,0,0-.48.48c.14-.05.19-.24.24-.29s.09.09,0,.14-.09.24-.28.24l0,.05c.05,0,.05,0,0,.1s.1,0,.1,0,0,0,.1,0-.15.24-.29.19a.15.15,0,0,1-.05.1l0,0a.25.25,0,0,0,0,.28c-.24,0,.05.15.05.15s-.19.09-.24.24-.29.62-.29.86-.19.53-.34.67,0,0,0,.1l.05,0A6.2,6.2,0,0,0,32,45.22Zm-.43,2.59s-.19,0-.15.19-.14-.09-.09-.14.09,0,.09-.19Zm-.15,1.25v0Zm.1-2.06h0s0,0,0,0Zm.1,1.48h-.05s0,0,0,0A.18.18,0,0,1,31.54,48.48Zm.09-7.29h-.14v.14A.13.13,0,0,0,31.63,41.19Zm-.05,8.54h-.09v0C31.54,49.73,31.54,49.73,31.58,49.73Zm.05-3v.09h-.09v-.09h.09Zm0,1.53v.1h-.09v-.1Zm0-1.34c.05,0,.1,0,.15.05A.1.1,0,0,1,31.63,46.9Zm0,1.54.05,0Zm.19,1s0,0-.14,0Zm0-3.12c0-.1,0-.15.19-.15S31.92,46.28,31.78,46.28Zm.14-7.78v0l-.05,0Zm.34-.62c0,.14-.1.19-.1.24H32a.54.54,0,0,1,.14-.24Zm-.24,8h0s0,0,0,0Zm.09-.28h0s0,0-.1,0Zm.24-.44c0,.05,0,.05-.05.05Zm.1,4.8-.1-.24S32.5,49.88,32.45,49.92Zm.09-12.52c0-.15.05-.2.2-.2S32.69,37.4,32.54,37.4Zm.2,2.11c-.05,0-.05,0-.1,0l-.1.24Zm0-2.35s0,0-.09,0,.05-.15.14-.15S32.78,37.06,32.78,37.16Zm.2-.24v0h0c0-.09,0-.14.09-.09Zm.14-.48c.1-.15.19-.2.34-.15-.1.1-.15.15-.15.19h-.05S33.22,36.44,33.12,36.44Zm0,5.47a.11.11,0,0,1,.1-.1A.11.11,0,0,1,33.12,41.91Zm.1-.1c0-.05,0-.09,0-.09S33.26,41.81,33.22,41.81Zm.09-.09h0Zm.34-5.67H33.5v0l0,0Zm-.1.34s0,0,0,0a.11.11,0,0,1,.1-.1Zm.34-.87a.13.13,0,0,1,0,.19h0A.14.14,0,0,1,33.89,35.52Zm.48-.38c.05,0,.05,0,0,.14S34.42,35.19,34.37,35.14Zm.09,5.62h0Zm.15-.2v.1h0v-.1Zm.29-6.24a.59.59,0,0,1,.19-.28s0,0,0,.19S35,34.32,34.9,34.32Zm1.44,2.31h0Zm.19-.1.09-.09C36.67,36.44,36.58,36.53,36.53,36.53Zm.29.39c0-.05,0-.05,0-.1S36.86,36.87,36.82,36.92Zm0-2.84a1.71,1.71,0,0,0,.39-.33h-.1c0,.14-.09.19-.29.19Zm.68.24c0,.15,0,.24.14.24S37.63,34.32,37.54,34.32Zm.28.58V35h0V34.9Zm.24.38v0h0v0ZM39.74,51.7c.15,0,.34-.24.48-.19a.37.37,0,0,1,.39-.1C40.56,51.6,40.27,51.7,39.74,51.7Zm1-20.16c0,.05-.19.24-.24.24A.31.31,0,0,1,40.75,31.54Zm-.24.24v0Zm.29-.39s0,0,.05-.09Zm.05-3.93c-.05.05,0,.19,0,.19S40.9,27.46,40.85,27.46Zm0,3.84a.2.2,0,0,1,.09-.14S41,31.25,40.9,31.3Zm.24-4c0,.05-.1.05-.15,0S41.09,27.27,41.14,27.31Zm0,22.33s0,0,0,0S41.14,49.59,41.14,49.64ZM41.23,31v0Zm.15-.19a.51.51,0,0,1,.14-.62.12.12,0,0,1,.19,0C41.33,30.29,41.57,30.58,41.38,30.77Zm0-3.84a.14.14,0,0,0-.09.05Zm0,22.9,0,.05Zm.1-.1-.1.05v-.1h0ZM42.19,26h.05l-.05.05Zm0,.24v.14c0,.05,0,.05.05.05S42.38,26.26,42.19,26.26Zm.34,21.12c-.05.14-.1.19-.19.19s0,.1.09.15a.62.62,0,0,0,.34-.82c-.05.05-.19.38-.39.43C42.48,47.33,42.53,47.33,42.53,47.38Zm0-7.78a2.62,2.62,0,0,0,.14.68A5.51,5.51,0,0,0,42.53,39.6Zm.29,2.6a3.87,3.87,0,0,1,.09.91v0c0,.48,0,.76-.14.81.09.05.14.1.14.15a.43.43,0,0,1-.09.24.1.1,0,0,1,.09.09,7.14,7.14,0,0,1-.14,1A6.54,6.54,0,0,0,43.06,44a1.42,1.42,0,0,1,0-.91,4.76,4.76,0,0,0-.15-.91v-.87h-.14a1.45,1.45,0,0,1,0,.68C43,42,42.82,42.1,42.82,42.2Zm.81-17.05v.15h-.09v-.15Zm.58-.38c0,.05,0,.05,0,.1s-.1,0-.15,0-.09.1-.14.1a.44.44,0,0,1,.29-.29Zm0-.1a.1.1,0,0,1,.09.1s0,0-.09-.05Zm.77-.52h0l0,0Zm0,1.44a7,7,0,0,0,1-.48c-.15-.05-.44.14-.58.14S45,25.39,44.93,25.59Zm.29,1.2c0-.1,0-.1.09-.05S45.26,26.79,45.22,26.79Zm.09-1.64,0-.09h-.1Zm.19,1.49c0,.1,0,.15-.14.15v-.15Zm0,0c0-.09,0-.09.1-.05S45.55,26.64,45.5,26.64Zm.1-.09c0-.15.1-.1.24-.05C45.79,26.55,45.75,26.55,45.6,26.55Zm.34-.15-.1.1Zm.24-.14s0,0-.1,0,.05,0,.05,0Zm.24-1.39c-.05,0-.05,0-.1,0s-.24.05-.19.15a.88.88,0,0,0,.33,0c0-.14.29-.19.29-.24s-.09,0-.24.05S46.46,24.82,46.42,24.87Zm-.15-1.25c-.05.05-.05.05-.09,0s0-.05.14-.05Zm.63-.05c-.1,0-.15,0-.15.05S46.9,23.62,46.9,23.57Zm.14-.05s-.14,0-.09.05S47,23.57,47,23.52Zm0,1.06s0,0,0,0,0,0,0,.1Zm.39-.1c.14,0,.24,0,.29-.05a1.19,1.19,0,0,0-.53.1A.51.51,0,0,0,47.38,24.48Zm.67-.77,0-.09,0,.09Zm.43-.48v-.09h-.1v.09Zm.34,1a.09.09,0,0,0-.15,0Zm0-.91s0,0,0,.05S48.87,23.38,48.87,23.33Zm.76.05c0-.05-.05-.1-.09-.05v.05Zm.2.09,0,0c0-.05,0-.05-.05,0v.09C49.78,23.52,49.83,23.52,49.83,23.47Zm0,.44a.16.16,0,0,0-.14-.05.27.27,0,0,0,.19.05Zm.15-.2a.11.11,0,0,0-.1-.09v.09Zm.81,0s-.38-.14-.43-.28C50.69,23.47,50.83,23.57,50.83,23.71Zm.44.58c-.05,0-.1-.05-.1-.14H51c-.05-.2-.53-.39-.58-.53A1.74,1.74,0,0,1,51.27,24.29Zm-.34,1.06s0,.09,0,.09-.15-.14-.1-.14Zm.14-1.49.1.05c-.14,0-.24,0-.24-.2Zm-.14.38s.24.05.24.19S50.93,24.39,50.93,24.24Z"/><path class="cls-1" d="M23.26,53.71c-.19,0-.19.14-.05.19l.1.1h-.15c0,.14.1.19.29.19,0,.05-.05.14-.05.19s0,0,0,.1.14,0,.28,0c0,.14-.09.14-.24.09.05.15,0,.2-.09.2l.19.67c-.19.14,0,1.15,0,1.29a.29.29,0,0,1-.24.1l.14.14c0,.1-.09.2,0,.29a1.48,1.48,0,0,0-.2.77H23c0,.05.15.05.1.19s-.05.1-.19.1c0,0,0,.09,0,.24s-.09.05-.19.14l.1.34c-.24,0-.24.14-.1.43a.11.11,0,0,1-.09.1c.14.19-.1.43-.05.62s.19,0,.19.1-.1.14,0,.14a1.3,1.3,0,0,1-.34.38c0,.05.05.05.1.1s.05,0,.05.1h-.05a.21.21,0,0,1-.15,0c.1.29,0,.44-.09.49a1.06,1.06,0,0,1-.19.72c.09,0,.09.09,0,.19s-.09.09-.14.05a.46.46,0,0,1,.1.23c-.15,0-.1.44-.29.44.14.14-.05.33,0,.48h-.1c.1.43,0,.72-.29.86.05.34,0,.58-.19.62s.15.2,0,.2c0,.14,0,.19-.05.19.05.24,0,.34-.14.34.14,0-.14.33,0,.48-.05,0-.05.38-.24.43.05.33-.29.86-.24,1.25-.05,0-.1,0-.14,0a4.84,4.84,0,0,1-.29,1.16c-.15.14-.19.28-.15.33H20a2.28,2.28,0,0,1-.24.82h-.1c-.05.05,0,.09.05.14s.05,0,.05.05-.05,0-.1,0v.09l-.09-.14c0-.14,0-.24,0-.29l-.2.15c.05,0,.15.14.2.14a.17.17,0,0,0-.05.14l-.1-.09-.24.81c.05,0,.1,0,.24,0a2.58,2.58,0,0,0-.05.34h-.09a.36.36,0,0,0,.05.24c-.2.19-.24.77-.39.91-.05-.14.29-1,.05-1.15a.78.78,0,0,0-.24.67l-.14.14c0,.05,0,.1-.1.1s.05.1.19.14c0,.2,0,.29.05.29h-.24l-.19.19c.05,0,.05,0,.09,0-.19,0-.14.43-.28.43h0c-.05-.09,0-.24.14-.38s-.05,0-.14,0a1,1,0,0,1-.34.39c.19.19.1.81.15,1s-.2.19-.24.19l.14.14,0,0c-.05.05-.05.1-.09.1s0,0,.09,0a2.59,2.59,0,0,0-.14.58H17.4v.53c-.09,0-.19,0-.28.09v.24c-.05,0-.1-.09-.1-.33-.24,0,0,.43-.19.57.09.39.09.63,0,.68a.2.2,0,0,0,.14,0l-.09.29h-.15v-.19c-.09.05-.09.1,0,.19h.05c-.05.1,0,.19.15.24-.15,0-.15.29-.2.34s0,0,0-.15v-.19c-.15,0-.2.29-.05.34-.05,0-.05.24,0,.29l-.15.28,0,0,.1.05c-.15,0,0,.43-.15.43s0,0,0,0,.1,0,.1.05a1.37,1.37,0,0,0-.19.29s0,0,0,.09l0,0c0,.34-.33,1-.38,1.3h.09a.92.92,0,0,0,0,.48s0,0-.09,0-.05.58,0,.73a.65.65,0,0,0-.1.43.76.76,0,0,0-.09.67c-.05,0-.05,0-.05,0v0c0,.05.05.1.14.1v.14c-.05,0-.05,0-.09,0v.48s0,0,0,0c.24-.09,0,.2,0,.34s0,.77.05,1a.42.42,0,0,0-.05.38l0,0c-.05.05-.05.1-.1.1l0,0v.14c-.15,0,0,.29-.15.29.2.19.2.33,0,.38,0,0,0,0,0,0s0,0,0,.1h-.14c0,.24-.19.81-.19,1.05h.14a1.36,1.36,0,0,0,.05-.62.16.16,0,0,0,.14,0,.61.61,0,0,0,0-.29c.24-.38.39-1.63.58-2,0,0-.19.63-.05.67h-.14a11.83,11.83,0,0,1-.19,1.4,1.78,1.78,0,0,0-.15,1c-.14,0,0,.28-.19.33.05.05-.05.39,0,.53a1.57,1.57,0,0,0-.19.86l-.05.05c-.05,0-.05,0-.1,0,.15.34,0,.82,0,1-.19.19-.14,1-.33,1.15,0,.53-.29,1.83-.24,2.35-.05,0-.15.15-.19.15a20.86,20.86,0,0,0-.39,2.35A4,4,0,0,0,14,98c-.2.91-.29,1.39-.34,1.48a.9.9,0,0,1-.1.39,9.25,9.25,0,0,1-.48,2.06c-.24.19-.52,1-.76,1.11,0,0-.1.14-.05.19-.15,0-.24.14-.19.29-.2,0-.44.43-.68.43a2.36,2.36,0,0,1-1.87.62c-.29.15-.48.24-.62.2v-.1s0-.1-.05-.1c-.24.1-.58-.14-.82-.29.05,0,0-.28.15-.33l-.82-.91s0,0,0,0l.09-.05a.82.82,0,0,1-.23-.34s0,0,.09,0a.2.2,0,0,1,.14,0,.75.75,0,0,0-.14-.53s0-.1.14-.1a19.73,19.73,0,0,1-.81-4,.52.52,0,0,0,0-.63c0-.24,0-.33,0-.33h0c0-.05,0-.05,0-.1s0-.09,0-.09,0-.29,0-.72c0,0-.15,0-.15-.1l.15-.14v0s0-.1-.15-.1a3.07,3.07,0,0,0,.05-1.15l-.05-1h0c0-.29-.09-.91.1-1.1,0,0,0,0-.1,0s0-.1.05-.1v0l-.05-.05V87.07A7.9,7.9,0,0,1,6.46,85c-.29-.1-.1-.48-.19-.82l.05,0h.09A10.28,10.28,0,0,1,6.27,82a17.1,17.1,0,0,1-.19-2.73l-.1-.1c0-.43,0-1.58-.05-1.92a1.43,1.43,0,0,1-.1-.34l0-.72c0-.48,0-.72,0-.72v-.33c0-.05,0-.48-.14-1.35,0-.33,0-1.15-.05-1.53L5.26,67s-.1,0-.1-.1a31.29,31.29,0,0,0-.24-3.12L4.63,61.2c-.48-.68-.43-2.36.72-2.16.05,0,.1-.1.1-.15a5.6,5.6,0,0,1,1.73.19,6,6,0,0,1,1.87.29,2.62,2.62,0,0,0,.53.53,22.69,22.69,0,0,1,.14,3.94.11.11,0,0,0,.1.09.18.18,0,0,1,0,.15c-.1,0-.2.09-.24,0a.74.74,0,0,1,0,.77,6.6,6.6,0,0,1,.09.82l.1.1c0,.14-.05.23-.1.23a.38.38,0,0,0,.1.2c-.19.14-.15.67,0,.91-.15.14-.1.34-.15.38.15.24,0,.44,0,.77s.1.48,0,.53l.1.1c-.05.76.1,2.3.1,2.88,0,.24,0,.91,0,1.15s0,.53,0,.72,0,.14,0,.19l0,0s0,.24,0,.29v.52c.05,0,0,.1,0,.15,0,.24,0,.86,0,1s0,.09-.09.14,0,0,.09,0v.29s0,0,0,0,0,0,0,.09l.05.05c0,.14-.19.29,0,.48C10,77,10,77,10,77a7.42,7.42,0,0,1,.15,1.44,14.54,14.54,0,0,0,.05,2H10s.05,0,.15,0c-.05.15.09.72-.05.87a11.73,11.73,0,0,1,.09,1.73,1.52,1.52,0,0,1,0,.67.63.63,0,0,1,0,.72c.15.38,0,1.63.15,1.82,0,.15-.1.2,0,.24l-.19.1c.05.14.14,0,.19,0-.14.19-.1.38,0,.62a.11.11,0,0,1-.1.1,6,6,0,0,1,.05,1.25l-.1,0s0,.1,0,.1.15,0,.2,0c-.2.19-.1.67-.15.77.15.19.05.62.1.81h0c.1.19,0,.63,0,.72l0,0c0,.19.09.82,0,.86.14.2-.05.48.1.63.19-.53.48-2,.67-2.5,0,0,0-.09-.05-.09v0c.1,0,.14,0,.19,0a.4.4,0,0,1,0-.34s0,0,.1,0-.05,0-.1,0v-.09h.15s0-.34,0-.34l0,0h0s0-.09.14-.19a5.63,5.63,0,0,1,.1-.91c.24,0,.38-.62.19-.77.24,0,.34-.72.38-.86l-.09-.1v0h.05a5,5,0,0,0,.28-1.25c.05,0,.1,0,.2-.09a.26.26,0,0,0-.15-.19,1.12,1.12,0,0,0,.1-.39h.05c0,.05,0,.05.09.05s0-.1-.05-.1,0,0,0-.09l.19-.1a8.88,8.88,0,0,0,.33-1.39s0-.09-.09-.14.24-.19.14-.39c-.05,0-.05,0-.05.1s0-.15,0-.34l.05.1s0,0,0,.09a.87.87,0,0,1,.14-.24c0-.76.63-2.64.68-3.21.24-.15,0-.48,0-.72.05.14.15,0,.2,0l0-.1c.05-.05.05-.05.05-.09h-.09a2.46,2.46,0,0,0,.19-1.64c.14,0,.14.2.19.2l.24-.72a.25.25,0,0,0-.19-.2c.05,0,.05-.19.09-.33.34,0,.48-.53.34-.87.19,0,.29-.57.34-.62a1.25,1.25,0,0,1,.24-.86.41.41,0,0,1-.1-.29c.1,0,.14,0,.14,0s0-.19,0-.19-.09-.1-.14-.1c0-.29.38-.48.19-.77,0,0,0,0,.1-.09l.09-.15h0l.05.1.05-.1.09-.14c-.05-.05-.09-.1-.19-.05.05,0,0-.53.14-.53,0,0-.09-.09-.09-.14a2.14,2.14,0,0,0,.38-.91c.39-.2.43-.82.53-1.16,0,0-.14-.09-.14-.14s0-.1,0-.24,0,.1.2.1a1.31,1.31,0,0,1,.09-.24s-.05,0-.09,0H17c0-.1.1-.19.24-.29-.05,0,0-.19-.1-.19l.2-.58s.09-.09.24-.09a11.83,11.83,0,0,0,.19-1.2c.24-.2.24-.92.43-1.06a.11.11,0,0,0-.1-.1s.05,0,.15,0l.09,0c0-.15.15-.48,0-.53a.39.39,0,0,0,.19-.1,1.49,1.49,0,0,1,.43-1.2L18.8,62c.14,0,.24-.09.24-.38.19,0,.24-.53.28-.58s0,0-.09,0c.14-.15.14-.48.29-.63s-.05-.19-.05-.24a.78.78,0,0,0,.24-.48c.19,0,.19-.67.33-.72v-.24q.36-.49.15-.72h.14l0,0a.17.17,0,0,1,0-.14c.24-.14.34-.77.53-.91a.88.88,0,0,1,.29-.77.61.61,0,0,1,.14-.58s-.14-.09-.14-.14.05,0,.09,0h.05c.05,0,.05-.1,0-.1.19-.14.48-.53.63-.67-.05,0-.1-.1-.15-.1s.05-.14,0-.24c.19,0,.39-.62.72-.67,0,0,0-.09-.14-.09l.33-.2c.15,0,.44,0,.44,0l.19.29C23.36,53.66,23.31,53.71,23.26,53.71ZM6,79.34s0,0,0,0a.17.17,0,0,1-.05-.14A.1.1,0,0,1,6,79.34Zm-.1.24v0ZM8.57,78H8.52c.05,0,.1,0,.1,0Zm.34,12a.38.38,0,0,0-.2.1S8.81,90.05,8.91,90ZM9.2,77s0,0,.09,0S9.2,77,9.2,77Zm.19-.19s0,0,0,0S9.39,76.8,9.39,76.85Zm.19,5.52c-.05,0-.1,0-.1,0S9.58,82.42,9.58,82.37ZM9.53,87.7v0h0v0Zm0-5.53c0,.1.05.15.1.15s.19-.24.19-.43h-.1l-.09,0c-.05,0,.09.09.09.14S9.67,82.17,9.53,82.17Zm0,1c.39.15.14-.62.39-.86-.25,0-.25.19-.39.34A.92.92,0,0,1,9.53,83.13Zm.1,1.49c.14,0,.24-.29.29-.33l-.05-.05s0,0-.1,0A.6.6,0,0,0,9.82,84a.16.16,0,0,0,.14,0v-.43s0,0-.09,0a.18.18,0,0,0-.15,0s0,.1-.05.15-.14,0-.14.05A4.11,4.11,0,0,1,9.63,84.62Zm.09,3.32c-.05,0-.14.28-.19.28.14.44.19.72.1.87,0,0,.09,0,.09.14-.19,0-.05.34-.09.43l.09.53c.15,0,.24-.09.24-.14s-.14,0-.19,0,.05-.1.19,0,0-.19,0-.38c0,0,.09,0,.09-.15l-.09,0c-.05,0-.05,0-.1,0s.14,0,.14-.19l0,0c-.05,0-.1,0-.1-.1l.14-.14c-.09-.1-.09-.24,0-.39-.29-.19-.14-.72-.14-.91a.1.1,0,0,0,.09-.09c-.14,0-.14-.1,0-.29s0,0,.09,0v-.24H9.92l-.2.19c.1-.19.2-.29.24-.29,0-.43,0-.62,0-.67l-.09,0-.05,0a.32.32,0,0,0,.09-.23c-.24,0-.19.38-.33.43a.52.52,0,0,1-.05.57l.05.1a.23.23,0,0,0,.09.19A2.52,2.52,0,0,0,9.72,87.94Zm0-6.53v-.1H9.67l0,0c-.05,0-.05.1-.05.24S9.67,81.46,9.72,81.41Zm-.05,4.27h.2c.05-.05-.1-.34.05-.39l-.1-.14-.05-.05A.24.24,0,0,1,9.92,85a.47.47,0,0,1,0-.43.47.47,0,0,0-.38.19A4.66,4.66,0,0,1,9.67,85.68ZM9.72,76v-.09H9.63V76ZM9.67,90.67c.15,0,.05.15,0,.15.2.14,0,.81.05,1.15-.05,0-.05,0-.09.09v.1c.09,0,.14,0,.19,0a.36.36,0,0,1-.19.09c.14,0,0,.29,0,.34s.33-.14.38-.19a.69.69,0,0,1,.15-.67l-.2-.2c0-.24,0-.33,0-.38l.14-.29c0-.19-.19-.72,0-.77-.05,0-.1.15-.24.1Zm.1,2c.05,0,0,.14-.1.24.05.05.05.1.05.19v.15s.2-.15.34-.1c-.05-.14-.19-.19-.19-.24h.05s0,0,0-.1S9.92,92.64,9.77,92.64Zm0,2.16s0,0,0,.1a.5.5,0,0,0,0,.38,9.85,9.85,0,0,0,.29-1.49H10l-.09,0a.54.54,0,0,1,0-.29s-.09,0-.14,0,0,.05-.05.05c0-.15.19-.29.19-.43-.43,0-.19,1.29-.24,1.48Zm.1-11.57c-.05,0-.15,0-.1,0S9.82,83.28,9.82,83.23Zm-.1.15v0Zm.1,5.76h0Zm-.1.86h0Zm.1,2s0,.09,0,.09H9.72s.1-.09.1-.14Zm.48-3.27c-.05,0-.1,0-.1,0Zm3.07-7.49v0h0v0Zm1,3.12c-.09,0-.14.05-.14.1S14.33,84.43,14.33,84.38ZM14.86,92h-.1c0,.09,0,.14.1.19S14.86,92.06,14.86,92Zm.19-1c-.05,0-.09,0-.09.14S15.05,91.15,15.05,91.06Zm0-7s0-.09-.1-.14a.55.55,0,0,0,.15.24C15.1,84.14,15.1,84.14,15.1,84.09Zm.38-1.63c0,.15.2.15.2,0Zm.29-.62h-.09s0,.09.24.09v-.19h-.15Zm.34,1.73c0,.05-.05.05-.1.05S16.06,83.57,16.11,83.57Zm0,.28V84H16A.11.11,0,0,1,16.11,83.85Zm0-.52v0Zm.19-.67h-.05v0c.05,0,.05,0,.05-.1Zm.05.57c-.05,0-.1,0-.1-.14S16.35,83.13,16.35,83.23Zm0,.19s-.05,0-.1,0S16.3,83.42,16.35,83.42Zm0,1.92c-.05,0,0-.19,0-.24S16.4,85.2,16.35,85.34Zm.19-8.16a.1.1,0,0,0-.1-.09c0,.14,0,.19.15.14ZM17,82.66a2.06,2.06,0,0,1-.19.81,8,8,0,0,1-.34,1.2c.34-1.49.58-2.4.68-2.74C17.21,82.08,17.16,82.32,17,82.66Zm-.53,2.25v-.14S16.49,84.82,16.44,84.91Zm.1-15.46c-.05.15,0,.15.14.1S16.64,69.45,16.54,69.45Zm.1-.38-.05.05C16.59,69.07,16.59,69.07,16.64,69.07ZM16.88,79c-.05,0-.15-.1-.1-.15S16.88,78.86,16.88,79Zm-.1-.34,0-.05v0S16.83,78.57,16.78,78.62Zm.1.1h-.1S16.88,78.67,16.88,78.72Zm0-2.93c-.14-.05-.14.14,0,.1Zm.2,0a1.43,1.43,0,0,0-.1.34C17.21,76.13,17.31,75.84,17.12,75.79Zm0,3.46v0h-.05v0Zm.09-.29v.19c-.05,0-.05-.1-.05-.34C17.21,78.81,17.26,78.86,17.21,79Zm-.05,2.93v0Zm.2-7.16c-.05,0-.1.1-.1.15s.14,0,.14-.15.1-.09.1,0v.09a.91.91,0,0,0-.14-.72s-.2.48-.15.67Zm-.15,2.93v0l.05,0S17.26,77.61,17.21,77.66Zm.15-1.44v-.09h-.05v.09Zm.09-9.5v0h-.09v0Zm.24,10.08-.05,0ZM18,74.54l-.05,0c-.05,0-.05,0-.1,0s.05-.1.05-.19S18,74.45,18,74.54Zm.09-.19c-.24,0-.28-.19-.19-.43A1,1,0,0,0,18.12,74.35Zm.05-1.3s.1,0,.1-.09-.24-.1-.29-.1l.14.24Zm.1-.28h-.05s0,0-.1,0,0,0,0,0l0,0C18.17,72.86,18.22,72.86,18.27,72.77Zm-.1,1c0,.15-.05.2-.14.15l0,0v-.1Zm0-.48s0,0-.1,0,.05,0,0,0Zm.14-.81h0l-.05,0c-.15,0-.05.24.09.24Zm-.14.67h0Zm.19-1.25a.24.24,0,0,0-.09.15s0,.09-.05.09.05.1,0,.24h.14a.16.16,0,0,1,.05-.14c.05-.1.05-.15,0-.1S18.41,72,18.41,71.9Zm.19-.14s0-.05,0-.19c0,0,0,0-.1,0l-.05,0s-.05.14-.09.29A.23.23,0,0,0,18.6,71.76Zm-.14,1.68c-.05,0-.1,0-.1,0Zm.05-2s.09,0,.09,0-.14,0-.19,0v.14Zm-.1.72h.05C18.41,72.19,18.41,72.19,18.41,72.14Zm.05,2.07v0c-.05,0-.05,0-.05-.09Zm.05-.1c-.05,0-.05,0-.05-.14A.16.16,0,0,1,18.51,74.11Zm0-3s0,.09,0,.09S18.6,71.09,18.56,71.09Zm0,2.73,0,.05Zm0-1.15s0,0,.1,0S18.65,72.67,18.6,72.67Zm0,1v-.1h.1A.11.11,0,0,1,18.6,73.63Zm0,.05v.09h0v-.09Zm0-.19v0s.05,0,.1,0,0-.14-.05-.19.1,0,.14.14l-.14.19C18.65,73.53,18.65,73.53,18.65,73.49Zm.15-2.69v-.15c-.05,0-.1,0-.1,0s.05,0,.05,0l-.05,0C18.75,70.8,18.75,70.8,18.8,70.8Zm0,2.3a.12.12,0,0,1,.14-.14A.13.13,0,0,1,18.8,73.1Zm.33-1.39.1,0-.1-.14c-.05-.15-.09-.19-.14-.15s.05.29.05.34Zm0-1.39h0Zm.24-1.06c0-.05.05-.05.1-.05a1.16,1.16,0,0,0-.19-.28s-.05.09-.1.14S19.23,69.26,19.37,69.26Zm.05,2.11a.1.1,0,0,1-.1-.09A.11.11,0,0,1,19.42,71.37Zm-.05-.14c-.05,0,0-.1.05-.14S19.42,71.13,19.37,71.23Zm.24-.58a.24.24,0,0,1-.19.34v0a.08.08,0,0,1,0-.14.1.1,0,0,0,0-.15Zm.05-.52-.05,0c-.05,0-.05,0,0,0S19.61,70.17,19.66,70.13ZM19.61,69c-.05,0,0,.1.1.1S19.71,69,19.61,69Zm.15.82s-.05,0-.1,0v0Zm0,.53h-.05v-.05C19.76,70.32,19.76,70.32,19.76,70.37ZM20,68.69H19.8s0,.09.1.09l.05,0ZM20.48,67s-.05-.15-.2-.19c.15,0,0,.24,0,.28A.45.45,0,0,1,20.48,67Zm1-1.83h0Zm.72-3.6s-.05-.09-.15-.09S22.11,61.53,22.16,61.53Zm0-.33s0,0,0-.05S22.16,61.15,22.16,61.2Zm0,.09v0h0v0Zm.29-.86.05.09c.1,0,.14,0,.14-.19s-.24-.19-.28-.19v.29Zm.58-1a2.41,2.41,0,0,0-.1.43s-.14-.05-.19-.05c.19,0,0-.43,0-.57S22.92,59.56,23.07,59.42Zm-.15.67s-.09-.09-.14-.09,0,0,.14,0S23,60.09,22.92,60.09Zm.29-.67-.05-.05v-.09A.16.16,0,0,1,23.21,59.42Zm.05-5s0,0,0,0S23.31,54.43,23.26,54.43Zm.14-.67c0-.15,0-.2.1-.2S23.45,53.76,23.4,53.76Z"/><path class="cls-1" d="M22.83,80.21l.24.19v.48c-.05,0-.05-.15-.1-.15a1.93,1.93,0,0,0-.1.44c.05,0,.05,0,.1-.1V81c.05,0,.05,0,.05.2.05,0,.09,0,.14.09s.29,0,.24.1l-.09-.1a.54.54,0,0,0-.15.39c-.14,0-.14-.29,0-.29l-.09-.1c-.05,0-.05,0-.05-.05h-.15a.54.54,0,0,0,0,.29l-.1.1c.05,0-.14.29,0,.33s-.05,0-.1,0c.05.44.15.73.29.82s-.14.38-.14.53-.1,0-.1-.1L22.63,83a1.2,1.2,0,0,1,0,.38c-.05,0-.05-.24-.2-.24a2.53,2.53,0,0,1,.2-1.15c-.15,0-.2.1-.2.24a4.32,4.32,0,0,1,0-.72s0-.24-.19-.24c.05-.19.19-.67.19-.72H22.3a.79.79,0,0,0,.05-.43h.09c-.05-.15,0-.39-.05-.43a.3.3,0,0,0,.1-.39,2.67,2.67,0,0,0,.24-1l.05,0c0,.05.09.05.09.1h-.09l.19.72c.05,0,0,0,0,.09l-.09,0a.09.09,0,0,0,.14,0c.05.14-.14.14-.14.19h0l.05.15h-.09c0,.09,0,.14,0,.14A1,1,0,0,1,22.83,80.21Zm-.2,1.15-.14.14C22.54,81.5,22.59,81.46,22.63,81.36Zm0,1.34c0-.24,0-.33,0-.33s-.05.24-.1.29C22.59,82.66,22.63,82.66,22.63,82.7ZM22.54,84c-.05,0-.05,0-.05,0v-.1A.1.1,0,0,1,22.54,84Zm.14-3.41c.05,0,.05,0,.1,0l0-.05h-.15Zm28.8-19.54.05.05a.47.47,0,0,0-.14.24v0l0,0h-.05s0,0,0,.1l.05.05s0-.05,0-.1v0s.09-.05.14-.05a.71.71,0,0,1-.19.39c0,.19-.05.33-.05.48s-.24.33-.29.38.15.19.2.19c-.05.15-.53.39-.39.72l-.09.1c0,.05.09,0,.09-.1a.18.18,0,0,0,.15,0l-.05,0c.05.05,0,.05,0,.1l-.1,0h0c0,.05,0,.24.1.19-.14,0-.14.29-.29.24-.14.39-.19,1.45-.57,1.54,0,.1,0,.15,0,.19l0,.05,0,0H50c0,.19-.24.72-.24,1-.05,0-.1,0-.1,0l-.09.05a.6.6,0,0,1-.15.52s.1,0,.1.1c-.19.05,0,.38-.19.38,0,.2-.29.53-.24.72h-.1c.05.15,0,.29-.24.53a.42.42,0,0,1-.19.58V70c-.15.15-.29.67-.48.82,0,.14,0,.24-.1.24a2.37,2.37,0,0,1-.33.91h-.2s0,0,.05.1.1,0,0,.09,0,0-.1,0c0,.29-.09.44-.24.44.05.14.1.19.1.24A4.84,4.84,0,0,0,46.68,74a.26.26,0,0,0-.28.34c-.1,0-.15.05-.15.19s-.19.34-.33.34.19,0,.24,0c-.2.14-.29.19-.34.19s0,.1,0,.05a.89.89,0,0,0-.43.24s0,0,.09,0-.09,0-.24,0,0,.2,0,.24,0,0,.1-.09,0-.1.1,0-.15.19-.15.34h0c0,.14-.28.14,0,.14,0,0,0,.14,0,.19a1.65,1.65,0,0,0,.39-.24s0,.24,0,.29,0-.1,0-.24.09,0,.19,0c.05.19-.34.48-.34.67a1.84,1.84,0,0,1-.43.24.66.66,0,0,1,.43-.43c-.05,0,0-.14,0-.19s-.29.1-.43,0-.15.48-.34.53V77c-.19-.05-.24.19-.29.19s0,0,0,.1a.41.41,0,0,0-.29.33.71.71,0,0,0-.52.58c-.15,0-.2,0-.2.14-.14,0-.19.1-.24.1a13.66,13.66,0,0,1-1,1.2c-.05.14-.19.29-.53.43,0,.14-.1.19-.24.19v.15l0,0-.09.05,0,0c-.05,0-.29.38-.53.43-.05.24-.43.53-.67.34,0,0-.1.14-.15.14s0,0,.1,0h0s-.24.19-.19.34c-.05,0-.15,0-.29,0l0,0V82a.09.09,0,0,1-.15,0c0,.19-.09.29-.33.24v.15c-.24,0-.58.38-.77.43v.09h0l-.05,0c0,.15-.29.15-.29.34-.14,0-.24,0-.29.19s.2,0,.34,0l-.05.09a.1.1,0,0,1-.09.1v.09c.09,0,.14,0,.14,0s-.19.19-.19.33c-.19,0-.34.29-.48.24v.1a10.31,10.31,0,0,1-1.06,1s-.09,0-.09,0a7.21,7.21,0,0,0-.77.62s-.14-.05-.19,0a2.46,2.46,0,0,1-.82.53h.43c0,.14-.43.24-.48.43.24,0,.68-.29.87-.29a1.39,1.39,0,0,1-1,.39s.1.09.1.14c-.2,0-.48.34-.82.34a.64.64,0,0,1-.53.24,3,3,0,0,1-1.15.57c-.15,0-.15,0-.1.15s-.09,0-.09-.05-.05,0-.05.05a.06.06,0,0,1-.1,0c.05,0,0,.24.1.28-.19.15-.24.24-.1.39h.1c.05,0,0,.09-.05.19l-.05.1s.05.09.15,0,0,0-.05,0l-.05.1h-.1c.2.19-.09,1.29-.09,1.68-.1,0-.15,0-.19,0s.14,0,.19,0a2,2,0,0,0-.05,1c-.05,0-.24-.1-.24,0h0c.14,0,0,.2.05.24a.54.54,0,0,0,.14-.24c.05.15.05.24-.09.29.14.19-.05,1.3-.05,1.49-.05,0-.1,0-.1,0s.05.14.1.14c-.1.43.05.87-.24,1.15-.1.2-.15.34-.1.39l-.09.09c-.1,0-.15,0-.15.2s-.19,0-.24,0,0,0,.05,0,.1,0,.14,0-.19,0-.19.2c0,0-.05,0-.09,0s-.05.09-.05.19l.14-.14h.1v.09a.09.09,0,0,0,0,.15c-.05,0-.05,0-.1,0l-.05,0a.11.11,0,0,1-.09-.09,7.74,7.74,0,0,0,0,1.1s0,.1-.05.1v.48l.05,0v0s0-.29.19-.33,0,0-.05,0a3.52,3.52,0,0,0,.39-1.2c.05,0,.09,0,.19-.15a.81.81,0,0,0-.24.1l-.1.1c0-.1,0-.2.15-.34.05,0,.29,0,.34,0v.14h-.1l.1.1c-.29.29.09.91-.39.91a5.31,5.31,0,0,0-.38.82c-.1,0-.19.09-.24.28s0,0,0,0l.09,0s-.09.1-.09.15h.09c-.05.24-.09.38-.05.43.15-.34.39-.91.53-1.15.05,0,.05-.1.19-.1v.58c-.05,0-.09.09-.14.09a.18.18,0,0,0,.05.15.29.29,0,0,0-.15.29c-.09-.15-.14-.15-.14,0l.09,0c.05,0,.05,0,.1,0a.45.45,0,0,1-.14.39c.09.09.09.19,0,.24s.2,0,.24,0,0,.14-.19.14a.27.27,0,0,0,0,.19v.19a.26.26,0,0,0,.05.29,1.1,1.1,0,0,0,.09.15l-.14.09-.1.05v.1l.1,0,.05,0v.48c-.05,0-.15.19-.1.24s0-.14.1-.14a19.78,19.78,0,0,0-.24,2.3h-.05l-.05,0-.09.19a2.76,2.76,0,0,1-.39,1.92h-.09c-.15,0-.15,0-.15.1a.09.09,0,0,0-.09.09v-.09c-.15-.05-.15.14-.2.14l0,.05c.05,0,.1,0,.05.09s-.19.05-.19.2,0,.14-.05.19a.11.11,0,0,1-.1-.1l-.09.15c-.05,0-.05.09-.1.09s-.33.05-.38.05c-.34.43-.58.58-.77.48l-.29.19a2.56,2.56,0,0,0-.38-.19s-.1.15-.1.19a3.45,3.45,0,0,0-.67.05v-.24h-.1v0c.05,0,0,.15,0,.19H26a.7.7,0,0,0-.48-.48l-.34-1.29c-.38-.77-.38-1.2,0-1.35a.27.27,0,0,0-.05-.19.25.25,0,0,1-.09-.14s.14.14.19.14h.43l.62-.19c.34-.29.53-.58.48-.82h.05s-.05-.14,0-.19l.29-1.73s-.05,0-.1,0l0,0a.74.74,0,0,0,0-.44.21.21,0,0,1,.15,0c0-.44.14-1.16.14-1.54a.17.17,0,0,1,.05.14c.05,0,.1-.19-.05-.19.05-.14.05-.53.1-.67h0c-.05,0-.05,0-.05,0s.19,0,.24-.14l-.05,0v0a.08.08,0,0,1-.14,0v-.1l-.05-.09v-1a.39.39,0,0,0,.05-.15s-.29,0-.29-.14c.05.05.24,0,.29.05s0-.1-.05-.1v0a.2.2,0,0,0,.14-.09v-.43s-.14.09-.19,0a.53.53,0,0,0,.05-.38h.14s-.09,0-.14,0c.14-.24.05-.86.1-1.1a.11.11,0,0,0-.1-.1l.14-1c.05,0,.05,0,.1,0a.67.67,0,0,0-.1-.29v-.1c.05,0,.05-.09.1-.09l-.05,0s0,0-.05,0,.24-.34.05-.38c0-.24.29-.63.15-.87h.09c0-.05-.14-.09-.14-.14a.25.25,0,0,0,.09-.19s.1-.05.1-.15v-.14l-.1,0c0-.34.29-1.06.29-1.1-.05-.2-.09-.29-.05-.34s-.09,0-.14,0,0-.24-.05-.29l.15-.29c-.05,0-.24-.19-.39-.24s.29-.09.34-.14-.15-.14-.48-.24v-.14c-.05.14-.53,0-.67,0l0-.05c.05,0,.05,0,.05,0-.33.15-.57-.29-.72-.29s-.05,0,0,0l.05,0c-.34-.1-.53-.15-.58-.1a.3.3,0,0,1,0-.38c-.09-.15-.19-.2-.33-.15s-.05-.05-.05-.19.14.05.19.05a.16.16,0,0,0-.05-.14.45.45,0,0,1-.33,0v0l0-.05s0,0,0,.05c-.24-.1-.29-.48-.58-.48,0-.15,0-.24.05-.24s.14,0,.1.19c0-.19-.2-.53-.15-.67s-.09,0-.14,0,.05,0,.14,0l-.09-.39c-.05,0-.05,0-.1,0,0,.2,0,.29-.05.29,0,.15.05.15.1.1s0,.19.14.24,0,.28-.05.33a8.52,8.52,0,0,1-.57-.86c-.15,0-.19.1-.24.1s-.05-.29,0-.34a.18.18,0,0,0-.15,0s0-.05,0-.1l0,0a.09.09,0,0,0,0-.15c-.05,0-.1-.09-.1-.14s-.14.14-.19.14c0-.19-.14-.48-.1-.67v0c0,.05,0,.05-.09.05l0-.1,0,0s0-.09-.14-.09c.14-.2,0-.53.05-.77H23a.11.11,0,0,0,.1.1s.19.14,0,.14a.32.32,0,0,0,.19.1s-.05,0-.1,0,.1,0,.15,0a6.76,6.76,0,0,1,.28,1.2s0,0-.09,0,.14.05.24-.1.09-.19.05-.24H24a1.16,1.16,0,0,1,.09-.57s0,0-.19,0a2.57,2.57,0,0,0,0-.62.11.11,0,0,0,.1-.1c.05,0,.14.43-.05.57.05.15.14.15.29,0,.05.1.05.2,0,.24s.09.1.14.1.1,0,.1,0a.3.3,0,0,1,.24-.19.28.28,0,0,1-.1-.34s.1-.09.15-.09a.84.84,0,0,1,0-.39c.05,0,.15.1.2.1a.78.78,0,0,0,.24.76s.14-.09.19,0,0,.14.09.33c0,0,.15,0,.29,0a.78.78,0,0,0,1.06.44c.05,0,.09,0,.14.09a.47.47,0,0,1,.34,0,.26.26,0,0,1,.19-.09c.14,0,.19,0,.24,0a.16.16,0,0,0-.05-.14.09.09,0,0,1,0-.15s-.14-.19-.29-.19c.05,0,.34-.19.34-.39.05.05.14.05.29.05a6.21,6.21,0,0,0,.09-.91L28,82.85a.38.38,0,0,1,.24-.29,13,13,0,0,0,.05-1.39.1.1,0,0,0-.1.09,2.65,2.65,0,0,0,.05-.33c.05,0,.05,0,.05.19a1.16,1.16,0,0,0-.05-1.06c.05,0,.1,0,.24,0-.19,0-.14-.38,0-.52-.05,0-.14,0-.14,0s.05-.1.14-.1a12.3,12.3,0,0,0,.24-2.69,2.46,2.46,0,0,1-.14-.76c.05,0,.05,0,.09,0h.1c0-.24.05-.76.05-1.1l-.05,0-.05-.09a19.88,19.88,0,0,0,.29-2.4c0-.1.05-.63.14-1.59a9.44,9.44,0,0,0-.62,1.3.61.61,0,0,0-.19.53c-.24.14-.39.52-.43,1.24,0,0-.2,0-.2.1V74s-.09,0-.24.1v.14c-.24.15-.38.24-.43.39H24.79s-1.29-.53-1.48-1c.19-.53.48-1.83.62-2.26l.82-1.58a11,11,0,0,0,.62-1c.34-.24.82-1.15,1.15-1.39v-.19a.11.11,0,0,0,.1-.1c.05-.05.09-.1.14-.1s0-.14-.05-.14a.5.5,0,0,0,.29-.34.14.14,0,0,0,.19,0s.1-.1.15-.1,0-.14.09-.24v-.1a5.2,5.2,0,0,0,.92-.91c0-.05,0-.05-.05-.05h-.05a.1.1,0,0,1,.1-.09c0-.15,0-.29.19-.24v.09a.09.09,0,0,0,.09-.09c.25-.1.29-.39.39-.63a.15.15,0,0,1,0,.2s0,0,.05,0h0v-.09l.1-.15c.05,0,.05,0,.1,0,0-.14.14-.29.14-.34.34,0,.34-.43.48-.47v0a.11.11,0,0,1,.1-.1c0-.05-.05-.05-.15-.05v0s.05-.09.15-.09c.09-.48.14-.72.09-.77.05-.24.29-1.63.63-4.13a5.47,5.47,0,0,0,.33-1.58l.58-1.16a4.69,4.69,0,0,1,1.49-.86,1.17,1.17,0,0,1,.33.1,2.24,2.24,0,0,0,.58,0,7.09,7.09,0,0,1,2,.86,2.62,2.62,0,0,1,.24,1s-.05.1-.1.15l.1.09c.19.05.43-.24.57-.24a6.65,6.65,0,0,1,1.25-.86c.58-.34.91-.58,1.06-.67s.19-.05.24,0A11.38,11.38,0,0,1,42,53.76c.53,0,1.77-.39,2.3-.44a8.4,8.4,0,0,1,4.56.68c.1,0,.15,0,.15,0s.14.14.28.19h-.14c0,.14.29.24.24.29.58.19.91,1,1.25,1.29l-.05.05s-.14.1.19.1A9.19,9.19,0,0,1,51,57s-.09,0-.09-.05a.66.66,0,0,0,.19.34.45.45,0,0,0,0,.43v-.05s0-.09.14-.09a5.74,5.74,0,0,1,.53,1.63.11.11,0,0,1-.1.1,1.45,1.45,0,0,1,0,.76h.09c-.05,0-.05.43-.24.48s.15,0,.1.19h-.1v.1h0c.05,0,.05,0,.1,0s-.1.24-.15.24ZM22.78,80.83v-.1h-.05v.1Zm0,.34-.1,0v.14Zm0,.76s-.1,0-.1-.19A.26.26,0,0,1,22.83,81.93Zm0,2.74s0,0,0,0-.05,0-.05-.1v-.09C22.78,84.48,22.83,84.53,22.83,84.67Zm.09-6.38c-.05,0-.09.09-.14,0s0-.19,0-.24S23,78.14,22.92,78.29Zm-.05,2.54h-.09V81Zm0,4s0-.09.09-.09A.1.1,0,0,1,22.83,84.86Zm0-4.46H23C23,80.35,22.87,80.35,22.87,80.4ZM23,81.46l-.05,0v.1s0,0,0-.14Zm0,2.2s.05,0,.05-.09l-.05,0h-.1S23,83.62,23,83.66Zm.05.19c-.15.34-.15.53,0,.68A2.68,2.68,0,0,0,23.07,83.85Zm0-4.08H23c-.05,0-.05,0-.05,0S23,79.77,23.07,79.77Zm-.1.48c.05-.14.14-.24.19-.24S23,80.25,23,80.25Zm.19.82c-.05,0-.09,0-.09-.14S23.16,81,23.16,81.07Zm0,4.22c-.05,0-.09,0-.09-.14v-.1S23.16,85.15,23.16,85.29Zm.1-2.44h-.1v0a.1.1,0,0,1,.15,0S23.31,82.8,23.26,82.85Zm-.1.09a.24.24,0,0,1,.15-.09C23.31,82.94,23.26,83,23.16,82.94Zm0,2.45.05,0h.1S23.21,85.44,23.16,85.39Zm.34-2.88c.05,0-.15.1-.1.24s-.14-.14-.19-.09-.05,0,0-.1l.05,0C23.35,82.61,23.45,82.61,23.5,82.51ZM23.35,82v.1s-.09-.1-.14-.1h.05a.06.06,0,0,0,0-.1A.06.06,0,0,1,23.35,82Zm0,.24s0,0,0-.1S23.31,82.22,23.31,82.27Zm0,1.25v0Zm.14-2c-.14,0-.14,0-.09-.19A.29.29,0,0,1,23.4,81.55ZM24,82.7h.14c-.05,0-.05,0,0,.1l.05,0c0,.14-.14.14-.1.28s-.09,0-.09-.19h.09l-.14-.14v0l-.1.09h0s0,0-.05,0a.22.22,0,0,0,.09-.19,2.08,2.08,0,0,0-.38-.62c.05,0,0-.29.14-.34,0,0-.09,0-.14.05,0,.29-.1-.05-.14-.1.14,0,.14-.14.28-.14C23.59,81.89,24,82.37,24,82.7Zm-.58-.33v.14h-.09v-.09s0,0,0,0Zm0,1.25h0S23.35,83.66,23.35,83.62Zm.1-.44c-.05,0-.1-.19-.05-.24S23.45,83,23.45,83.18Zm.05-.33v.09h-.05v-.09Zm-.05.53s.1-.2.1-.25S23.59,83.38,23.45,83.38Zm.24,1s0,0,0,0h.09c.05.05.05.05,0,.1l-.09,0c-.15,0-.19,0-.19-.15s.14-.33-.1-.48c0-.05.14-.05.1-.19C23.79,83.85,23.83,84.05,23.69,84.33Zm-.05.87c-.09,0-.14,0-.14.09Zm0-2.26v0c-.05,0-.05,0-.05-.1Zm0,.68c0-.05,0-.1-.05-.1s.05,0,.2,0C23.74,83.52,23.79,83.62,23.64,83.62Zm.1-.44v0h-.1v0Zm-.1,1.25c.05,0,.05,0,.05-.05Zm.05.29-.05,0Zm.43-2.16s0,0-.05,0,.15-.05.1.1Zm-.05.62c.15.15.2.1.2-.14.14,0,.14.09,0,.19l-.19,0C24.07,83.23,24.07,83.23,24.07,83.18Zm.05.2c.05,0,.1,0,.19,0S24.17,83.42,24.12,83.38Zm.1-.68s0,0,0-.09S24.22,82.66,24.22,82.7Zm0,1.59s0,.09.14.09A.2.2,0,0,0,24.17,84.29Zm.14-1.59v.19s-.09,0-.09-.19Zm.05,1.92c.05,0,.1.15.05.2a1.37,1.37,0,0,0,.48.23.46.46,0,0,1,.1-.23.29.29,0,0,1-.29-.15v-.19h-.24c-.05,0-.05-.19-.1-.19a.38.38,0,0,1-.05.14l0,.1S24.31,84.58,24.36,84.62Zm.05-1.15-.05,0c-.05,0,0,0,.05-.14S24.46,83.42,24.41,83.47Zm.05-.43c-.15,0-.1-.15.05-.1Zm.09.67h-.14v-.09A.2.2,0,0,1,24.55,83.71Zm.2,1.49A1.63,1.63,0,0,1,24.6,85c0,.05,0,.05-.05.09h0S24.6,85.25,24.75,85.2Zm0-.91a.11.11,0,0,0-.1-.1v.1ZM25,86.54c.09,0,.14,0,.14-.09a.18.18,0,0,1,.05-.15.22.22,0,0,1-.24-.14s-.15,0-.19,0,.14,0,.09.19C25,86.35,25,86.4,25,86.54Zm-.1-.67h0Zm1.73,1.59c-.05,0-.05,0,0-.1l.05-.1-.15-.09c-.09-.1-.14-.19-.09-.29-.2,0-.58-.24-.77-.19,0-.15-.19-.15-.24-.29-.05,0-.1.1-.05.14v.1c-.14-.1-.24-.1-.34,0s0,0,0,0v.14c.24,0,.48.48.67.48,0,0,.05-.1.2-.1a.18.18,0,0,1,.14,0l-.24-.34c.14,0,.19.15.24.15A.76.76,0,0,0,26.62,87.46Zm-.77,0,0,0,0,0-.05,0Zm.24-.58v0Zm.38,1.78s0,0-.09,0S26.43,88.61,26.47,88.66Zm0,19h.09v-.1h-.05s0,0,0,0Zm.38-20.16c.05,0,.05,0,.05,0Zm.29,13.15h0Zm0-11.62h-.1V88.9C27.1,88.85,27.15,88.85,27.15,89Zm.09,9.79s0,.15,0,.2c0-.1-.09-.15,0-.2Zm0-.19v0h0v0Zm0-.19v0Zm.2,1.15a.18.18,0,0,0-.15,0A.18.18,0,0,0,27.39,99.55ZM27.34,89l.05.05c-.05-.05-.05-.05-.1-.05Zm.33,9.51s.1,0,.1-.1,0-.14-.05-.14a.17.17,0,0,0,.05.14Zm.15-13.73h.05a.11.11,0,0,0-.1-.1v0Zm0,12.29.05,0c0-.14,0-.19-.05-.19s.05,0,0,.1h-.05Zm.24,10s0,0-.1,0l-.09,0C28,107.23,28.06,107.23,28.06,107.09Zm.57-42.29h-.09S28.63,64.75,28.63,64.8Zm0,10.37.1,0c0,.2-.05.29-.14.29a.88.88,0,0,0,0-.33Zm.82-11.33s-.05,0-.1,0S29.4,63.84,29.45,63.84Zm.14-.29v.1h0v-.1Zm.05,31.54c.05,0,.05,0,.05-.1S29.64,95,29.64,95.09ZM29.79,106c-.1,0-.15,0-.1.1Zm0-42.62v-.15l.09,0C29.93,63.31,29.88,63.36,29.79,63.36Zm.09,42.77v.05h-.09v-.05Zm.1-2.55v-.09c-.05.05-.05.05-.05.09Zm.14-2.35c.19,0,.05-.57.19-.62s0-.15,0-.19h-.15c0,.38,0,1.2-.09,1.53A.53.53,0,0,0,30.12,101.23Zm0,1.06v.09c0,.05,0,.05,0,.1S30.12,102.38,30.08,102.29Zm0,.53V103C30.12,103,30.12,102.91,30,102.82Zm.09-3.22,0,.05v0S30.12,99.65,30.12,99.6Zm0,.77.23-.05s0-.1.05-.19-.05-.1-.05-.19.1,0,.15-.15q-.15.08-.15,0V99.7a.59.59,0,0,0-.09.33A1.35,1.35,0,0,1,30.08,100.37Zm.28-1c-.24,0-.24.1-.05.29A.59.59,0,0,1,30.36,99.36Zm-.09-.72c-.05,0-.05,0,0,0v0Zm.09-1.15v0Zm.1,2.11c.05,0,.05-.1,0-.14a.17.17,0,0,1-.05.14c-.05.05-.05.1,0,.1S30.41,99.65,30.46,99.6Zm.09-4.85s-.09.19,0,.34h-.05c-.05,0-.05.09-.05.19s.14.1.14.14.1-.43.24-.48v-.38a.11.11,0,0,0,.1-.1h-.1v.1S30.7,94.8,30.55,94.75Zm0,.34a.19.19,0,0,1,0,.14l-.05,0v-.09h.09Zm.82-5.57s.1.14.1.19-.29.24-.39.34.05-.34.05-.48.1-.29.24-.29a.3.3,0,0,1,0-.29c-.05,0-.1.19-.24.19.14-.28.14-.48,0-.52,0,.19-.19,1-.05,1.2A.1.1,0,0,0,31,90a8.71,8.71,0,0,1-.29,2.21h-.1l.1,0c0,.43-.43.81-.05,1,0-.1,0-.15.05-.15.05.19-.05.91.09,1a4.75,4.75,0,0,1,.34-1.44c-.05,0-.05,0-.09,0v.1c-.25,0,0-.67,0-.82s.09,0,.09-.05c-.24-.24.1-1.29.1-1.53.19-.05.19-.43.24-.58S31.42,89.52,31.37,89.52ZM30.65,93s0,0-.1,0S30.6,93,30.65,93Zm.05,2.74c0-.05-.05-.1-.15-.14v.19A.18.18,0,0,0,30.7,95.76Zm0,4.66-.05,0v0Zm.09-8v.14H30.7v-.14Zm0,.29c-.05,0-.05,0-.05-.1S30.75,92.69,30.75,92.74Zm0,5.13c0-.05,0-.05-.09-.05S30.75,97.87,30.79,97.87Zm-.09,1.39.05,0s0-.1.09-.1S30.79,99.31,30.7,99.26Zm.09.63-.09,0s.05-.1.09-.14S30.75,99.84,30.79,99.89Zm-.09.43v0Zm.14-4.22h-.05s0,0,0,0V95.9C30.89,96,30.79,96.05,30.84,96.1Zm.1,1.87v0l-.05,0h-.05v0l.05,0Zm.1-2.21s0,0,.09,0a.25.25,0,0,1-.24.14s0-.09.05-.09,0,0,0-.1Zm0,.43v.1c-.05,0-.05,0-.1,0l-.05-.05.1-.1s0,0,0-.09S31.08,96.1,31,96.19Zm0-1.82s0,0,0-.05,0,0,0,0v0l-.05.05Zm0,1.29c-.05,0-.05,0-.05-.09S31,95.62,31,95.66Zm.62-12c-.05,0-.15,0-.19,0-.15.47-.1.76.09.86C31.61,84.29,31.51,83.71,31.66,83.66Zm-.24,5.14h0Zm.09-5.57s.1-.19.24-.14a1.37,1.37,0,0,1,.05-.58c-.14,0-.14-.14-.19-.14a2.15,2.15,0,0,0-.1,1.15Zm.2,4.13c-.1,0-.15,0-.15,0S31.71,87.41,31.71,87.36Zm-.15.29v.14C31.61,87.79,31.61,87.74,31.56,87.65Zm.19-6.05s0-.1,0-.1-.1.15-.05.19Zm.05,1.78h-.14v.09C31.71,83.47,31.75,83.42,31.8,83.38Zm0,4.27V87.6l-.05,0h0v.1Zm0-7.25v0Zm0,7c.05.19.1.29.15.29s0-.1.05-.1.43-.24.62-.24c0-.14.38-.1.43-.29-.29,0-.43.29-.72.1C32.28,87.26,31.85,87.31,31.8,87.36Zm.2-8v-.09h-.1v.09Zm.19,5.57s-.29.38-.1.43.34-.19.38-.33-.09-.05-.14,0L32.24,85a.06.06,0,0,1,0-.1v-.09s0,0-.09,0-.1,0-.1,0,.1.1,0,.14a.18.18,0,0,0,0,.15C32.19,85,32.24,85,32.19,84.91Zm2-1.63h.24s.14,0,.14,0c.14-.29.62-.24.62-.48.05,0,.05.14.2.14l.33-.19c-.1,0-.14,0-.14,0a.37.37,0,0,1,.19-.09c.19,0,.34-.1.53-.1s.24-.24.24-.29l0,0-.1-.14s.2.1.24.1.1-.1.15-.1,0,.1,0,.14c.09-.19.33-.19.43-.28-.19,0-.29,0-.29,0s.34-.19.39,0c0-.05,0-.1.14-.14s.1-.1.1-.15l-.29.15c0-.05,0-.05-.1-.05a.1.1,0,0,1-.09-.1c.14,0,.24,0,.28,0l.39-.19s-.1.1-.1.15a.66.66,0,0,1,.58-.1l.14-.19a.24.24,0,0,0,.19-.15c-.28.15-.43.19-.43.24h-.38c0-.05.24-.09.09-.24l.39-.19c.09,0,.09,0,.05.1a.14.14,0,0,1,.19,0l.14,0c.15-.14.15-.14,0-.24l.15-.14s-.15,0-.2,0c0-.15-.09-.24-.09-.29.43-.24.72-.43.86-.48V80c.05,0,.63-.29.67-.48h.2a.22.22,0,0,1,.24-.24l0,0V79h.1c.14,0,.14-.05.1-.2.24,0,.38-.14.38-.24a1.57,1.57,0,0,0,.29-.09.33.33,0,0,0,.14,0l.1-.1-.1,0-.14.1c-.15,0-.24,0-.29,0v0a.76.76,0,0,1-.48.2,1.22,1.22,0,0,1-.1-.34L41,78s-.09,0-.09,0h.19c0-.14.38-.33.43-.53h-.1s-.09,0-.09,0a.18.18,0,0,1-.05.15c-.19,0-.53.09-.72.09.05,0,.53-.19.58-.33,0,0-.2,0-.2,0,0-.2.34,0,.34-.2h-.19l0,0c0-.15.14.09.28,0V77c.05,0,.05-.1,0-.1a.32.32,0,0,1-.19.1l.1-.1c0-.09.14-.14.19-.09,0-.15,0-.24.1-.24l0,0s0,0,.1,0l0,0v-.1h-.15c0-.14.44-.29.39-.48a3.44,3.44,0,0,0,.91-1.2H43c0-.19.43-.53.48-.72h-.15l-.09,0c.05,0,.24-.48.38-.52s0,0,0,0v0l-.19.19c.05,0,.14-.09.19,0l.05-.1s0,0,0,0,.43-.67.38-.72c-.19.19-.29.29-.34.24s.34-.57.29-.77c.19,0,.24-.43.39-.43s.19,0,.19-.05h-.24l0,0c0-.15.09-.1.09,0v0s.43-.24.39-.48c.14,0,.28-.29.43-.72l0,0c-.05,0-.05,0,0,0s-.1,0-.14,0,0,0-.05,0c.33-.77.57-1.2.62-1.3v-.19s0-.29.19-.29L46.68,67c0-.05,0-.1,0-.15s.09,0,.09,0l0,0,0,0,0,0v0l-.09-.24c0,.05,0,.05.09,0a.18.18,0,0,1,.15,0v.15s.38-.67.33-.91h.1l.58-2c.33-1.15.62-2.07.76-2.74,0,0-.09.19-.24.19v.24s0,.1-.19.1a8.57,8.57,0,0,0,.43-1.92s-.09,0-.09,0a2.39,2.39,0,0,0-.34-2.4,3.88,3.88,0,0,0-2.35,0c0,.1-.43,0-.43.15,0-.05,0-.05,0-.1a15.85,15.85,0,0,1-1.64.33c0,.2-.62.29-.67.44,0-.05,0-.05-.05-.1a5.6,5.6,0,0,1-1,.43v.24l0,0s0-.09,0,0c-.24,0-.91.48-1.15.52V59c-.15,0-.34.24-.48.19a.18.18,0,0,1,0,.15c-.34,0-.82.52-1.06.57V60H39.2c-.15.25-.77.58-.92.92,0,0,0-.05-.09-.05s0,.14-.1.14a11.29,11.29,0,0,1-.91.67v.15a14.67,14.67,0,0,0-1.54,1.3,5.23,5.23,0,0,1-.72.81,2.18,2.18,0,0,0-.67,1.25,1.43,1.43,0,0,1-.09.67c0,.39-.24,1.49-.24,1.87l-.05.1s0,0,0,0a17.92,17.92,0,0,1-.24,1.82h0c-.1,1.06-.48,3.17-.48,4.56h-.14c.05.53-.2,1.78-.2,2.11,0,0,.1,0,.1,0a9,9,0,0,0-.14,1.2c-.15.15-.1.34-.15.48l0,0v.1c-.14.24,0,.91-.1,1.15s-.14.43-.14.57v1c0,.63,0,.91-.09.91s0,.2,0,.2c.14.24.14.38,0,.43a3.27,3.27,0,0,1-.2,1.53c.2,0,0,.53.2.53,0,0-.05-.19,0-.19.43,0,.81-.24,1-.24,0,0,0,0,0-.14a.82.82,0,0,0,.53-.24s0,0,0,0v0s0-.1,0-.1.14,0,.29,0c-.15,0-.2,0-.2,0a1.79,1.79,0,0,1,.29-.05s-.09-.1-.24-.15C34.06,83.42,34.11,83.38,34.16,83.28Zm-1.11,1.44s-.34.1-.38,0c-.05.15-.34.19-.39.24A1.57,1.57,0,0,0,33.05,84.72Zm-.62.82,0-.05c0,.05,0,.05.09.05Zm0,1.53c.24,0,.38,0,.38-.19-.14,0-.14.1-.29.1Zm.14.48c-.05,0-.14,0-.14,0A.08.08,0,0,0,32.52,87.55Zm.15-3.26h-.1S32.67,84.33,32.67,84.29Zm.09,3q0,.3.15,0Zm.39-3.21a.63.63,0,0,0-.24,0,.45.45,0,0,1,.24-.19v.24Zm-.15.86s0,0,0,0S33,84.86,33,84.91Zm.72-.43s-.09,0-.19.1a.3.3,0,0,1-.33,0s-.2.2-.05.24a.72.72,0,0,1,.57-.14s-.14.1-.14.14a.41.41,0,0,0,.24-.14c.34,0,.48,0,.53-.19l-.43-.1-.1.1a.36.36,0,0,1-.19.09C33.58,84.58,33.72,84.53,33.72,84.48Zm-.38-.63c0,.05-.1.05-.1.1h-.09C33.24,83.85,33.29,83.81,33.34,83.85Zm.14,2.89h-.09c-.15.14-.24.24-.24.28s.38-.19.57-.14.2-.14.44-.14c0-.15.19-.24.19-.29a2.71,2.71,0,0,0-.77.33A.06.06,0,0,1,33.48,86.74Zm.29-3.22v0c-.1,0-.14,0-.19,0Zm.15-.1H34S34,83.47,33.92,83.42Zm.33,0s0,0-.09,0v0Zm0,1h0Zm.2-1s-.1.09-.1.14S34.4,83.42,34.4,83.38Zm.09.91a.11.11,0,0,0-.09-.1v.1Zm.1-.91c-.05,0-.05,0-.05,0v.1C34.59,83.52,34.59,83.42,34.59,83.38Zm0,.62v.19S34.73,84,34.59,84Zm.29-.1s0,0,0-.05,0,0-.09,0l0,0c-.05.05-.05.05,0,.1Zm.86-.77c-.05.05-.05.05-.05.1s.05,0,.1-.1l0-.09a.11.11,0,0,1,.1.09h.19v-.19a.6.6,0,0,0-.38.1V83c-.15,0-.34.14-.48.14s-.24,0-.29.1c.05,0,.1,0,.15,0h0a.3.3,0,0,1,.34-.1c0-.14.24-.09.24-.14S35.79,83.09,35.74,83.13Zm-.72.58v.1l.14-.1Zm.53,2.5-.15.09a1.09,1.09,0,0,1-.33-.09c.14,0,.33,0,.62-.29C35.74,86.06,35.74,86,35.55,86.21Zm-.34-2.69c.1,0,.1,0,0,.1h.24l0-.1c0-.1,0-.14.14-.1,0-.24-.53,0-.57,0S35.16,83.47,35.21,83.52Zm.62-1s0,0-.09,0S35.79,82.51,35.83,82.51Zm0,2.54v0Zm.05-2.16a.36.36,0,0,1,.2,0V82.7c-.1,0-.15,0-.2,0C36,82.75,35.83,82.89,35.88,82.89Zm.29,2c.1,0,.15,0,.15-.09s.14,0,.28,0,.1-.1.15-.24c0,0-.39.09-.43.29C36.27,84.77,36.22,84.82,36.17,84.91ZM36.6,82h-.09v0C36.56,81.89,36.6,81.89,36.6,82Zm.15,3.75s0,0,0,0l-.1,0s0-.14,0-.19h.1Zm0-1.73s0,0,.09,0S36.75,84,36.75,84Zm.09.53v0c-.05,0-.05,0-.09,0v.1Zm1.44.09c.1.24-.43.2-.43.43-.24.15-.43.24-.48.34l-.38.24h-.24Zm-1.39-2.88,0,.05V81.6s.2,0,.2.05ZM37.18,84s0-.14.1-.1.19.05.33-.09c.1.09.19,0,.29-.19-.1,0-.15.05-.15.09C37.56,83.66,37.08,83.66,37.18,84Zm.34-.91c-.1,0-.15,0-.15.14C37.52,83.18,37.56,83.13,37.52,83Zm.14-1.35c.05,0,.05,0,.05-.09l-.1.09Zm0,2.93.62-.43C38.38,84.43,38,84.62,37.66,84.62ZM38,80.16h0Zm0,.24a.16.16,0,0,1,.14-.05C38.14,80.4,38,80.45,38,80.4Zm0,3.65a.27.27,0,0,1,.2-.15A.27.27,0,0,1,38,84.05Zm.34-.77s-.19,0-.19.1v0l.05-.1S38.33,83.28,38.38,83.28Zm0-2.74s0,0-.15,0,0,0,0,0Zm-.15.58s0,0,0,0Zm0-.29a.26.26,0,0,1,.19-.1A.32.32,0,0,1,38.33,80.83Zm.1,2.64s0,0,0,0S38.38,83.47,38.43,83.47Zm.09.72,0,0c-.1,0-.1,0,0-.1l.09,0Zm-.09.43c0-.14.14-.19.14-.24S38.57,84.48,38.43,84.62Zm.09-1.24-.09.09A.1.1,0,0,1,38.52,83.38Zm.24-.44s0,0-.09,0S38.72,82.94,38.76,82.94Zm0,.77a1.43,1.43,0,0,1,.53-.24C39.24,83.57,39.05,83.66,38.76,83.71Zm.34-3.65c-.24.1-.34.19-.29.24S39.05,80.21,39.1,80.06Zm.34,2s0-.1.19-.1h-.19l0,0s0-.1.05-.1a1.27,1.27,0,0,0-.43,0V82C39.24,82,39.39,82,39.44,82Zm0,1.35s0,0,0,0a.18.18,0,0,1-.15,0Zm0,.47a.15.15,0,0,0-.1.05C39.34,83.85,39.34,83.85,39.39,83.85Zm.24-.47h0Zm.24-4.57h0Zm.43-.57c.05.05.1.05.14,0a.09.09,0,0,1-.09.09q-.15.08-.15.15s-.19,0-.33,0c.05-.1.14-.15.33-.15l0,0v-.1c.09,0,.14,0,.14-.1S40.4,78.14,40.3,78.24Zm-.24.43-.05,0h0c0-.05,0-.05.15-.05S40.06,78.62,40.06,78.67Zm0-18.91a.18.18,0,0,1-.05-.15C40.06,59.66,40.11,59.71,40.06,59.76Zm.1,23.13V83H40C40.06,82.94,40.11,82.89,40.16,82.89Zm.28-4.84a.35.35,0,0,1,.34-.29A.43.43,0,0,1,40.44,78.05Zm.05,4.61h0l0,0h-.05v-.09Zm.1-23.33h0Zm0,23.09,0,0c0-.05,0-.05,0-.1S40.64,82.37,40.59,82.42Zm.33-.25s0,0-.14,0,0,0,0,0Zm0-2.49s0,0,.09,0Zm0-1.87v0h0c.05,0,.05,0,.1,0Zm.2,2c-.1,0-.15.05-.15.1S41.07,79.87,41.12,79.82Zm0,0,0,0c.1,0,.1,0,.05-.09Zm.19,1.92h0Zm.24-4.46c-.15,0-.24,0-.24,0S41.5,77.33,41.55,77.23Zm.38,2.21c0-.15-.24-.1-.29,0S41.79,79.44,41.93,79.44Zm0-2.64s-.14,0-.19.19Zm0-.72h-.1V76C42,76,42,76,42,76.08Zm.1,4.8c0-.15.14-.24.38-.29A.81.81,0,0,1,42.08,80.88Zm.48-23.19v0h-.1v0Zm.09,22.52s0,0-.09,0S42.6,80.21,42.65,80.21ZM42.8,75h-.15v0C42.75,75,42.8,75,42.8,75Zm0,5.14h-.1c0-.1.1-.15.29-.15C42.94,80.11,42.89,80.16,42.75,80.16Zm.09-5.28c0,.05,0,.05,0,0Zm0,3.36v0l0,0v0l0,0Zm0-20.12V58s.1,0,.1,0S43,58.08,42.84,58.12Zm.1,16.42c0-.05.05-.05.19-.05S43.08,74.54,42.94,74.54Zm.1-.19h0Zm.33,5.23c0,.15-.24.24-.24.29s-.09-.05-.09-.14a2,2,0,0,0,.28-.1s-.09,0-.09-.1A.16.16,0,0,1,43.37,79.58Zm-.19.34h0ZM43.32,78c-.09,0-.14,0-.14.14A.12.12,0,0,0,43.32,78Zm0-.1s0,0,0,0Zm.15,1.59a.09.09,0,0,0-.15,0h0a.38.38,0,0,1,.1-.2s.1-.09.1-.14S43.52,79.44,43.52,79.49Zm.14-.34s0,0,0,0Zm.58-22.08c-.05,0-.1,0-.2,0H43.9C44.28,57.31,44.14,57.17,44.24,57.07Zm-.05,15.36s0,0,.05.1l.09,0S44.28,72.43,44.19,72.43Zm.05.19v0Zm.43-.57a.46.46,0,0,1-.15,0A.21.21,0,0,0,44.67,72.05Zm-.1,3.07v-.05c0,.05,0,.1,0,.1Zm0-3.46.29-.24C44.86,71.57,44.76,71.66,44.57,71.66Zm.48,5.67c-.19,0-.33.33-.48.38,0-.19.39-.48.43-.53S45.05,77.23,45.05,77.33Zm-.14-6.15v0s0,0,0,0h0v-.1Zm.09,5h0Zm.53-6c-.14.09-.19.14-.05.19S45.58,70.17,45.53,70.13Zm.1-13-.05,0Zm.09-.15c.05,0,.1,0,.1-.05S45.72,57,45.72,57ZM46,75.65l0,0s.09.1,0,.15-.14.09-.24,0c.15-.19.24-.29.29-.29Zm-.19-18.44s0-.09.15-.09S45.87,57.21,45.77,57.21Zm.34,18.24v.1H46A.11.11,0,0,1,46.11,75.45Zm0-18.33s0,0,.1,0S46.11,57.12,46.06,57.12Zm.1,18.53,0,0v0s0,0,0,0v0Zm.38-.72L46.4,75l-.15.19c0,.05-.09-.09-.14-.09l.38-.24s-.33.05-.33-.1c0,0,.09,0,.09-.09a.11.11,0,0,0,.15,0l.09,0A1.6,1.6,0,0,1,46.54,74.93Zm-.19-7.44h-.1l0,0s.15,0,.15-.1Zm-.1.14,0,.05Zm0-10.56s0-.1.15-.1h.14C46.54,57.12,46.3,57.12,46.25,57.07Zm.19-.58s0,0,.05.1.24,0,.24-.1S46.49,56.54,46.44,56.49Zm.15,17.62v0c-.05,0-.05,0-.05,0Zm0-17s0-.1.14-.1S46.68,57.12,46.59,57.07ZM47,73.92c-.05,0-.14,0-.34,0l.29-.2C47,73.77,47.07,73.82,47,73.92Zm-.14.33v0c-.15,0-.2,0-.2,0s.2,0,.24,0Zm0-17.18c0-.15.2-.15.44,0C47.31,57.21,47,57,46.92,57.07Zm.24,16.66s-.09,0-.14-.15l0,0S47.16,73.58,47.16,73.73Zm.2-.48c-.15,0-.15.14-.29.14v0s0-.09,0-.09a.35.35,0,0,1,.19-.1c0-.05,0-.05.05-.05s0,.05,0,.05Zm.28-.53c-.14,0-.19.09-.24,0l.2-.15S47.64,72.67,47.64,72.72ZM47.5,65s0,0,.1,0Zm.1.24s-.05,0-.1,0v0Zm0-.15s0,0,0-.09h0Zm0,7.2c.09-.09.19-.43.33-.28A.4.4,0,0,1,47.6,72.33Zm.14-7.77s0,0,.1,0ZM48,72c-.15,0-.19-.1-.19-.14A.25.25,0,0,1,48,72Zm-.1-9.6c0-.05,0-.1.15-.19C48.08,62.3,48,62.35,47.93,62.35Zm.24,9.07c-.05,0-.05,0-.05-.14S48.17,71.33,48.17,71.42Zm.1-.29c-.19,0-.19,0,0-.14Zm0-9.6v.1h-.1l0-.1Zm.09,9.41-.09,0C48.27,70.89,48.32,70.89,48.36,70.94ZM49.9,55l.05.09c0,.05,0,.1.09.1S50,55.05,49.9,55Zm.19,10.94v-.09l0,0Zm1-2.59v0Z"/></g></g></svg>